G04 #@! TF.GenerationSoftware,KiCad,Pcbnew,5.1.5-52549c5~86~ubuntu18.04.1*
G04 #@! TF.CreationDate,2020-05-18T11:22:32+07:00*
G04 #@! TF.ProjectId,openSTM32F4_LQFP64,6f70656e-5354-44d3-9332-46345f4c5146,rev?*
G04 #@! TF.SameCoordinates,Original*
G04 #@! TF.FileFunction,Legend,Bot*
G04 #@! TF.FilePolarity,Positive*
%FSLAX46Y46*%
G04 Gerber Fmt 4.6, Leading zero omitted, Abs format (unit mm)*
G04 Created by KiCad (PCBNEW 5.1.5-52549c5~86~ubuntu18.04.1) date 2020-05-18 11:22:32*
%MOMM*%
%LPD*%
G04 APERTURE LIST*
%ADD10C,0.150000*%
G04 APERTURE END LIST*
D10*
X175710895Y-100417441D02*
X176510895Y-100417441D01*
X176510895Y-100112680D01*
X176472800Y-100036489D01*
X176434704Y-99998394D01*
X176358514Y-99960299D01*
X176244228Y-99960299D01*
X176168038Y-99998394D01*
X176129942Y-100036489D01*
X176091847Y-100112680D01*
X176091847Y-100417441D01*
X176510895Y-99693632D02*
X175710895Y-99503156D01*
X176282323Y-99350775D01*
X175710895Y-99198394D01*
X176510895Y-99007918D01*
X175710895Y-98703156D02*
X176510895Y-98703156D01*
X175939466Y-98436489D01*
X176510895Y-98169822D01*
X175710895Y-98169822D01*
X176510895Y-97865060D02*
X176510895Y-97369822D01*
X176206133Y-97636489D01*
X176206133Y-97522203D01*
X176168038Y-97446013D01*
X176129942Y-97407918D01*
X176053752Y-97369822D01*
X175863276Y-97369822D01*
X175787085Y-97407918D01*
X175748990Y-97446013D01*
X175710895Y-97522203D01*
X175710895Y-97750775D01*
X175748990Y-97826965D01*
X175787085Y-97865060D01*
X178225495Y-100442841D02*
X179025495Y-100442841D01*
X179025495Y-100138080D01*
X178987400Y-100061889D01*
X178949304Y-100023794D01*
X178873114Y-99985699D01*
X178758828Y-99985699D01*
X178682638Y-100023794D01*
X178644542Y-100061889D01*
X178606447Y-100138080D01*
X178606447Y-100442841D01*
X179025495Y-99719032D02*
X178225495Y-99528556D01*
X178796923Y-99376175D01*
X178225495Y-99223794D01*
X179025495Y-99033318D01*
X178225495Y-98728556D02*
X179025495Y-98728556D01*
X178454066Y-98461889D01*
X179025495Y-98195222D01*
X178225495Y-98195222D01*
X178949304Y-97852365D02*
X178987400Y-97814270D01*
X179025495Y-97738080D01*
X179025495Y-97547603D01*
X178987400Y-97471413D01*
X178949304Y-97433318D01*
X178873114Y-97395222D01*
X178796923Y-97395222D01*
X178682638Y-97433318D01*
X178225495Y-97890460D01*
X178225495Y-97395222D01*
X180689295Y-100392041D02*
X181489295Y-100392041D01*
X181489295Y-100087280D01*
X181451200Y-100011089D01*
X181413104Y-99972994D01*
X181336914Y-99934899D01*
X181222628Y-99934899D01*
X181146438Y-99972994D01*
X181108342Y-100011089D01*
X181070247Y-100087280D01*
X181070247Y-100392041D01*
X181489295Y-99668232D02*
X180689295Y-99477756D01*
X181260723Y-99325375D01*
X180689295Y-99172994D01*
X181489295Y-98982518D01*
X180689295Y-98677756D02*
X181489295Y-98677756D01*
X180917866Y-98411089D01*
X181489295Y-98144422D01*
X180689295Y-98144422D01*
X180689295Y-97344422D02*
X180689295Y-97801565D01*
X180689295Y-97572994D02*
X181489295Y-97572994D01*
X181375009Y-97649184D01*
X181298819Y-97725375D01*
X181260723Y-97801565D01*
X183305495Y-100315841D02*
X184105495Y-100315841D01*
X184105495Y-100011080D01*
X184067400Y-99934889D01*
X184029304Y-99896794D01*
X183953114Y-99858699D01*
X183838828Y-99858699D01*
X183762638Y-99896794D01*
X183724542Y-99934889D01*
X183686447Y-100011080D01*
X183686447Y-100315841D01*
X184105495Y-99592032D02*
X183305495Y-99401556D01*
X183876923Y-99249175D01*
X183305495Y-99096794D01*
X184105495Y-98906318D01*
X183305495Y-98601556D02*
X184105495Y-98601556D01*
X183534066Y-98334889D01*
X184105495Y-98068222D01*
X183305495Y-98068222D01*
X184105495Y-97534889D02*
X184105495Y-97458699D01*
X184067400Y-97382508D01*
X184029304Y-97344413D01*
X183953114Y-97306318D01*
X183800733Y-97268222D01*
X183610257Y-97268222D01*
X183457876Y-97306318D01*
X183381685Y-97344413D01*
X183343590Y-97382508D01*
X183305495Y-97458699D01*
X183305495Y-97534889D01*
X183343590Y-97611080D01*
X183381685Y-97649175D01*
X183457876Y-97687270D01*
X183610257Y-97725365D01*
X183800733Y-97725365D01*
X183953114Y-97687270D01*
X184029304Y-97649175D01*
X184067400Y-97611080D01*
X184105495Y-97534889D01*
X158667466Y-100487308D02*
X158667466Y-100106356D01*
X158438895Y-100563499D02*
X159238895Y-100296832D01*
X158438895Y-100030165D01*
X158438895Y-99763499D02*
X159238895Y-99763499D01*
X159238895Y-99573022D01*
X159200800Y-99458737D01*
X159124609Y-99382546D01*
X159048419Y-99344451D01*
X158896038Y-99306356D01*
X158781752Y-99306356D01*
X158629371Y-99344451D01*
X158553180Y-99382546D01*
X158476990Y-99458737D01*
X158438895Y-99573022D01*
X158438895Y-99763499D01*
X158515085Y-98506356D02*
X158476990Y-98544451D01*
X158438895Y-98658737D01*
X158438895Y-98734927D01*
X158476990Y-98849213D01*
X158553180Y-98925403D01*
X158629371Y-98963499D01*
X158781752Y-99001594D01*
X158896038Y-99001594D01*
X159048419Y-98963499D01*
X159124609Y-98925403D01*
X159200800Y-98849213D01*
X159238895Y-98734927D01*
X159238895Y-98658737D01*
X159200800Y-98544451D01*
X159162704Y-98506356D01*
X159238895Y-98011118D02*
X159238895Y-97934927D01*
X159200800Y-97858737D01*
X159162704Y-97820641D01*
X159086514Y-97782546D01*
X158934133Y-97744451D01*
X158743657Y-97744451D01*
X158591276Y-97782546D01*
X158515085Y-97820641D01*
X158476990Y-97858737D01*
X158438895Y-97934927D01*
X158438895Y-98011118D01*
X158476990Y-98087308D01*
X158515085Y-98125403D01*
X158591276Y-98163499D01*
X158743657Y-98201594D01*
X158934133Y-98201594D01*
X159086514Y-98163499D01*
X159162704Y-98125403D01*
X159200800Y-98087308D01*
X159238895Y-98011118D01*
X156279866Y-100538108D02*
X156279866Y-100157156D01*
X156051295Y-100614299D02*
X156851295Y-100347632D01*
X156051295Y-100080965D01*
X156051295Y-99814299D02*
X156851295Y-99814299D01*
X156851295Y-99623822D01*
X156813200Y-99509537D01*
X156737009Y-99433346D01*
X156660819Y-99395251D01*
X156508438Y-99357156D01*
X156394152Y-99357156D01*
X156241771Y-99395251D01*
X156165580Y-99433346D01*
X156089390Y-99509537D01*
X156051295Y-99623822D01*
X156051295Y-99814299D01*
X156127485Y-98557156D02*
X156089390Y-98595251D01*
X156051295Y-98709537D01*
X156051295Y-98785727D01*
X156089390Y-98900013D01*
X156165580Y-98976203D01*
X156241771Y-99014299D01*
X156394152Y-99052394D01*
X156508438Y-99052394D01*
X156660819Y-99014299D01*
X156737009Y-98976203D01*
X156813200Y-98900013D01*
X156851295Y-98785727D01*
X156851295Y-98709537D01*
X156813200Y-98595251D01*
X156775104Y-98557156D01*
X156051295Y-97795251D02*
X156051295Y-98252394D01*
X156051295Y-98023822D02*
X156851295Y-98023822D01*
X156737009Y-98100013D01*
X156660819Y-98176203D01*
X156622723Y-98252394D01*
X153816066Y-100487308D02*
X153816066Y-100106356D01*
X153587495Y-100563499D02*
X154387495Y-100296832D01*
X153587495Y-100030165D01*
X153587495Y-99763499D02*
X154387495Y-99763499D01*
X154387495Y-99573022D01*
X154349400Y-99458737D01*
X154273209Y-99382546D01*
X154197019Y-99344451D01*
X154044638Y-99306356D01*
X153930352Y-99306356D01*
X153777971Y-99344451D01*
X153701780Y-99382546D01*
X153625590Y-99458737D01*
X153587495Y-99573022D01*
X153587495Y-99763499D01*
X153663685Y-98506356D02*
X153625590Y-98544451D01*
X153587495Y-98658737D01*
X153587495Y-98734927D01*
X153625590Y-98849213D01*
X153701780Y-98925403D01*
X153777971Y-98963499D01*
X153930352Y-99001594D01*
X154044638Y-99001594D01*
X154197019Y-98963499D01*
X154273209Y-98925403D01*
X154349400Y-98849213D01*
X154387495Y-98734927D01*
X154387495Y-98658737D01*
X154349400Y-98544451D01*
X154311304Y-98506356D01*
X154311304Y-98201594D02*
X154349400Y-98163499D01*
X154387495Y-98087308D01*
X154387495Y-97896832D01*
X154349400Y-97820641D01*
X154311304Y-97782546D01*
X154235114Y-97744451D01*
X154158923Y-97744451D01*
X154044638Y-97782546D01*
X153587495Y-98239689D01*
X153587495Y-97744451D01*
X151326866Y-100411108D02*
X151326866Y-100030156D01*
X151098295Y-100487299D02*
X151898295Y-100220632D01*
X151098295Y-99953965D01*
X151098295Y-99687299D02*
X151898295Y-99687299D01*
X151898295Y-99496822D01*
X151860200Y-99382537D01*
X151784009Y-99306346D01*
X151707819Y-99268251D01*
X151555438Y-99230156D01*
X151441152Y-99230156D01*
X151288771Y-99268251D01*
X151212580Y-99306346D01*
X151136390Y-99382537D01*
X151098295Y-99496822D01*
X151098295Y-99687299D01*
X151174485Y-98430156D02*
X151136390Y-98468251D01*
X151098295Y-98582537D01*
X151098295Y-98658727D01*
X151136390Y-98773013D01*
X151212580Y-98849203D01*
X151288771Y-98887299D01*
X151441152Y-98925394D01*
X151555438Y-98925394D01*
X151707819Y-98887299D01*
X151784009Y-98849203D01*
X151860200Y-98773013D01*
X151898295Y-98658727D01*
X151898295Y-98582537D01*
X151860200Y-98468251D01*
X151822104Y-98430156D01*
X151898295Y-98163489D02*
X151898295Y-97668251D01*
X151593533Y-97934918D01*
X151593533Y-97820632D01*
X151555438Y-97744441D01*
X151517342Y-97706346D01*
X151441152Y-97668251D01*
X151250676Y-97668251D01*
X151174485Y-97706346D01*
X151136390Y-97744441D01*
X151098295Y-97820632D01*
X151098295Y-98049203D01*
X151136390Y-98125394D01*
X151174485Y-98163489D01*
X148507495Y-100550813D02*
X149307495Y-100550813D01*
X149307495Y-100360337D01*
X149269400Y-100246051D01*
X149193209Y-100169860D01*
X149117019Y-100131765D01*
X148964638Y-100093670D01*
X148850352Y-100093670D01*
X148697971Y-100131765D01*
X148621780Y-100169860D01*
X148545590Y-100246051D01*
X148507495Y-100360337D01*
X148507495Y-100550813D01*
X148736066Y-99788908D02*
X148736066Y-99407956D01*
X148507495Y-99865099D02*
X149307495Y-99598432D01*
X148507495Y-99331765D01*
X148583685Y-98607956D02*
X148545590Y-98646051D01*
X148507495Y-98760337D01*
X148507495Y-98836527D01*
X148545590Y-98950813D01*
X148621780Y-99027003D01*
X148697971Y-99065099D01*
X148850352Y-99103194D01*
X148964638Y-99103194D01*
X149117019Y-99065099D01*
X149193209Y-99027003D01*
X149269400Y-98950813D01*
X149307495Y-98836527D01*
X149307495Y-98760337D01*
X149269400Y-98646051D01*
X149231304Y-98607956D01*
X148507495Y-97846051D02*
X148507495Y-98303194D01*
X148507495Y-98074622D02*
X149307495Y-98074622D01*
X149193209Y-98150813D01*
X149117019Y-98227003D01*
X149078923Y-98303194D01*
X192125523Y-80605680D02*
X192201714Y-80567584D01*
X192316000Y-80567584D01*
X192430285Y-80605680D01*
X192506476Y-80681870D01*
X192544571Y-80758060D01*
X192582666Y-80910441D01*
X192582666Y-81024727D01*
X192544571Y-81177108D01*
X192506476Y-81253299D01*
X192430285Y-81329489D01*
X192316000Y-81367584D01*
X192239809Y-81367584D01*
X192125523Y-81329489D01*
X192087428Y-81291394D01*
X192087428Y-81024727D01*
X192239809Y-81024727D01*
X191744571Y-81367584D02*
X191744571Y-80567584D01*
X191287428Y-81367584D01*
X191287428Y-80567584D01*
X190906476Y-81367584D02*
X190906476Y-80567584D01*
X190716000Y-80567584D01*
X190601714Y-80605680D01*
X190525523Y-80681870D01*
X190487428Y-80758060D01*
X190449333Y-80910441D01*
X190449333Y-81024727D01*
X190487428Y-81177108D01*
X190525523Y-81253299D01*
X190601714Y-81329489D01*
X190716000Y-81367584D01*
X190906476Y-81367584D01*
X188925180Y-80587904D02*
X189306133Y-80587904D01*
X189344228Y-80968857D01*
X189306133Y-80930761D01*
X189229942Y-80892666D01*
X189039466Y-80892666D01*
X188963276Y-80930761D01*
X188925180Y-80968857D01*
X188887085Y-81045047D01*
X188887085Y-81235523D01*
X188925180Y-81311714D01*
X188963276Y-81349809D01*
X189039466Y-81387904D01*
X189229942Y-81387904D01*
X189306133Y-81349809D01*
X189344228Y-81311714D01*
X188658514Y-80587904D02*
X188391847Y-81387904D01*
X188125180Y-80587904D01*
X189763276Y-71901104D02*
X189268038Y-71901104D01*
X189534704Y-72205866D01*
X189420419Y-72205866D01*
X189344228Y-72243961D01*
X189306133Y-72282057D01*
X189268038Y-72358247D01*
X189268038Y-72548723D01*
X189306133Y-72624914D01*
X189344228Y-72663009D01*
X189420419Y-72701104D01*
X189648990Y-72701104D01*
X189725180Y-72663009D01*
X189763276Y-72624914D01*
X189039466Y-71901104D02*
X188772800Y-72701104D01*
X188506133Y-71901104D01*
X188315657Y-71901104D02*
X187820419Y-71901104D01*
X188087085Y-72205866D01*
X187972800Y-72205866D01*
X187896609Y-72243961D01*
X187858514Y-72282057D01*
X187820419Y-72358247D01*
X187820419Y-72548723D01*
X187858514Y-72624914D01*
X187896609Y-72663009D01*
X187972800Y-72701104D01*
X188201371Y-72701104D01*
X188277561Y-72663009D01*
X188315657Y-72624914D01*
X192176323Y-71944280D02*
X192252514Y-71906184D01*
X192366800Y-71906184D01*
X192481085Y-71944280D01*
X192557276Y-72020470D01*
X192595371Y-72096660D01*
X192633466Y-72249041D01*
X192633466Y-72363327D01*
X192595371Y-72515708D01*
X192557276Y-72591899D01*
X192481085Y-72668089D01*
X192366800Y-72706184D01*
X192290609Y-72706184D01*
X192176323Y-72668089D01*
X192138228Y-72629994D01*
X192138228Y-72363327D01*
X192290609Y-72363327D01*
X191795371Y-72706184D02*
X191795371Y-71906184D01*
X191338228Y-72706184D01*
X191338228Y-71906184D01*
X190957276Y-72706184D02*
X190957276Y-71906184D01*
X190766800Y-71906184D01*
X190652514Y-71944280D01*
X190576323Y-72020470D01*
X190538228Y-72096660D01*
X190500133Y-72249041D01*
X190500133Y-72363327D01*
X190538228Y-72515708D01*
X190576323Y-72591899D01*
X190652514Y-72668089D01*
X190766800Y-72706184D01*
X190957276Y-72706184D01*
X185355270Y-105980080D02*
X185317175Y-105865794D01*
X185317175Y-105675318D01*
X185355270Y-105599127D01*
X185393365Y-105561032D01*
X185469556Y-105522937D01*
X185545746Y-105522937D01*
X185621937Y-105561032D01*
X185660032Y-105599127D01*
X185698127Y-105675318D01*
X185736222Y-105827699D01*
X185774318Y-105903889D01*
X185812413Y-105941984D01*
X185888603Y-105980080D01*
X185964794Y-105980080D01*
X186040984Y-105941984D01*
X186079080Y-105903889D01*
X186117175Y-105827699D01*
X186117175Y-105637222D01*
X186079080Y-105522937D01*
X185317175Y-105180080D02*
X186117175Y-105180080D01*
X186117175Y-104875318D01*
X186079080Y-104799127D01*
X186040984Y-104761032D01*
X185964794Y-104722937D01*
X185850508Y-104722937D01*
X185774318Y-104761032D01*
X185736222Y-104799127D01*
X185698127Y-104875318D01*
X185698127Y-105180080D01*
X185317175Y-104380080D02*
X186117175Y-104380080D01*
X185317175Y-103580080D02*
X185317175Y-104037222D01*
X185317175Y-103808651D02*
X186117175Y-103808651D01*
X186002889Y-103884841D01*
X185926699Y-103961032D01*
X185888603Y-104037222D01*
X184212175Y-105694356D02*
X184212175Y-105199118D01*
X183907413Y-105465784D01*
X183907413Y-105351499D01*
X183869318Y-105275308D01*
X183831222Y-105237213D01*
X183755032Y-105199118D01*
X183564556Y-105199118D01*
X183488365Y-105237213D01*
X183450270Y-105275308D01*
X183412175Y-105351499D01*
X183412175Y-105580070D01*
X183450270Y-105656260D01*
X183488365Y-105694356D01*
X184212175Y-104970546D02*
X183412175Y-104703880D01*
X184212175Y-104437213D01*
X184212175Y-104246737D02*
X184212175Y-103751499D01*
X183907413Y-104018165D01*
X183907413Y-103903880D01*
X183869318Y-103827689D01*
X183831222Y-103789594D01*
X183755032Y-103751499D01*
X183564556Y-103751499D01*
X183488365Y-103789594D01*
X183450270Y-103827689D01*
X183412175Y-103903880D01*
X183412175Y-104132451D01*
X183450270Y-104208641D01*
X183488365Y-104246737D01*
X181583280Y-105288003D02*
X181621375Y-105364194D01*
X181621375Y-105478480D01*
X181583280Y-105592765D01*
X181507089Y-105668956D01*
X181430899Y-105707051D01*
X181278518Y-105745146D01*
X181164232Y-105745146D01*
X181011851Y-105707051D01*
X180935660Y-105668956D01*
X180859470Y-105592765D01*
X180821375Y-105478480D01*
X180821375Y-105402289D01*
X180859470Y-105288003D01*
X180897565Y-105249908D01*
X181164232Y-105249908D01*
X181164232Y-105402289D01*
X180821375Y-104907051D02*
X181621375Y-104907051D01*
X180821375Y-104449908D01*
X181621375Y-104449908D01*
X180821375Y-104068956D02*
X181621375Y-104068956D01*
X181621375Y-103878480D01*
X181583280Y-103764194D01*
X181507089Y-103688003D01*
X181430899Y-103649908D01*
X181278518Y-103611813D01*
X181164232Y-103611813D01*
X181011851Y-103649908D01*
X180935660Y-103688003D01*
X180859470Y-103764194D01*
X180821375Y-103878480D01*
X180821375Y-104068956D01*
X178301695Y-105681622D02*
X179101695Y-105681622D01*
X178530266Y-105414956D01*
X179101695Y-105148289D01*
X178301695Y-105148289D01*
X179101695Y-104614956D02*
X179101695Y-104462575D01*
X179063600Y-104386384D01*
X178987409Y-104310194D01*
X178835028Y-104272099D01*
X178568361Y-104272099D01*
X178415980Y-104310194D01*
X178339790Y-104386384D01*
X178301695Y-104462575D01*
X178301695Y-104614956D01*
X178339790Y-104691146D01*
X178415980Y-104767337D01*
X178568361Y-104805432D01*
X178835028Y-104805432D01*
X178987409Y-104767337D01*
X179063600Y-104691146D01*
X179101695Y-104614956D01*
X178339790Y-103967337D02*
X178301695Y-103853051D01*
X178301695Y-103662575D01*
X178339790Y-103586384D01*
X178377885Y-103548289D01*
X178454076Y-103510194D01*
X178530266Y-103510194D01*
X178606457Y-103548289D01*
X178644552Y-103586384D01*
X178682647Y-103662575D01*
X178720742Y-103814956D01*
X178758838Y-103891146D01*
X178796933Y-103929241D01*
X178873123Y-103967337D01*
X178949314Y-103967337D01*
X179025504Y-103929241D01*
X179063600Y-103891146D01*
X179101695Y-103814956D01*
X179101695Y-103624480D01*
X179063600Y-103510194D01*
X178301695Y-103167337D02*
X179101695Y-103167337D01*
X175761695Y-105757822D02*
X176561695Y-105757822D01*
X175990266Y-105491156D01*
X176561695Y-105224489D01*
X175761695Y-105224489D01*
X175761695Y-104843537D02*
X176561695Y-104843537D01*
X175799790Y-104500680D02*
X175761695Y-104386394D01*
X175761695Y-104195918D01*
X175799790Y-104119727D01*
X175837885Y-104081632D01*
X175914076Y-104043537D01*
X175990266Y-104043537D01*
X176066457Y-104081632D01*
X176104552Y-104119727D01*
X176142647Y-104195918D01*
X176180742Y-104348299D01*
X176218838Y-104424489D01*
X176256933Y-104462584D01*
X176333123Y-104500680D01*
X176409314Y-104500680D01*
X176485504Y-104462584D01*
X176523600Y-104424489D01*
X176561695Y-104348299D01*
X176561695Y-104157822D01*
X176523600Y-104043537D01*
X176561695Y-103548299D02*
X176561695Y-103395918D01*
X176523600Y-103319727D01*
X176447409Y-103243537D01*
X176295028Y-103205441D01*
X176028361Y-103205441D01*
X175875980Y-103243537D01*
X175799790Y-103319727D01*
X175761695Y-103395918D01*
X175761695Y-103548299D01*
X175799790Y-103624489D01*
X175875980Y-103700680D01*
X176028361Y-103738775D01*
X176295028Y-103738775D01*
X176447409Y-103700680D01*
X176523600Y-103624489D01*
X176561695Y-103548299D01*
X173468070Y-105630851D02*
X173429975Y-105516565D01*
X173429975Y-105326089D01*
X173468070Y-105249899D01*
X173506165Y-105211803D01*
X173582356Y-105173708D01*
X173658546Y-105173708D01*
X173734737Y-105211803D01*
X173772832Y-105249899D01*
X173810927Y-105326089D01*
X173849022Y-105478470D01*
X173887118Y-105554660D01*
X173925213Y-105592756D01*
X174001403Y-105630851D01*
X174077594Y-105630851D01*
X174153784Y-105592756D01*
X174191880Y-105554660D01*
X174229975Y-105478470D01*
X174229975Y-105287994D01*
X174191880Y-105173708D01*
X173506165Y-104373708D02*
X173468070Y-104411803D01*
X173429975Y-104526089D01*
X173429975Y-104602280D01*
X173468070Y-104716565D01*
X173544260Y-104792756D01*
X173620451Y-104830851D01*
X173772832Y-104868946D01*
X173887118Y-104868946D01*
X174039499Y-104830851D01*
X174115689Y-104792756D01*
X174191880Y-104716565D01*
X174229975Y-104602280D01*
X174229975Y-104526089D01*
X174191880Y-104411803D01*
X174153784Y-104373708D01*
X173429975Y-104030851D02*
X174229975Y-104030851D01*
X173429975Y-103573708D02*
X173887118Y-103916565D01*
X174229975Y-103573708D02*
X173772832Y-104030851D01*
X172091295Y-103033622D02*
X171443676Y-103033622D01*
X171367485Y-102995527D01*
X171329390Y-102957432D01*
X171291295Y-102881241D01*
X171291295Y-102728860D01*
X171329390Y-102652670D01*
X171367485Y-102614575D01*
X171443676Y-102576480D01*
X172091295Y-102576480D01*
X171519866Y-102233622D02*
X171519866Y-101852670D01*
X171291295Y-102309813D02*
X172091295Y-102043146D01*
X171291295Y-101776480D01*
X171291295Y-101052670D02*
X171672247Y-101319337D01*
X171291295Y-101509813D02*
X172091295Y-101509813D01*
X172091295Y-101205051D01*
X172053200Y-101128860D01*
X172015104Y-101090765D01*
X171938914Y-101052670D01*
X171824628Y-101052670D01*
X171748438Y-101090765D01*
X171710342Y-101128860D01*
X171672247Y-101205051D01*
X171672247Y-101509813D01*
X172091295Y-100824099D02*
X172091295Y-100366956D01*
X171291295Y-100595527D02*
X172091295Y-100595527D01*
X171291295Y-99681241D02*
X171291295Y-100138384D01*
X171291295Y-99909813D02*
X172091295Y-99909813D01*
X171977009Y-99986003D01*
X171900819Y-100062194D01*
X171862723Y-100138384D01*
X165373000Y-100182603D02*
X165411095Y-100258794D01*
X165411095Y-100373080D01*
X165373000Y-100487365D01*
X165296809Y-100563556D01*
X165220619Y-100601651D01*
X165068238Y-100639746D01*
X164953952Y-100639746D01*
X164801571Y-100601651D01*
X164725380Y-100563556D01*
X164649190Y-100487365D01*
X164611095Y-100373080D01*
X164611095Y-100296889D01*
X164649190Y-100182603D01*
X164687285Y-100144508D01*
X164953952Y-100144508D01*
X164953952Y-100296889D01*
X164611095Y-99801651D02*
X165411095Y-99801651D01*
X164611095Y-99344508D01*
X165411095Y-99344508D01*
X164611095Y-98963556D02*
X165411095Y-98963556D01*
X165411095Y-98773080D01*
X165373000Y-98658794D01*
X165296809Y-98582603D01*
X165220619Y-98544508D01*
X165068238Y-98506413D01*
X164953952Y-98506413D01*
X164801571Y-98544508D01*
X164725380Y-98582603D01*
X164649190Y-98658794D01*
X164611095Y-98773080D01*
X164611095Y-98963556D01*
X167951095Y-100557203D02*
X167951095Y-100100060D01*
X167151095Y-100328632D02*
X167951095Y-100328632D01*
X167951095Y-99909584D02*
X167151095Y-99376251D01*
X167951095Y-99376251D02*
X167151095Y-99909584D01*
X167151095Y-99071489D02*
X167951095Y-99071489D01*
X167951095Y-98881013D01*
X167913000Y-98766727D01*
X167836809Y-98690537D01*
X167760619Y-98652441D01*
X167608238Y-98614346D01*
X167493952Y-98614346D01*
X167341571Y-98652441D01*
X167265380Y-98690537D01*
X167189190Y-98766727D01*
X167151095Y-98881013D01*
X167151095Y-99071489D01*
X169696175Y-100131813D02*
X170077127Y-100398480D01*
X169696175Y-100588956D02*
X170496175Y-100588956D01*
X170496175Y-100284194D01*
X170458080Y-100208003D01*
X170419984Y-100169908D01*
X170343794Y-100131813D01*
X170229508Y-100131813D01*
X170153318Y-100169908D01*
X170115222Y-100208003D01*
X170077127Y-100284194D01*
X170077127Y-100588956D01*
X170496175Y-99865146D02*
X169696175Y-99331813D01*
X170496175Y-99331813D02*
X169696175Y-99865146D01*
X169696175Y-99027051D02*
X170496175Y-99027051D01*
X170496175Y-98836575D01*
X170458080Y-98722289D01*
X170381889Y-98646099D01*
X170305699Y-98608003D01*
X170153318Y-98569908D01*
X170039032Y-98569908D01*
X169886651Y-98608003D01*
X169810460Y-98646099D01*
X169734270Y-98722289D01*
X169696175Y-98836575D01*
X169696175Y-99027051D01*
X169881495Y-107986622D02*
X169233876Y-107986622D01*
X169157685Y-107948527D01*
X169119590Y-107910432D01*
X169081495Y-107834241D01*
X169081495Y-107681860D01*
X169119590Y-107605670D01*
X169157685Y-107567575D01*
X169233876Y-107529480D01*
X169881495Y-107529480D01*
X169310066Y-107186622D02*
X169310066Y-106805670D01*
X169081495Y-107262813D02*
X169881495Y-106996146D01*
X169081495Y-106729480D01*
X169081495Y-106005670D02*
X169462447Y-106272337D01*
X169081495Y-106462813D02*
X169881495Y-106462813D01*
X169881495Y-106158051D01*
X169843400Y-106081860D01*
X169805304Y-106043765D01*
X169729114Y-106005670D01*
X169614828Y-106005670D01*
X169538638Y-106043765D01*
X169500542Y-106081860D01*
X169462447Y-106158051D01*
X169462447Y-106462813D01*
X169881495Y-105777099D02*
X169881495Y-105319956D01*
X169081495Y-105548527D02*
X169881495Y-105548527D01*
X169881495Y-104710432D02*
X169881495Y-104862813D01*
X169843400Y-104939003D01*
X169805304Y-104977099D01*
X169691019Y-105053289D01*
X169538638Y-105091384D01*
X169233876Y-105091384D01*
X169157685Y-105053289D01*
X169119590Y-105015194D01*
X169081495Y-104939003D01*
X169081495Y-104786622D01*
X169119590Y-104710432D01*
X169157685Y-104672337D01*
X169233876Y-104634241D01*
X169424352Y-104634241D01*
X169500542Y-104672337D01*
X169538638Y-104710432D01*
X169576733Y-104786622D01*
X169576733Y-104939003D01*
X169538638Y-105015194D01*
X169500542Y-105053289D01*
X169424352Y-105091384D01*
X167328895Y-105008613D02*
X167709847Y-105275280D01*
X167328895Y-105465756D02*
X168128895Y-105465756D01*
X168128895Y-105160994D01*
X168090800Y-105084803D01*
X168052704Y-105046708D01*
X167976514Y-105008613D01*
X167862228Y-105008613D01*
X167786038Y-105046708D01*
X167747942Y-105084803D01*
X167709847Y-105160994D01*
X167709847Y-105465756D01*
X168128895Y-104741946D02*
X167328895Y-104208613D01*
X168128895Y-104208613D02*
X167328895Y-104741946D01*
X167328895Y-103903851D02*
X168128895Y-103903851D01*
X168128895Y-103713375D01*
X168090800Y-103599089D01*
X168014609Y-103522899D01*
X167938419Y-103484803D01*
X167786038Y-103446708D01*
X167671752Y-103446708D01*
X167519371Y-103484803D01*
X167443180Y-103522899D01*
X167366990Y-103599089D01*
X167328895Y-103713375D01*
X167328895Y-103903851D01*
X165568575Y-105510203D02*
X165568575Y-105053060D01*
X164768575Y-105281632D02*
X165568575Y-105281632D01*
X165568575Y-104862584D02*
X164768575Y-104329251D01*
X165568575Y-104329251D02*
X164768575Y-104862584D01*
X164768575Y-104024489D02*
X165568575Y-104024489D01*
X165568575Y-103834013D01*
X165530480Y-103719727D01*
X165454289Y-103643537D01*
X165378099Y-103605441D01*
X165225718Y-103567346D01*
X165111432Y-103567346D01*
X164959051Y-103605441D01*
X164882860Y-103643537D01*
X164806670Y-103719727D01*
X164768575Y-103834013D01*
X164768575Y-104024489D01*
X163036200Y-105110203D02*
X163074295Y-105186394D01*
X163074295Y-105300680D01*
X163036200Y-105414965D01*
X162960009Y-105491156D01*
X162883819Y-105529251D01*
X162731438Y-105567346D01*
X162617152Y-105567346D01*
X162464771Y-105529251D01*
X162388580Y-105491156D01*
X162312390Y-105414965D01*
X162274295Y-105300680D01*
X162274295Y-105224489D01*
X162312390Y-105110203D01*
X162350485Y-105072108D01*
X162617152Y-105072108D01*
X162617152Y-105224489D01*
X162274295Y-104729251D02*
X163074295Y-104729251D01*
X162274295Y-104272108D01*
X163074295Y-104272108D01*
X162274295Y-103891156D02*
X163074295Y-103891156D01*
X163074295Y-103700680D01*
X163036200Y-103586394D01*
X162960009Y-103510203D01*
X162883819Y-103472108D01*
X162731438Y-103434013D01*
X162617152Y-103434013D01*
X162464771Y-103472108D01*
X162388580Y-103510203D01*
X162312390Y-103586394D01*
X162274295Y-103700680D01*
X162274295Y-103891156D01*
X157880095Y-107872384D02*
X158680095Y-107872384D01*
X158603904Y-107529527D02*
X158642000Y-107491432D01*
X158680095Y-107415241D01*
X158680095Y-107224765D01*
X158642000Y-107148575D01*
X158603904Y-107110480D01*
X158527714Y-107072384D01*
X158451523Y-107072384D01*
X158337238Y-107110480D01*
X157880095Y-107567622D01*
X157880095Y-107072384D01*
X157956285Y-106272384D02*
X157918190Y-106310480D01*
X157880095Y-106424765D01*
X157880095Y-106500956D01*
X157918190Y-106615241D01*
X157994380Y-106691432D01*
X158070571Y-106729527D01*
X158222952Y-106767622D01*
X158337238Y-106767622D01*
X158489619Y-106729527D01*
X158565809Y-106691432D01*
X158642000Y-106615241D01*
X158680095Y-106500956D01*
X158680095Y-106424765D01*
X158642000Y-106310480D01*
X158603904Y-106272384D01*
X158603904Y-105967622D02*
X158642000Y-105929527D01*
X158680095Y-105853337D01*
X158680095Y-105662860D01*
X158642000Y-105586670D01*
X158603904Y-105548575D01*
X158527714Y-105510480D01*
X158451523Y-105510480D01*
X158337238Y-105548575D01*
X157880095Y-106005718D01*
X157880095Y-105510480D01*
X148774190Y-105573708D02*
X148736095Y-105459422D01*
X148736095Y-105268946D01*
X148774190Y-105192756D01*
X148812285Y-105154660D01*
X148888476Y-105116565D01*
X148964666Y-105116565D01*
X149040857Y-105154660D01*
X149078952Y-105192756D01*
X149117047Y-105268946D01*
X149155142Y-105421327D01*
X149193238Y-105497518D01*
X149231333Y-105535613D01*
X149307523Y-105573708D01*
X149383714Y-105573708D01*
X149459904Y-105535613D01*
X149498000Y-105497518D01*
X149536095Y-105421327D01*
X149536095Y-105230851D01*
X149498000Y-105116565D01*
X148736095Y-104773708D02*
X149536095Y-104773708D01*
X149536095Y-104583232D01*
X149498000Y-104468946D01*
X149421809Y-104392756D01*
X149345619Y-104354660D01*
X149193238Y-104316565D01*
X149078952Y-104316565D01*
X148926571Y-104354660D01*
X148850380Y-104392756D01*
X148774190Y-104468946D01*
X148736095Y-104583232D01*
X148736095Y-104773708D01*
X148964666Y-104011803D02*
X148964666Y-103630851D01*
X148736095Y-104087994D02*
X149536095Y-103821327D01*
X148736095Y-103554660D01*
X151293870Y-105580060D02*
X151255775Y-105465775D01*
X151255775Y-105275299D01*
X151293870Y-105199108D01*
X151331965Y-105161013D01*
X151408156Y-105122918D01*
X151484346Y-105122918D01*
X151560537Y-105161013D01*
X151598632Y-105199108D01*
X151636727Y-105275299D01*
X151674822Y-105427680D01*
X151712918Y-105503870D01*
X151751013Y-105541965D01*
X151827203Y-105580060D01*
X151903394Y-105580060D01*
X151979584Y-105541965D01*
X152017680Y-105503870D01*
X152055775Y-105427680D01*
X152055775Y-105237203D01*
X152017680Y-105122918D01*
X151331965Y-104322918D02*
X151293870Y-104361013D01*
X151255775Y-104475299D01*
X151255775Y-104551489D01*
X151293870Y-104665775D01*
X151370060Y-104741965D01*
X151446251Y-104780060D01*
X151598632Y-104818156D01*
X151712918Y-104818156D01*
X151865299Y-104780060D01*
X151941489Y-104741965D01*
X152017680Y-104665775D01*
X152055775Y-104551489D01*
X152055775Y-104475299D01*
X152017680Y-104361013D01*
X151979584Y-104322918D01*
X151255775Y-103599108D02*
X151255775Y-103980060D01*
X152055775Y-103980060D01*
X154379880Y-105161003D02*
X154417975Y-105237194D01*
X154417975Y-105351480D01*
X154379880Y-105465765D01*
X154303689Y-105541956D01*
X154227499Y-105580051D01*
X154075118Y-105618146D01*
X153960832Y-105618146D01*
X153808451Y-105580051D01*
X153732260Y-105541956D01*
X153656070Y-105465765D01*
X153617975Y-105351480D01*
X153617975Y-105275289D01*
X153656070Y-105161003D01*
X153694165Y-105122908D01*
X153960832Y-105122908D01*
X153960832Y-105275289D01*
X153617975Y-104780051D02*
X154417975Y-104780051D01*
X153617975Y-104322908D01*
X154417975Y-104322908D01*
X153617975Y-103941956D02*
X154417975Y-103941956D01*
X154417975Y-103751480D01*
X154379880Y-103637194D01*
X154303689Y-103561003D01*
X154227499Y-103522908D01*
X154075118Y-103484813D01*
X153960832Y-103484813D01*
X153808451Y-103522908D01*
X153732260Y-103561003D01*
X153656070Y-103637194D01*
X153617975Y-103751480D01*
X153617975Y-103941956D01*
X156927495Y-105592756D02*
X156927495Y-105097518D01*
X156622733Y-105364184D01*
X156622733Y-105249899D01*
X156584638Y-105173708D01*
X156546542Y-105135613D01*
X156470352Y-105097518D01*
X156279876Y-105097518D01*
X156203685Y-105135613D01*
X156165590Y-105173708D01*
X156127495Y-105249899D01*
X156127495Y-105478470D01*
X156165590Y-105554660D01*
X156203685Y-105592756D01*
X156927495Y-104868946D02*
X156127495Y-104602280D01*
X156927495Y-104335613D01*
X156927495Y-104145137D02*
X156927495Y-103649899D01*
X156622733Y-103916565D01*
X156622733Y-103802280D01*
X156584638Y-103726089D01*
X156546542Y-103687994D01*
X156470352Y-103649899D01*
X156279876Y-103649899D01*
X156203685Y-103687994D01*
X156165590Y-103726089D01*
X156127495Y-103802280D01*
X156127495Y-104030851D01*
X156165590Y-104107041D01*
X156203685Y-104145137D01*
X184099076Y-96734584D02*
X184099076Y-95934584D01*
X183794314Y-95934584D01*
X183718123Y-95972680D01*
X183680028Y-96010775D01*
X183641933Y-96086965D01*
X183641933Y-96201251D01*
X183680028Y-96277441D01*
X183718123Y-96315537D01*
X183794314Y-96353632D01*
X184099076Y-96353632D01*
X182841933Y-96658394D02*
X182880028Y-96696489D01*
X182994314Y-96734584D01*
X183070504Y-96734584D01*
X183184790Y-96696489D01*
X183260980Y-96620299D01*
X183299076Y-96544108D01*
X183337171Y-96391727D01*
X183337171Y-96277441D01*
X183299076Y-96125060D01*
X183260980Y-96048870D01*
X183184790Y-95972680D01*
X183070504Y-95934584D01*
X182994314Y-95934584D01*
X182880028Y-95972680D01*
X182841933Y-96010775D01*
X182460980Y-96734584D02*
X182308600Y-96734584D01*
X182232409Y-96696489D01*
X182194314Y-96658394D01*
X182118123Y-96544108D01*
X182080028Y-96391727D01*
X182080028Y-96086965D01*
X182118123Y-96010775D01*
X182156219Y-95972680D01*
X182232409Y-95934584D01*
X182384790Y-95934584D01*
X182460980Y-95972680D01*
X182499076Y-96010775D01*
X182537171Y-96086965D01*
X182537171Y-96277441D01*
X182499076Y-96353632D01*
X182460980Y-96391727D01*
X182384790Y-96429822D01*
X182232409Y-96429822D01*
X182156219Y-96391727D01*
X182118123Y-96353632D01*
X182080028Y-96277441D01*
X187629676Y-96759984D02*
X187629676Y-95959984D01*
X187324914Y-95959984D01*
X187248723Y-95998080D01*
X187210628Y-96036175D01*
X187172533Y-96112365D01*
X187172533Y-96226651D01*
X187210628Y-96302841D01*
X187248723Y-96340937D01*
X187324914Y-96379032D01*
X187629676Y-96379032D01*
X186372533Y-96683794D02*
X186410628Y-96721889D01*
X186524914Y-96759984D01*
X186601104Y-96759984D01*
X186715390Y-96721889D01*
X186791580Y-96645699D01*
X186829676Y-96569508D01*
X186867771Y-96417127D01*
X186867771Y-96302841D01*
X186829676Y-96150460D01*
X186791580Y-96074270D01*
X186715390Y-95998080D01*
X186601104Y-95959984D01*
X186524914Y-95959984D01*
X186410628Y-95998080D01*
X186372533Y-96036175D01*
X185915390Y-96302841D02*
X185991580Y-96264746D01*
X186029676Y-96226651D01*
X186067771Y-96150460D01*
X186067771Y-96112365D01*
X186029676Y-96036175D01*
X185991580Y-95998080D01*
X185915390Y-95959984D01*
X185763009Y-95959984D01*
X185686819Y-95998080D01*
X185648723Y-96036175D01*
X185610628Y-96112365D01*
X185610628Y-96150460D01*
X185648723Y-96226651D01*
X185686819Y-96264746D01*
X185763009Y-96302841D01*
X185915390Y-96302841D01*
X185991580Y-96340937D01*
X186029676Y-96379032D01*
X186067771Y-96455222D01*
X186067771Y-96607603D01*
X186029676Y-96683794D01*
X185991580Y-96721889D01*
X185915390Y-96759984D01*
X185763009Y-96759984D01*
X185686819Y-96721889D01*
X185648723Y-96683794D01*
X185610628Y-96607603D01*
X185610628Y-96455222D01*
X185648723Y-96379032D01*
X185686819Y-96340937D01*
X185763009Y-96302841D01*
X184143485Y-95464584D02*
X184143485Y-94664584D01*
X183838723Y-94664584D01*
X183762533Y-94702680D01*
X183724438Y-94740775D01*
X183686342Y-94816965D01*
X183686342Y-94931251D01*
X183724438Y-95007441D01*
X183762533Y-95045537D01*
X183838723Y-95083632D01*
X184143485Y-95083632D01*
X183381580Y-95236013D02*
X183000628Y-95236013D01*
X183457771Y-95464584D02*
X183191104Y-94664584D01*
X182924438Y-95464584D01*
X182238723Y-95464584D02*
X182695866Y-95464584D01*
X182467295Y-95464584D02*
X182467295Y-94664584D01*
X182543485Y-94778870D01*
X182619676Y-94855060D01*
X182695866Y-94893156D01*
X181476819Y-95464584D02*
X181933961Y-95464584D01*
X181705390Y-95464584D02*
X181705390Y-94664584D01*
X181781580Y-94778870D01*
X181857771Y-94855060D01*
X181933961Y-94893156D01*
X187597933Y-95489984D02*
X187597933Y-94689984D01*
X187293171Y-94689984D01*
X187216980Y-94728080D01*
X187178885Y-94766175D01*
X187140790Y-94842365D01*
X187140790Y-94956651D01*
X187178885Y-95032841D01*
X187216980Y-95070937D01*
X187293171Y-95109032D01*
X187597933Y-95109032D01*
X186836028Y-95261413D02*
X186455076Y-95261413D01*
X186912219Y-95489984D02*
X186645552Y-94689984D01*
X186378885Y-95489984D01*
X185997933Y-95032841D02*
X186074123Y-94994746D01*
X186112219Y-94956651D01*
X186150314Y-94880460D01*
X186150314Y-94842365D01*
X186112219Y-94766175D01*
X186074123Y-94728080D01*
X185997933Y-94689984D01*
X185845552Y-94689984D01*
X185769361Y-94728080D01*
X185731266Y-94766175D01*
X185693171Y-94842365D01*
X185693171Y-94880460D01*
X185731266Y-94956651D01*
X185769361Y-94994746D01*
X185845552Y-95032841D01*
X185997933Y-95032841D01*
X186074123Y-95070937D01*
X186112219Y-95109032D01*
X186150314Y-95185222D01*
X186150314Y-95337603D01*
X186112219Y-95413794D01*
X186074123Y-95451889D01*
X185997933Y-95489984D01*
X185845552Y-95489984D01*
X185769361Y-95451889D01*
X185731266Y-95413794D01*
X185693171Y-95337603D01*
X185693171Y-95185222D01*
X185731266Y-95109032D01*
X185769361Y-95070937D01*
X185845552Y-95032841D01*
X184149828Y-94143784D02*
X184149828Y-93343784D01*
X183845066Y-93343784D01*
X183768876Y-93381880D01*
X183730780Y-93419975D01*
X183692685Y-93496165D01*
X183692685Y-93610451D01*
X183730780Y-93686641D01*
X183768876Y-93724737D01*
X183845066Y-93762832D01*
X184149828Y-93762832D01*
X182892685Y-94067594D02*
X182930780Y-94105689D01*
X183045066Y-94143784D01*
X183121257Y-94143784D01*
X183235542Y-94105689D01*
X183311733Y-94029499D01*
X183349828Y-93953308D01*
X183387923Y-93800927D01*
X183387923Y-93686641D01*
X183349828Y-93534260D01*
X183311733Y-93458070D01*
X183235542Y-93381880D01*
X183121257Y-93343784D01*
X183045066Y-93343784D01*
X182930780Y-93381880D01*
X182892685Y-93419975D01*
X182130780Y-94143784D02*
X182587923Y-94143784D01*
X182359352Y-94143784D02*
X182359352Y-93343784D01*
X182435542Y-93458070D01*
X182511733Y-93534260D01*
X182587923Y-93572356D01*
X181826019Y-93419975D02*
X181787923Y-93381880D01*
X181711733Y-93343784D01*
X181521257Y-93343784D01*
X181445066Y-93381880D01*
X181406971Y-93419975D01*
X181368876Y-93496165D01*
X181368876Y-93572356D01*
X181406971Y-93686641D01*
X181864114Y-94143784D01*
X181368876Y-94143784D01*
X187629676Y-94143784D02*
X187629676Y-93343784D01*
X187324914Y-93343784D01*
X187248723Y-93381880D01*
X187210628Y-93419975D01*
X187172533Y-93496165D01*
X187172533Y-93610451D01*
X187210628Y-93686641D01*
X187248723Y-93724737D01*
X187324914Y-93762832D01*
X187629676Y-93762832D01*
X186829676Y-94143784D02*
X186829676Y-93343784D01*
X186639200Y-93343784D01*
X186524914Y-93381880D01*
X186448723Y-93458070D01*
X186410628Y-93534260D01*
X186372533Y-93686641D01*
X186372533Y-93800927D01*
X186410628Y-93953308D01*
X186448723Y-94029499D01*
X186524914Y-94105689D01*
X186639200Y-94143784D01*
X186829676Y-94143784D01*
X186067771Y-93419975D02*
X186029676Y-93381880D01*
X185953485Y-93343784D01*
X185763009Y-93343784D01*
X185686819Y-93381880D01*
X185648723Y-93419975D01*
X185610628Y-93496165D01*
X185610628Y-93572356D01*
X185648723Y-93686641D01*
X186105866Y-94143784D01*
X185610628Y-94143784D01*
X184149828Y-92949984D02*
X184149828Y-92149984D01*
X183845066Y-92149984D01*
X183768876Y-92188080D01*
X183730780Y-92226175D01*
X183692685Y-92302365D01*
X183692685Y-92416651D01*
X183730780Y-92492841D01*
X183768876Y-92530937D01*
X183845066Y-92569032D01*
X184149828Y-92569032D01*
X182892685Y-92873794D02*
X182930780Y-92911889D01*
X183045066Y-92949984D01*
X183121257Y-92949984D01*
X183235542Y-92911889D01*
X183311733Y-92835699D01*
X183349828Y-92759508D01*
X183387923Y-92607127D01*
X183387923Y-92492841D01*
X183349828Y-92340460D01*
X183311733Y-92264270D01*
X183235542Y-92188080D01*
X183121257Y-92149984D01*
X183045066Y-92149984D01*
X182930780Y-92188080D01*
X182892685Y-92226175D01*
X182130780Y-92949984D02*
X182587923Y-92949984D01*
X182359352Y-92949984D02*
X182359352Y-92149984D01*
X182435542Y-92264270D01*
X182511733Y-92340460D01*
X182587923Y-92378556D01*
X181864114Y-92149984D02*
X181368876Y-92149984D01*
X181635542Y-92454746D01*
X181521257Y-92454746D01*
X181445066Y-92492841D01*
X181406971Y-92530937D01*
X181368876Y-92607127D01*
X181368876Y-92797603D01*
X181406971Y-92873794D01*
X181445066Y-92911889D01*
X181521257Y-92949984D01*
X181749828Y-92949984D01*
X181826019Y-92911889D01*
X181864114Y-92873794D01*
X187648685Y-92924584D02*
X187648685Y-92124584D01*
X187343923Y-92124584D01*
X187267733Y-92162680D01*
X187229638Y-92200775D01*
X187191542Y-92276965D01*
X187191542Y-92391251D01*
X187229638Y-92467441D01*
X187267733Y-92505537D01*
X187343923Y-92543632D01*
X187648685Y-92543632D01*
X186886780Y-92696013D02*
X186505828Y-92696013D01*
X186962971Y-92924584D02*
X186696304Y-92124584D01*
X186429638Y-92924584D01*
X185743923Y-92924584D02*
X186201066Y-92924584D01*
X185972495Y-92924584D02*
X185972495Y-92124584D01*
X186048685Y-92238870D01*
X186124876Y-92315060D01*
X186201066Y-92353156D01*
X185020114Y-92124584D02*
X185401066Y-92124584D01*
X185439161Y-92505537D01*
X185401066Y-92467441D01*
X185324876Y-92429346D01*
X185134400Y-92429346D01*
X185058209Y-92467441D01*
X185020114Y-92505537D01*
X184982019Y-92581727D01*
X184982019Y-92772203D01*
X185020114Y-92848394D01*
X185058209Y-92886489D01*
X185134400Y-92924584D01*
X185324876Y-92924584D01*
X185401066Y-92886489D01*
X185439161Y-92848394D01*
X184149828Y-91730784D02*
X184149828Y-90930784D01*
X183845066Y-90930784D01*
X183768876Y-90968880D01*
X183730780Y-91006975D01*
X183692685Y-91083165D01*
X183692685Y-91197451D01*
X183730780Y-91273641D01*
X183768876Y-91311737D01*
X183845066Y-91349832D01*
X184149828Y-91349832D01*
X182892685Y-91654594D02*
X182930780Y-91692689D01*
X183045066Y-91730784D01*
X183121257Y-91730784D01*
X183235542Y-91692689D01*
X183311733Y-91616499D01*
X183349828Y-91540308D01*
X183387923Y-91387927D01*
X183387923Y-91273641D01*
X183349828Y-91121260D01*
X183311733Y-91045070D01*
X183235542Y-90968880D01*
X183121257Y-90930784D01*
X183045066Y-90930784D01*
X182930780Y-90968880D01*
X182892685Y-91006975D01*
X182130780Y-91730784D02*
X182587923Y-91730784D01*
X182359352Y-91730784D02*
X182359352Y-90930784D01*
X182435542Y-91045070D01*
X182511733Y-91121260D01*
X182587923Y-91159356D01*
X181445066Y-91197451D02*
X181445066Y-91730784D01*
X181635542Y-90892689D02*
X181826019Y-91464118D01*
X181330780Y-91464118D01*
X187629628Y-91705384D02*
X187629628Y-90905384D01*
X187324866Y-90905384D01*
X187248676Y-90943480D01*
X187210580Y-90981575D01*
X187172485Y-91057765D01*
X187172485Y-91172051D01*
X187210580Y-91248241D01*
X187248676Y-91286337D01*
X187324866Y-91324432D01*
X187629628Y-91324432D01*
X186372485Y-91629194D02*
X186410580Y-91667289D01*
X186524866Y-91705384D01*
X186601057Y-91705384D01*
X186715342Y-91667289D01*
X186791533Y-91591099D01*
X186829628Y-91514908D01*
X186867723Y-91362527D01*
X186867723Y-91248241D01*
X186829628Y-91095860D01*
X186791533Y-91019670D01*
X186715342Y-90943480D01*
X186601057Y-90905384D01*
X186524866Y-90905384D01*
X186410580Y-90943480D01*
X186372485Y-90981575D01*
X185610580Y-91705384D02*
X186067723Y-91705384D01*
X185839152Y-91705384D02*
X185839152Y-90905384D01*
X185915342Y-91019670D01*
X185991533Y-91095860D01*
X186067723Y-91133956D01*
X184886771Y-90905384D02*
X185267723Y-90905384D01*
X185305819Y-91286337D01*
X185267723Y-91248241D01*
X185191533Y-91210146D01*
X185001057Y-91210146D01*
X184924866Y-91248241D01*
X184886771Y-91286337D01*
X184848676Y-91362527D01*
X184848676Y-91553003D01*
X184886771Y-91629194D01*
X184924866Y-91667289D01*
X185001057Y-91705384D01*
X185191533Y-91705384D01*
X185267723Y-91667289D01*
X185305819Y-91629194D01*
X192220800Y-68458003D02*
X192258895Y-68534194D01*
X192258895Y-68648480D01*
X192220800Y-68762765D01*
X192144609Y-68838956D01*
X192068419Y-68877051D01*
X191916038Y-68915146D01*
X191801752Y-68915146D01*
X191649371Y-68877051D01*
X191573180Y-68838956D01*
X191496990Y-68762765D01*
X191458895Y-68648480D01*
X191458895Y-68572289D01*
X191496990Y-68458003D01*
X191535085Y-68419908D01*
X191801752Y-68419908D01*
X191801752Y-68572289D01*
X191458895Y-68077051D02*
X192258895Y-68077051D01*
X191458895Y-67619908D01*
X192258895Y-67619908D01*
X191458895Y-67238956D02*
X192258895Y-67238956D01*
X192258895Y-67048480D01*
X192220800Y-66934194D01*
X192144609Y-66858003D01*
X192068419Y-66819908D01*
X191916038Y-66781813D01*
X191801752Y-66781813D01*
X191649371Y-66819908D01*
X191573180Y-66858003D01*
X191496990Y-66934194D01*
X191458895Y-67048480D01*
X191458895Y-67238956D01*
X188911270Y-68875683D02*
X188873175Y-68761398D01*
X188873175Y-68570921D01*
X188911270Y-68494731D01*
X188949365Y-68456636D01*
X189025556Y-68418540D01*
X189101746Y-68418540D01*
X189177937Y-68456636D01*
X189216032Y-68494731D01*
X189254127Y-68570921D01*
X189292222Y-68723302D01*
X189330318Y-68799493D01*
X189368413Y-68837588D01*
X189444603Y-68875683D01*
X189520794Y-68875683D01*
X189596984Y-68837588D01*
X189635080Y-68799493D01*
X189673175Y-68723302D01*
X189673175Y-68532826D01*
X189635080Y-68418540D01*
X189673175Y-68151874D02*
X188873175Y-67961398D01*
X189444603Y-67809017D01*
X188873175Y-67656636D01*
X189673175Y-67466160D01*
X188949365Y-66704255D02*
X188911270Y-66742350D01*
X188873175Y-66856636D01*
X188873175Y-66932826D01*
X188911270Y-67047112D01*
X188987460Y-67123302D01*
X189063651Y-67161398D01*
X189216032Y-67199493D01*
X189330318Y-67199493D01*
X189482699Y-67161398D01*
X189558889Y-67123302D01*
X189635080Y-67047112D01*
X189673175Y-66932826D01*
X189673175Y-66856636D01*
X189635080Y-66742350D01*
X189596984Y-66704255D01*
X188873175Y-65980445D02*
X188873175Y-66361398D01*
X189673175Y-66361398D01*
X188873175Y-65713779D02*
X189673175Y-65713779D01*
X188873175Y-65256636D02*
X189330318Y-65599493D01*
X189673175Y-65256636D02*
X189216032Y-65713779D01*
X184664295Y-68818636D02*
X184664295Y-68323398D01*
X184359533Y-68590064D01*
X184359533Y-68475779D01*
X184321438Y-68399588D01*
X184283342Y-68361493D01*
X184207152Y-68323398D01*
X184016676Y-68323398D01*
X183940485Y-68361493D01*
X183902390Y-68399588D01*
X183864295Y-68475779D01*
X183864295Y-68704350D01*
X183902390Y-68780540D01*
X183940485Y-68818636D01*
X184664295Y-68094826D02*
X183864295Y-67828160D01*
X184664295Y-67561493D01*
X184664295Y-67371017D02*
X184664295Y-66875779D01*
X184359533Y-67142445D01*
X184359533Y-67028160D01*
X184321438Y-66951969D01*
X184283342Y-66913874D01*
X184207152Y-66875779D01*
X184016676Y-66875779D01*
X183940485Y-66913874D01*
X183902390Y-66951969D01*
X183864295Y-67028160D01*
X183864295Y-67256731D01*
X183902390Y-67332921D01*
X183940485Y-67371017D01*
X186483030Y-68868078D02*
X186444935Y-68753792D01*
X186444935Y-68563316D01*
X186483030Y-68487125D01*
X186521125Y-68449030D01*
X186597316Y-68410935D01*
X186673506Y-68410935D01*
X186749697Y-68449030D01*
X186787792Y-68487125D01*
X186825887Y-68563316D01*
X186863982Y-68715697D01*
X186902078Y-68791887D01*
X186940173Y-68829982D01*
X187016363Y-68868078D01*
X187092554Y-68868078D01*
X187168744Y-68829982D01*
X187206840Y-68791887D01*
X187244935Y-68715697D01*
X187244935Y-68525220D01*
X187206840Y-68410935D01*
X187244935Y-68144268D02*
X186444935Y-67953792D01*
X187016363Y-67801411D01*
X186444935Y-67649030D01*
X187244935Y-67458554D01*
X186444935Y-67153792D02*
X187244935Y-67153792D01*
X187244935Y-66963316D01*
X187206840Y-66849030D01*
X187130649Y-66772840D01*
X187054459Y-66734744D01*
X186902078Y-66696649D01*
X186787792Y-66696649D01*
X186635411Y-66734744D01*
X186559220Y-66772840D01*
X186483030Y-66849030D01*
X186444935Y-66963316D01*
X186444935Y-67153792D01*
X186444935Y-66353792D02*
X187244935Y-66353792D01*
X187244935Y-65820459D02*
X187244935Y-65668078D01*
X187206840Y-65591887D01*
X187130649Y-65515697D01*
X186978268Y-65477601D01*
X186711601Y-65477601D01*
X186559220Y-65515697D01*
X186483030Y-65591887D01*
X186444935Y-65668078D01*
X186444935Y-65820459D01*
X186483030Y-65896649D01*
X186559220Y-65972840D01*
X186711601Y-66010935D01*
X186978268Y-66010935D01*
X187130649Y-65972840D01*
X187206840Y-65896649D01*
X187244935Y-65820459D01*
X151458975Y-68375413D02*
X152258975Y-68375413D01*
X152258975Y-68070651D01*
X152220880Y-67994460D01*
X152182784Y-67956365D01*
X152106594Y-67918270D01*
X151992308Y-67918270D01*
X151916118Y-67956365D01*
X151878022Y-67994460D01*
X151839927Y-68070651D01*
X151839927Y-68375413D01*
X151687546Y-67613508D02*
X151687546Y-67232556D01*
X151458975Y-67689699D02*
X152258975Y-67423032D01*
X151458975Y-67156365D01*
X152258975Y-66508746D02*
X152258975Y-66889699D01*
X151878022Y-66927794D01*
X151916118Y-66889699D01*
X151954213Y-66813508D01*
X151954213Y-66623032D01*
X151916118Y-66546841D01*
X151878022Y-66508746D01*
X151801832Y-66470651D01*
X151611356Y-66470651D01*
X151535165Y-66508746D01*
X151497070Y-66546841D01*
X151458975Y-66623032D01*
X151458975Y-66813508D01*
X151497070Y-66889699D01*
X151535165Y-66927794D01*
X154039615Y-68375413D02*
X154839615Y-68375413D01*
X154839615Y-68070651D01*
X154801520Y-67994460D01*
X154763424Y-67956365D01*
X154687234Y-67918270D01*
X154572948Y-67918270D01*
X154496758Y-67956365D01*
X154458662Y-67994460D01*
X154420567Y-68070651D01*
X154420567Y-68375413D01*
X154268186Y-67613508D02*
X154268186Y-67232556D01*
X154039615Y-67689699D02*
X154839615Y-67423032D01*
X154039615Y-67156365D01*
X154839615Y-66546841D02*
X154839615Y-66699222D01*
X154801520Y-66775413D01*
X154763424Y-66813508D01*
X154649139Y-66889699D01*
X154496758Y-66927794D01*
X154191996Y-66927794D01*
X154115805Y-66889699D01*
X154077710Y-66851603D01*
X154039615Y-66775413D01*
X154039615Y-66623032D01*
X154077710Y-66546841D01*
X154115805Y-66508746D01*
X154191996Y-66470651D01*
X154382472Y-66470651D01*
X154458662Y-66508746D01*
X154496758Y-66546841D01*
X154534853Y-66623032D01*
X154534853Y-66775413D01*
X154496758Y-66851603D01*
X154458662Y-66889699D01*
X154382472Y-66927794D01*
X156605015Y-68329645D02*
X157405015Y-68329645D01*
X157405015Y-68024883D01*
X157366920Y-67948693D01*
X157328824Y-67910598D01*
X157252634Y-67872502D01*
X157138348Y-67872502D01*
X157062158Y-67910598D01*
X157024062Y-67948693D01*
X156985967Y-68024883D01*
X156985967Y-68329645D01*
X156833586Y-67567740D02*
X156833586Y-67186788D01*
X156605015Y-67643931D02*
X157405015Y-67377264D01*
X156605015Y-67110598D01*
X156605015Y-66424883D02*
X156605015Y-66882026D01*
X156605015Y-66653455D02*
X157405015Y-66653455D01*
X157290729Y-66729645D01*
X157214539Y-66805836D01*
X157176443Y-66882026D01*
X157328824Y-66120121D02*
X157366920Y-66082026D01*
X157405015Y-66005836D01*
X157405015Y-65815360D01*
X157366920Y-65739169D01*
X157328824Y-65701074D01*
X157252634Y-65662979D01*
X157176443Y-65662979D01*
X157062158Y-65701074D01*
X156605015Y-66158217D01*
X156605015Y-65662979D01*
X158921495Y-68273813D02*
X159721495Y-68273813D01*
X159721495Y-67969051D01*
X159683400Y-67892860D01*
X159645304Y-67854765D01*
X159569114Y-67816670D01*
X159454828Y-67816670D01*
X159378638Y-67854765D01*
X159340542Y-67892860D01*
X159302447Y-67969051D01*
X159302447Y-68273813D01*
X159150066Y-67511908D02*
X159150066Y-67130956D01*
X158921495Y-67588099D02*
X159721495Y-67321432D01*
X158921495Y-67054765D01*
X159721495Y-66864289D02*
X159721495Y-66330956D01*
X158921495Y-66673813D01*
X150421263Y-75617120D02*
X150497454Y-75579024D01*
X150611740Y-75579024D01*
X150726025Y-75617120D01*
X150802216Y-75693310D01*
X150840311Y-75769500D01*
X150878406Y-75921881D01*
X150878406Y-76036167D01*
X150840311Y-76188548D01*
X150802216Y-76264739D01*
X150726025Y-76340929D01*
X150611740Y-76379024D01*
X150535549Y-76379024D01*
X150421263Y-76340929D01*
X150383168Y-76302834D01*
X150383168Y-76036167D01*
X150535549Y-76036167D01*
X150040311Y-76379024D02*
X150040311Y-75579024D01*
X149583168Y-76379024D01*
X149583168Y-75579024D01*
X149202216Y-76379024D02*
X149202216Y-75579024D01*
X149011740Y-75579024D01*
X148897454Y-75617120D01*
X148821263Y-75693310D01*
X148783168Y-75769500D01*
X148745073Y-75921881D01*
X148745073Y-76036167D01*
X148783168Y-76188548D01*
X148821263Y-76264739D01*
X148897454Y-76340929D01*
X149011740Y-76379024D01*
X149202216Y-76379024D01*
X150673953Y-79081584D02*
X150673953Y-78281584D01*
X150369191Y-78281584D01*
X150293000Y-78319680D01*
X150254905Y-78357775D01*
X150216810Y-78433965D01*
X150216810Y-78548251D01*
X150254905Y-78624441D01*
X150293000Y-78662537D01*
X150369191Y-78700632D01*
X150673953Y-78700632D01*
X149912048Y-78853013D02*
X149531096Y-78853013D01*
X149988239Y-79081584D02*
X149721572Y-78281584D01*
X149454905Y-79081584D01*
X148845381Y-78281584D02*
X148997762Y-78281584D01*
X149073953Y-78319680D01*
X149112048Y-78357775D01*
X149188239Y-78472060D01*
X149226334Y-78624441D01*
X149226334Y-78929203D01*
X149188239Y-79005394D01*
X149150143Y-79043489D01*
X149073953Y-79081584D01*
X148921572Y-79081584D01*
X148845381Y-79043489D01*
X148807286Y-79005394D01*
X148769191Y-78929203D01*
X148769191Y-78738727D01*
X148807286Y-78662537D01*
X148845381Y-78624441D01*
X148921572Y-78586346D01*
X149073953Y-78586346D01*
X149150143Y-78624441D01*
X149188239Y-78662537D01*
X149226334Y-78738727D01*
X150383163Y-70702220D02*
X150459354Y-70664124D01*
X150573640Y-70664124D01*
X150687925Y-70702220D01*
X150764116Y-70778410D01*
X150802211Y-70854600D01*
X150840306Y-71006981D01*
X150840306Y-71121267D01*
X150802211Y-71273648D01*
X150764116Y-71349839D01*
X150687925Y-71426029D01*
X150573640Y-71464124D01*
X150497449Y-71464124D01*
X150383163Y-71426029D01*
X150345068Y-71387934D01*
X150345068Y-71121267D01*
X150497449Y-71121267D01*
X150002211Y-71464124D02*
X150002211Y-70664124D01*
X149545068Y-71464124D01*
X149545068Y-70664124D01*
X149164116Y-71464124D02*
X149164116Y-70664124D01*
X148973640Y-70664124D01*
X148859354Y-70702220D01*
X148783163Y-70778410D01*
X148745068Y-70854600D01*
X148706973Y-71006981D01*
X148706973Y-71121267D01*
X148745068Y-71273648D01*
X148783163Y-71349839D01*
X148859354Y-71426029D01*
X148973640Y-71464124D01*
X149164116Y-71464124D01*
X150544413Y-73948244D02*
X150544413Y-73148244D01*
X150239651Y-73148244D01*
X150163460Y-73186340D01*
X150125365Y-73224435D01*
X150087270Y-73300625D01*
X150087270Y-73414911D01*
X150125365Y-73491101D01*
X150163460Y-73529197D01*
X150239651Y-73567292D01*
X150544413Y-73567292D01*
X149782508Y-73719673D02*
X149401556Y-73719673D01*
X149858699Y-73948244D02*
X149592032Y-73148244D01*
X149325365Y-73948244D01*
X149134889Y-73148244D02*
X148639651Y-73148244D01*
X148906318Y-73453006D01*
X148792032Y-73453006D01*
X148715841Y-73491101D01*
X148677746Y-73529197D01*
X148639651Y-73605387D01*
X148639651Y-73795863D01*
X148677746Y-73872054D01*
X148715841Y-73910149D01*
X148792032Y-73948244D01*
X149020603Y-73948244D01*
X149096794Y-73910149D01*
X149134889Y-73872054D01*
X145437783Y-70653960D02*
X145513974Y-70615864D01*
X145628260Y-70615864D01*
X145742545Y-70653960D01*
X145818736Y-70730150D01*
X145856831Y-70806340D01*
X145894926Y-70958721D01*
X145894926Y-71073007D01*
X145856831Y-71225388D01*
X145818736Y-71301579D01*
X145742545Y-71377769D01*
X145628260Y-71415864D01*
X145552069Y-71415864D01*
X145437783Y-71377769D01*
X145399688Y-71339674D01*
X145399688Y-71073007D01*
X145552069Y-71073007D01*
X145056831Y-71415864D02*
X145056831Y-70615864D01*
X144599688Y-71415864D01*
X144599688Y-70615864D01*
X144218736Y-71415864D02*
X144218736Y-70615864D01*
X144028260Y-70615864D01*
X143913974Y-70653960D01*
X143837783Y-70730150D01*
X143799688Y-70806340D01*
X143761593Y-70958721D01*
X143761593Y-71073007D01*
X143799688Y-71225388D01*
X143837783Y-71301579D01*
X143913974Y-71377769D01*
X144028260Y-71415864D01*
X144218736Y-71415864D01*
X145475883Y-75568860D02*
X145552074Y-75530764D01*
X145666360Y-75530764D01*
X145780645Y-75568860D01*
X145856836Y-75645050D01*
X145894931Y-75721240D01*
X145933026Y-75873621D01*
X145933026Y-75987907D01*
X145894931Y-76140288D01*
X145856836Y-76216479D01*
X145780645Y-76292669D01*
X145666360Y-76330764D01*
X145590169Y-76330764D01*
X145475883Y-76292669D01*
X145437788Y-76254574D01*
X145437788Y-75987907D01*
X145590169Y-75987907D01*
X145094931Y-76330764D02*
X145094931Y-75530764D01*
X144637788Y-76330764D01*
X144637788Y-75530764D01*
X144256836Y-76330764D02*
X144256836Y-75530764D01*
X144066360Y-75530764D01*
X143952074Y-75568860D01*
X143875883Y-75645050D01*
X143837788Y-75721240D01*
X143799693Y-75873621D01*
X143799693Y-75987907D01*
X143837788Y-76140288D01*
X143875883Y-76216479D01*
X143952074Y-76292669D01*
X144066360Y-76330764D01*
X144256836Y-76330764D01*
X145599033Y-73899984D02*
X145599033Y-73099984D01*
X145294271Y-73099984D01*
X145218080Y-73138080D01*
X145179985Y-73176175D01*
X145141890Y-73252365D01*
X145141890Y-73366651D01*
X145179985Y-73442841D01*
X145218080Y-73480937D01*
X145294271Y-73519032D01*
X145599033Y-73519032D01*
X144837128Y-73671413D02*
X144456176Y-73671413D01*
X144913319Y-73899984D02*
X144646652Y-73099984D01*
X144379985Y-73899984D01*
X144151414Y-73176175D02*
X144113319Y-73138080D01*
X144037128Y-73099984D01*
X143846652Y-73099984D01*
X143770461Y-73138080D01*
X143732366Y-73176175D01*
X143694271Y-73252365D01*
X143694271Y-73328556D01*
X143732366Y-73442841D01*
X144189509Y-73899984D01*
X143694271Y-73899984D01*
X145728573Y-79033324D02*
X145728573Y-78233324D01*
X145423811Y-78233324D01*
X145347620Y-78271420D01*
X145309525Y-78309515D01*
X145271430Y-78385705D01*
X145271430Y-78499991D01*
X145309525Y-78576181D01*
X145347620Y-78614277D01*
X145423811Y-78652372D01*
X145728573Y-78652372D01*
X144966668Y-78804753D02*
X144585716Y-78804753D01*
X145042859Y-79033324D02*
X144776192Y-78233324D01*
X144509525Y-79033324D01*
X144319049Y-78233324D02*
X143785716Y-78233324D01*
X144128573Y-79033324D01*
X150322213Y-89998504D02*
X150588880Y-89617552D01*
X150779356Y-89998504D02*
X150779356Y-89198504D01*
X150474594Y-89198504D01*
X150398403Y-89236600D01*
X150360308Y-89274695D01*
X150322213Y-89350885D01*
X150322213Y-89465171D01*
X150360308Y-89541361D01*
X150398403Y-89579457D01*
X150474594Y-89617552D01*
X150779356Y-89617552D01*
X150055546Y-89198504D02*
X149522213Y-89998504D01*
X149522213Y-89198504D02*
X150055546Y-89998504D01*
X149217451Y-89998504D02*
X149217451Y-89198504D01*
X149026975Y-89198504D01*
X148912689Y-89236600D01*
X148836499Y-89312790D01*
X148798403Y-89388980D01*
X148760308Y-89541361D01*
X148760308Y-89655647D01*
X148798403Y-89808028D01*
X148836499Y-89884219D01*
X148912689Y-89960409D01*
X149026975Y-89998504D01*
X149217451Y-89998504D01*
X150656163Y-86800744D02*
X150199020Y-86800744D01*
X150427592Y-87600744D02*
X150427592Y-86800744D01*
X150008544Y-86800744D02*
X149475211Y-87600744D01*
X149475211Y-86800744D02*
X150008544Y-87600744D01*
X149170449Y-87600744D02*
X149170449Y-86800744D01*
X148979973Y-86800744D01*
X148865687Y-86838840D01*
X148789497Y-86915030D01*
X148751401Y-86991220D01*
X148713306Y-87143601D01*
X148713306Y-87257887D01*
X148751401Y-87410268D01*
X148789497Y-87486459D01*
X148865687Y-87562649D01*
X148979973Y-87600744D01*
X149170449Y-87600744D01*
X150421263Y-84161680D02*
X150497454Y-84123584D01*
X150611740Y-84123584D01*
X150726025Y-84161680D01*
X150802216Y-84237870D01*
X150840311Y-84314060D01*
X150878406Y-84466441D01*
X150878406Y-84580727D01*
X150840311Y-84733108D01*
X150802216Y-84809299D01*
X150726025Y-84885489D01*
X150611740Y-84923584D01*
X150535549Y-84923584D01*
X150421263Y-84885489D01*
X150383168Y-84847394D01*
X150383168Y-84580727D01*
X150535549Y-84580727D01*
X150040311Y-84923584D02*
X150040311Y-84123584D01*
X149583168Y-84923584D01*
X149583168Y-84123584D01*
X149202216Y-84923584D02*
X149202216Y-84123584D01*
X149011740Y-84123584D01*
X148897454Y-84161680D01*
X148821263Y-84237870D01*
X148783168Y-84314060D01*
X148745073Y-84466441D01*
X148745073Y-84580727D01*
X148783168Y-84733108D01*
X148821263Y-84809299D01*
X148897454Y-84885489D01*
X149011740Y-84923584D01*
X149202216Y-84923584D01*
X145831436Y-96574664D02*
X145336198Y-96574664D01*
X145602864Y-96879426D01*
X145488579Y-96879426D01*
X145412388Y-96917521D01*
X145374293Y-96955617D01*
X145336198Y-97031807D01*
X145336198Y-97222283D01*
X145374293Y-97298474D01*
X145412388Y-97336569D01*
X145488579Y-97374664D01*
X145717150Y-97374664D01*
X145793340Y-97336569D01*
X145831436Y-97298474D01*
X145107626Y-96574664D02*
X144840960Y-97374664D01*
X144574293Y-96574664D01*
X144383817Y-96574664D02*
X143888579Y-96574664D01*
X144155245Y-96879426D01*
X144040960Y-96879426D01*
X143964769Y-96917521D01*
X143926674Y-96955617D01*
X143888579Y-97031807D01*
X143888579Y-97222283D01*
X143926674Y-97298474D01*
X143964769Y-97336569D01*
X144040960Y-97374664D01*
X144269531Y-97374664D01*
X144345721Y-97336569D01*
X144383817Y-97298474D01*
X145541923Y-94146420D02*
X145618114Y-94108324D01*
X145732400Y-94108324D01*
X145846685Y-94146420D01*
X145922876Y-94222610D01*
X145960971Y-94298800D01*
X145999066Y-94451181D01*
X145999066Y-94565467D01*
X145960971Y-94717848D01*
X145922876Y-94794039D01*
X145846685Y-94870229D01*
X145732400Y-94908324D01*
X145656209Y-94908324D01*
X145541923Y-94870229D01*
X145503828Y-94832134D01*
X145503828Y-94565467D01*
X145656209Y-94565467D01*
X145160971Y-94908324D02*
X145160971Y-94108324D01*
X144703828Y-94908324D01*
X144703828Y-94108324D01*
X144322876Y-94908324D02*
X144322876Y-94108324D01*
X144132400Y-94108324D01*
X144018114Y-94146420D01*
X143941923Y-94222610D01*
X143903828Y-94298800D01*
X143865733Y-94451181D01*
X143865733Y-94565467D01*
X143903828Y-94717848D01*
X143941923Y-94794039D01*
X144018114Y-94870229D01*
X144132400Y-94908324D01*
X144322876Y-94908324D01*
X147751557Y-92096597D02*
X147484890Y-92096597D01*
X147370604Y-92515644D02*
X147751557Y-92515644D01*
X147751557Y-91715644D01*
X147370604Y-91715644D01*
X147103938Y-91715644D02*
X146570604Y-92515644D01*
X146570604Y-91715644D02*
X147103938Y-92515644D01*
X146380128Y-91715644D02*
X145922985Y-91715644D01*
X146151557Y-92515644D02*
X146151557Y-91715644D01*
X145846795Y-92591835D02*
X145237271Y-92591835D01*
X145084890Y-92477549D02*
X144970604Y-92515644D01*
X144780128Y-92515644D01*
X144703938Y-92477549D01*
X144665842Y-92439454D01*
X144627747Y-92363263D01*
X144627747Y-92287073D01*
X144665842Y-92210882D01*
X144703938Y-92172787D01*
X144780128Y-92134692D01*
X144932509Y-92096597D01*
X145008700Y-92058501D01*
X145046795Y-92020406D01*
X145084890Y-91944216D01*
X145084890Y-91868025D01*
X145046795Y-91791835D01*
X145008700Y-91753740D01*
X144932509Y-91715644D01*
X144742033Y-91715644D01*
X144627747Y-91753740D01*
X144284890Y-92515644D02*
X144284890Y-91715644D01*
X144094414Y-91715644D01*
X143980128Y-91753740D01*
X143903938Y-91829930D01*
X143865842Y-91906120D01*
X143827747Y-92058501D01*
X143827747Y-92172787D01*
X143865842Y-92325168D01*
X143903938Y-92401359D01*
X143980128Y-92477549D01*
X144094414Y-92515644D01*
X144284890Y-92515644D01*
X145290449Y-89157864D02*
X145099973Y-89957864D01*
X144947592Y-89386436D01*
X144795211Y-89957864D01*
X144604735Y-89157864D01*
X144338068Y-89919769D02*
X144223782Y-89957864D01*
X144033306Y-89957864D01*
X143957116Y-89919769D01*
X143919020Y-89881674D01*
X143880925Y-89805483D01*
X143880925Y-89729293D01*
X143919020Y-89653102D01*
X143957116Y-89615007D01*
X144033306Y-89576912D01*
X144185687Y-89538817D01*
X144261878Y-89500721D01*
X144299973Y-89462626D01*
X144338068Y-89386436D01*
X144338068Y-89310245D01*
X144299973Y-89234055D01*
X144261878Y-89195960D01*
X144185687Y-89157864D01*
X143995211Y-89157864D01*
X143880925Y-89195960D01*
X145121551Y-87433109D02*
X145007265Y-87471204D01*
X144816789Y-87471204D01*
X144740599Y-87433109D01*
X144702503Y-87395014D01*
X144664408Y-87318823D01*
X144664408Y-87242633D01*
X144702503Y-87166442D01*
X144740599Y-87128347D01*
X144816789Y-87090252D01*
X144969170Y-87052157D01*
X145045360Y-87014061D01*
X145083456Y-86975966D01*
X145121551Y-86899776D01*
X145121551Y-86823585D01*
X145083456Y-86747395D01*
X145045360Y-86709300D01*
X144969170Y-86671204D01*
X144778694Y-86671204D01*
X144664408Y-86709300D01*
X144321551Y-87471204D02*
X144321551Y-86671204D01*
X144131075Y-86671204D01*
X144016789Y-86709300D01*
X143940599Y-86785490D01*
X143902503Y-86861680D01*
X143864408Y-87014061D01*
X143864408Y-87128347D01*
X143902503Y-87280728D01*
X143940599Y-87356919D01*
X144016789Y-87433109D01*
X144131075Y-87471204D01*
X144321551Y-87471204D01*
X144660600Y-84809294D02*
X144698696Y-84847389D01*
X144812981Y-84885484D01*
X144889172Y-84885484D01*
X145003458Y-84847389D01*
X145079648Y-84771199D01*
X145117743Y-84695008D01*
X145155839Y-84542627D01*
X145155839Y-84428341D01*
X145117743Y-84275960D01*
X145079648Y-84199770D01*
X145003458Y-84123580D01*
X144889172Y-84085484D01*
X144812981Y-84085484D01*
X144698696Y-84123580D01*
X144660600Y-84161675D01*
X144317743Y-84885484D02*
X144317743Y-84085484D01*
X143860600Y-84885484D02*
X144203458Y-84428341D01*
X143860600Y-84085484D02*
X144317743Y-84542627D01*
X149764542Y-82370984D02*
X149764542Y-83018603D01*
X149726447Y-83094794D01*
X149688352Y-83132889D01*
X149612161Y-83170984D01*
X149459780Y-83170984D01*
X149383590Y-83132889D01*
X149345495Y-83094794D01*
X149307400Y-83018603D01*
X149307400Y-82370984D01*
X148964542Y-82942413D02*
X148583590Y-82942413D01*
X149040733Y-83170984D02*
X148774066Y-82370984D01*
X148507400Y-83170984D01*
X147783590Y-83170984D02*
X148050257Y-82790032D01*
X148240733Y-83170984D02*
X148240733Y-82370984D01*
X147935971Y-82370984D01*
X147859780Y-82409080D01*
X147821685Y-82447175D01*
X147783590Y-82523365D01*
X147783590Y-82637651D01*
X147821685Y-82713841D01*
X147859780Y-82751937D01*
X147935971Y-82790032D01*
X148240733Y-82790032D01*
X147555019Y-82370984D02*
X147097876Y-82370984D01*
X147326447Y-83170984D02*
X147326447Y-82370984D01*
X146488352Y-82637651D02*
X146488352Y-83170984D01*
X146678828Y-82332889D02*
X146869304Y-82904318D01*
X146374066Y-82904318D01*
X143662257Y-83170984D02*
X143662257Y-82370984D01*
X143319400Y-82447175D02*
X143281304Y-82409080D01*
X143205114Y-82370984D01*
X143014638Y-82370984D01*
X142938447Y-82409080D01*
X142900352Y-82447175D01*
X142862257Y-82523365D01*
X142862257Y-82599556D01*
X142900352Y-82713841D01*
X143357495Y-83170984D01*
X142862257Y-83170984D01*
X142557495Y-83132889D02*
X142443209Y-83170984D01*
X142252733Y-83170984D01*
X142176542Y-83132889D01*
X142138447Y-83094794D01*
X142100352Y-83018603D01*
X142100352Y-82942413D01*
X142138447Y-82866222D01*
X142176542Y-82828127D01*
X142252733Y-82790032D01*
X142405114Y-82751937D01*
X142481304Y-82713841D01*
X142519400Y-82675746D01*
X142557495Y-82599556D01*
X142557495Y-82523365D01*
X142519400Y-82447175D01*
X142481304Y-82409080D01*
X142405114Y-82370984D01*
X142214638Y-82370984D01*
X142100352Y-82409080D01*
X141795590Y-82447175D02*
X141757495Y-82409080D01*
X141681304Y-82370984D01*
X141490828Y-82370984D01*
X141414638Y-82409080D01*
X141376542Y-82447175D01*
X141338447Y-82523365D01*
X141338447Y-82599556D01*
X141376542Y-82713841D01*
X141833685Y-83170984D01*
X141338447Y-83170984D01*
M02*
