G04 #@! TF.GenerationSoftware,KiCad,Pcbnew,5.1.5-52549c5~86~ubuntu18.04.1*
G04 #@! TF.CreationDate,2020-05-16T14:27:32+07:00*
G04 #@! TF.ProjectId,openSTM32F4_LQFP64,6f70656e-5354-44d3-9332-46345f4c5146,rev?*
G04 #@! TF.SameCoordinates,Original*
G04 #@! TF.FileFunction,Soldermask,Bot*
G04 #@! TF.FilePolarity,Negative*
%FSLAX46Y46*%
G04 Gerber Fmt 4.6, Leading zero omitted, Abs format (unit mm)*
G04 Created by KiCad (PCBNEW 5.1.5-52549c5~86~ubuntu18.04.1) date 2020-05-16 14:27:32*
%MOMM*%
%LPD*%
G04 APERTURE LIST*
%ADD10C,0.100000*%
G04 APERTURE END LIST*
D10*
G36*
X162918227Y-105946437D02*
G01*
X163088066Y-105997957D01*
X163244591Y-106081622D01*
X163280329Y-106110952D01*
X163381786Y-106194214D01*
X163465048Y-106295671D01*
X163494378Y-106331409D01*
X163578043Y-106487934D01*
X163629563Y-106657774D01*
X163642600Y-106790143D01*
X163642600Y-107128658D01*
X163629563Y-107261027D01*
X163578043Y-107430866D01*
X163494378Y-107587391D01*
X163465048Y-107623129D01*
X163381786Y-107724586D01*
X163244589Y-107837179D01*
X163098362Y-107915339D01*
X163088065Y-107920843D01*
X162918226Y-107972363D01*
X162741600Y-107989759D01*
X162564973Y-107972363D01*
X162395134Y-107920843D01*
X162370731Y-107907799D01*
X162238611Y-107837179D01*
X162238609Y-107837178D01*
X162196350Y-107802497D01*
X162101414Y-107724586D01*
X161988821Y-107587389D01*
X161905158Y-107430867D01*
X161897453Y-107405467D01*
X161853637Y-107261026D01*
X161840600Y-107128657D01*
X161840600Y-106790142D01*
X161843102Y-106764743D01*
X161853637Y-106657775D01*
X161853637Y-106657773D01*
X161905157Y-106487934D01*
X161988822Y-106331409D01*
X162101415Y-106194215D01*
X162238610Y-106081622D01*
X162395135Y-105997957D01*
X162564974Y-105946437D01*
X162741600Y-105929041D01*
X162918227Y-105946437D01*
G37*
G36*
X149293027Y-105946437D02*
G01*
X149462866Y-105997957D01*
X149619391Y-106081622D01*
X149655129Y-106110952D01*
X149756586Y-106194214D01*
X149839848Y-106295671D01*
X149869178Y-106331409D01*
X149952843Y-106487934D01*
X150004363Y-106657774D01*
X150017400Y-106790143D01*
X150017400Y-107128658D01*
X150004363Y-107261027D01*
X149952843Y-107430866D01*
X149869178Y-107587391D01*
X149839848Y-107623129D01*
X149756586Y-107724586D01*
X149619389Y-107837179D01*
X149473162Y-107915339D01*
X149462865Y-107920843D01*
X149293026Y-107972363D01*
X149116400Y-107989759D01*
X148939773Y-107972363D01*
X148769934Y-107920843D01*
X148745531Y-107907799D01*
X148613411Y-107837179D01*
X148613409Y-107837178D01*
X148571150Y-107802497D01*
X148476214Y-107724586D01*
X148363621Y-107587389D01*
X148279958Y-107430867D01*
X148272253Y-107405467D01*
X148228437Y-107261026D01*
X148215400Y-107128657D01*
X148215400Y-106790142D01*
X148217902Y-106764743D01*
X148228437Y-106657775D01*
X148228437Y-106657773D01*
X148279957Y-106487934D01*
X148363622Y-106331409D01*
X148476215Y-106194215D01*
X148613410Y-106081622D01*
X148769935Y-105997957D01*
X148939774Y-105946437D01*
X149116400Y-105929041D01*
X149293027Y-105946437D01*
G37*
G36*
X154293027Y-105946437D02*
G01*
X154462866Y-105997957D01*
X154619391Y-106081622D01*
X154655129Y-106110952D01*
X154756586Y-106194214D01*
X154839848Y-106295671D01*
X154869178Y-106331409D01*
X154952843Y-106487934D01*
X155004363Y-106657774D01*
X155017400Y-106790143D01*
X155017400Y-107128658D01*
X155004363Y-107261027D01*
X154952843Y-107430866D01*
X154869178Y-107587391D01*
X154839848Y-107623129D01*
X154756586Y-107724586D01*
X154619389Y-107837179D01*
X154473162Y-107915339D01*
X154462865Y-107920843D01*
X154293026Y-107972363D01*
X154116400Y-107989759D01*
X153939773Y-107972363D01*
X153769934Y-107920843D01*
X153745531Y-107907799D01*
X153613411Y-107837179D01*
X153613409Y-107837178D01*
X153571150Y-107802497D01*
X153476214Y-107724586D01*
X153363621Y-107587389D01*
X153279958Y-107430867D01*
X153272253Y-107405467D01*
X153228437Y-107261026D01*
X153215400Y-107128657D01*
X153215400Y-106790142D01*
X153217902Y-106764743D01*
X153228437Y-106657775D01*
X153228437Y-106657773D01*
X153279957Y-106487934D01*
X153363622Y-106331409D01*
X153476215Y-106194215D01*
X153613410Y-106081622D01*
X153769935Y-105997957D01*
X153939774Y-105946437D01*
X154116400Y-105929041D01*
X154293027Y-105946437D01*
G37*
G36*
X165418227Y-105946437D02*
G01*
X165588066Y-105997957D01*
X165744591Y-106081622D01*
X165780329Y-106110952D01*
X165881786Y-106194214D01*
X165965048Y-106295671D01*
X165994378Y-106331409D01*
X166078043Y-106487934D01*
X166129563Y-106657774D01*
X166142600Y-106790143D01*
X166142600Y-107128658D01*
X166129563Y-107261027D01*
X166078043Y-107430866D01*
X165994378Y-107587391D01*
X165965048Y-107623129D01*
X165881786Y-107724586D01*
X165744589Y-107837179D01*
X165598362Y-107915339D01*
X165588065Y-107920843D01*
X165418226Y-107972363D01*
X165241600Y-107989759D01*
X165064973Y-107972363D01*
X164895134Y-107920843D01*
X164870731Y-107907799D01*
X164738611Y-107837179D01*
X164738609Y-107837178D01*
X164696350Y-107802497D01*
X164601414Y-107724586D01*
X164488821Y-107587389D01*
X164405158Y-107430867D01*
X164397453Y-107405467D01*
X164353637Y-107261026D01*
X164340600Y-107128657D01*
X164340600Y-106790142D01*
X164343102Y-106764743D01*
X164353637Y-106657775D01*
X164353637Y-106657773D01*
X164405157Y-106487934D01*
X164488822Y-106331409D01*
X164601415Y-106194215D01*
X164738610Y-106081622D01*
X164895135Y-105997957D01*
X165064974Y-105946437D01*
X165241600Y-105929041D01*
X165418227Y-105946437D01*
G37*
G36*
X151793027Y-105946437D02*
G01*
X151962866Y-105997957D01*
X152119391Y-106081622D01*
X152155129Y-106110952D01*
X152256586Y-106194214D01*
X152339848Y-106295671D01*
X152369178Y-106331409D01*
X152452843Y-106487934D01*
X152504363Y-106657774D01*
X152517400Y-106790143D01*
X152517400Y-107128658D01*
X152504363Y-107261027D01*
X152452843Y-107430866D01*
X152369178Y-107587391D01*
X152339848Y-107623129D01*
X152256586Y-107724586D01*
X152119389Y-107837179D01*
X151973162Y-107915339D01*
X151962865Y-107920843D01*
X151793026Y-107972363D01*
X151616400Y-107989759D01*
X151439773Y-107972363D01*
X151269934Y-107920843D01*
X151245531Y-107907799D01*
X151113411Y-107837179D01*
X151113409Y-107837178D01*
X151071150Y-107802497D01*
X150976214Y-107724586D01*
X150863621Y-107587389D01*
X150779958Y-107430867D01*
X150772253Y-107405467D01*
X150728437Y-107261026D01*
X150715400Y-107128657D01*
X150715400Y-106790142D01*
X150717902Y-106764743D01*
X150728437Y-106657775D01*
X150728437Y-106657773D01*
X150779957Y-106487934D01*
X150863622Y-106331409D01*
X150976215Y-106194215D01*
X151113410Y-106081622D01*
X151269935Y-105997957D01*
X151439774Y-105946437D01*
X151616400Y-105929041D01*
X151793027Y-105946437D01*
G37*
G36*
X168500200Y-105937389D02*
G01*
X168533252Y-105947415D01*
X168563703Y-105963692D01*
X168590399Y-105985601D01*
X168612308Y-106012297D01*
X168628585Y-106042748D01*
X168638611Y-106075800D01*
X168642600Y-106116303D01*
X168642600Y-107802497D01*
X168638611Y-107843000D01*
X168628585Y-107876052D01*
X168612308Y-107906503D01*
X168590399Y-107933199D01*
X168563703Y-107955108D01*
X168533252Y-107971385D01*
X168500200Y-107981411D01*
X168459697Y-107985400D01*
X167023503Y-107985400D01*
X166983000Y-107981411D01*
X166949948Y-107971385D01*
X166919497Y-107955108D01*
X166892801Y-107933199D01*
X166870892Y-107906503D01*
X166854615Y-107876052D01*
X166844589Y-107843000D01*
X166840600Y-107802497D01*
X166840600Y-106116303D01*
X166844589Y-106075800D01*
X166854615Y-106042748D01*
X166870892Y-106012297D01*
X166892801Y-105985601D01*
X166919497Y-105963692D01*
X166949948Y-105947415D01*
X166983000Y-105937389D01*
X167023503Y-105933400D01*
X168459697Y-105933400D01*
X168500200Y-105937389D01*
G37*
G36*
X157375000Y-105937389D02*
G01*
X157408052Y-105947415D01*
X157438503Y-105963692D01*
X157465199Y-105985601D01*
X157487108Y-106012297D01*
X157503385Y-106042748D01*
X157513411Y-106075800D01*
X157517400Y-106116303D01*
X157517400Y-107802497D01*
X157513411Y-107843000D01*
X157503385Y-107876052D01*
X157487108Y-107906503D01*
X157465199Y-107933199D01*
X157438503Y-107955108D01*
X157408052Y-107971385D01*
X157375000Y-107981411D01*
X157334497Y-107985400D01*
X155898303Y-107985400D01*
X155857800Y-107981411D01*
X155824748Y-107971385D01*
X155794297Y-107955108D01*
X155767601Y-107933199D01*
X155745692Y-107906503D01*
X155729415Y-107876052D01*
X155719389Y-107843000D01*
X155715400Y-107802497D01*
X155715400Y-106116303D01*
X155719389Y-106075800D01*
X155729415Y-106042748D01*
X155745692Y-106012297D01*
X155767601Y-105985601D01*
X155794297Y-105963692D01*
X155824748Y-105947415D01*
X155857800Y-105937389D01*
X155898303Y-105933400D01*
X157334497Y-105933400D01*
X157375000Y-105937389D01*
G37*
G36*
X173971027Y-105921037D02*
G01*
X174140866Y-105972557D01*
X174140868Y-105972558D01*
X174165299Y-105985617D01*
X174297391Y-106056222D01*
X174328341Y-106081622D01*
X174434586Y-106168814D01*
X174517848Y-106270271D01*
X174547178Y-106306009D01*
X174630843Y-106462534D01*
X174682363Y-106632374D01*
X174684865Y-106657774D01*
X174695400Y-106764741D01*
X174695400Y-107103260D01*
X174692898Y-107128658D01*
X174682363Y-107235627D01*
X174630843Y-107405466D01*
X174547178Y-107561991D01*
X174517848Y-107597729D01*
X174434586Y-107699186D01*
X174297389Y-107811779D01*
X174140867Y-107895442D01*
X174140865Y-107895443D01*
X173971026Y-107946963D01*
X173794400Y-107964359D01*
X173617773Y-107946963D01*
X173447934Y-107895443D01*
X173291409Y-107811778D01*
X173243060Y-107772099D01*
X173154214Y-107699186D01*
X173041621Y-107561989D01*
X172957958Y-107405467D01*
X172957957Y-107405465D01*
X172906437Y-107235626D01*
X172893400Y-107103257D01*
X172893400Y-106764742D01*
X172906437Y-106632373D01*
X172957957Y-106462534D01*
X173041622Y-106306009D01*
X173154215Y-106168815D01*
X173291410Y-106056222D01*
X173423502Y-105985617D01*
X173447933Y-105972558D01*
X173447935Y-105972557D01*
X173617774Y-105921037D01*
X173794400Y-105903641D01*
X173971027Y-105921037D01*
G37*
G36*
X176471027Y-105921037D02*
G01*
X176640866Y-105972557D01*
X176640868Y-105972558D01*
X176665299Y-105985617D01*
X176797391Y-106056222D01*
X176828341Y-106081622D01*
X176934586Y-106168814D01*
X177017848Y-106270271D01*
X177047178Y-106306009D01*
X177130843Y-106462534D01*
X177182363Y-106632374D01*
X177184865Y-106657774D01*
X177195400Y-106764741D01*
X177195400Y-107103260D01*
X177192898Y-107128658D01*
X177182363Y-107235627D01*
X177130843Y-107405466D01*
X177047178Y-107561991D01*
X177017848Y-107597729D01*
X176934586Y-107699186D01*
X176797389Y-107811779D01*
X176640867Y-107895442D01*
X176640865Y-107895443D01*
X176471026Y-107946963D01*
X176294400Y-107964359D01*
X176117773Y-107946963D01*
X175947934Y-107895443D01*
X175791409Y-107811778D01*
X175743060Y-107772099D01*
X175654214Y-107699186D01*
X175541621Y-107561989D01*
X175457958Y-107405467D01*
X175457957Y-107405465D01*
X175406437Y-107235626D01*
X175393400Y-107103257D01*
X175393400Y-106764742D01*
X175406437Y-106632373D01*
X175457957Y-106462534D01*
X175541622Y-106306009D01*
X175654215Y-106168815D01*
X175791410Y-106056222D01*
X175923502Y-105985617D01*
X175947933Y-105972558D01*
X175947935Y-105972557D01*
X176117774Y-105921037D01*
X176294400Y-105903641D01*
X176471027Y-105921037D01*
G37*
G36*
X178971027Y-105921037D02*
G01*
X179140866Y-105972557D01*
X179140868Y-105972558D01*
X179165299Y-105985617D01*
X179297391Y-106056222D01*
X179328341Y-106081622D01*
X179434586Y-106168814D01*
X179517848Y-106270271D01*
X179547178Y-106306009D01*
X179630843Y-106462534D01*
X179682363Y-106632374D01*
X179684865Y-106657774D01*
X179695400Y-106764741D01*
X179695400Y-107103260D01*
X179692898Y-107128658D01*
X179682363Y-107235627D01*
X179630843Y-107405466D01*
X179547178Y-107561991D01*
X179517848Y-107597729D01*
X179434586Y-107699186D01*
X179297389Y-107811779D01*
X179140867Y-107895442D01*
X179140865Y-107895443D01*
X178971026Y-107946963D01*
X178794400Y-107964359D01*
X178617773Y-107946963D01*
X178447934Y-107895443D01*
X178291409Y-107811778D01*
X178243060Y-107772099D01*
X178154214Y-107699186D01*
X178041621Y-107561989D01*
X177957958Y-107405467D01*
X177957957Y-107405465D01*
X177906437Y-107235626D01*
X177893400Y-107103257D01*
X177893400Y-106764742D01*
X177906437Y-106632373D01*
X177957957Y-106462534D01*
X178041622Y-106306009D01*
X178154215Y-106168815D01*
X178291410Y-106056222D01*
X178423502Y-105985617D01*
X178447933Y-105972558D01*
X178447935Y-105972557D01*
X178617774Y-105921037D01*
X178794400Y-105903641D01*
X178971027Y-105921037D01*
G37*
G36*
X181471027Y-105921037D02*
G01*
X181640866Y-105972557D01*
X181640868Y-105972558D01*
X181665299Y-105985617D01*
X181797391Y-106056222D01*
X181828341Y-106081622D01*
X181934586Y-106168814D01*
X182017848Y-106270271D01*
X182047178Y-106306009D01*
X182130843Y-106462534D01*
X182182363Y-106632374D01*
X182184865Y-106657774D01*
X182195400Y-106764741D01*
X182195400Y-107103260D01*
X182192898Y-107128658D01*
X182182363Y-107235627D01*
X182130843Y-107405466D01*
X182047178Y-107561991D01*
X182017848Y-107597729D01*
X181934586Y-107699186D01*
X181797389Y-107811779D01*
X181640867Y-107895442D01*
X181640865Y-107895443D01*
X181471026Y-107946963D01*
X181294400Y-107964359D01*
X181117773Y-107946963D01*
X180947934Y-107895443D01*
X180791409Y-107811778D01*
X180743060Y-107772099D01*
X180654214Y-107699186D01*
X180541621Y-107561989D01*
X180457958Y-107405467D01*
X180457957Y-107405465D01*
X180406437Y-107235626D01*
X180393400Y-107103257D01*
X180393400Y-106764742D01*
X180406437Y-106632373D01*
X180457957Y-106462534D01*
X180541622Y-106306009D01*
X180654215Y-106168815D01*
X180791410Y-106056222D01*
X180923502Y-105985617D01*
X180947933Y-105972558D01*
X180947935Y-105972557D01*
X181117774Y-105921037D01*
X181294400Y-105903641D01*
X181471027Y-105921037D01*
G37*
G36*
X184553000Y-105911989D02*
G01*
X184586052Y-105922015D01*
X184616503Y-105938292D01*
X184643199Y-105960201D01*
X184665108Y-105986897D01*
X184681385Y-106017348D01*
X184691411Y-106050400D01*
X184695400Y-106090903D01*
X184695400Y-107777097D01*
X184691411Y-107817600D01*
X184681385Y-107850652D01*
X184665108Y-107881103D01*
X184643199Y-107907799D01*
X184616503Y-107929708D01*
X184586052Y-107945985D01*
X184553000Y-107956011D01*
X184512497Y-107960000D01*
X183076303Y-107960000D01*
X183035800Y-107956011D01*
X183002748Y-107945985D01*
X182972297Y-107929708D01*
X182945601Y-107907799D01*
X182923692Y-107881103D01*
X182907415Y-107850652D01*
X182897389Y-107817600D01*
X182893400Y-107777097D01*
X182893400Y-106090903D01*
X182897389Y-106050400D01*
X182907415Y-106017348D01*
X182923692Y-105986897D01*
X182945601Y-105960201D01*
X182972297Y-105938292D01*
X183002748Y-105922015D01*
X183035800Y-105911989D01*
X183076303Y-105908000D01*
X184512497Y-105908000D01*
X184553000Y-105911989D01*
G37*
G36*
X149129827Y-100993437D02*
G01*
X149299666Y-101044957D01*
X149456191Y-101128622D01*
X149491929Y-101157952D01*
X149593386Y-101241214D01*
X149651782Y-101312371D01*
X149705978Y-101378409D01*
X149789643Y-101534934D01*
X149841163Y-101704774D01*
X149854200Y-101837143D01*
X149854200Y-102175658D01*
X149841163Y-102308027D01*
X149789643Y-102477866D01*
X149705978Y-102634391D01*
X149676648Y-102670129D01*
X149593386Y-102771586D01*
X149456189Y-102884179D01*
X149299667Y-102967842D01*
X149299665Y-102967843D01*
X149129826Y-103019363D01*
X148953200Y-103036759D01*
X148776573Y-103019363D01*
X148606734Y-102967843D01*
X148603960Y-102966360D01*
X148461101Y-102890000D01*
X148450209Y-102884178D01*
X148394460Y-102838426D01*
X148313014Y-102771586D01*
X148200421Y-102634389D01*
X148116758Y-102477867D01*
X148096725Y-102411827D01*
X148065237Y-102308026D01*
X148052200Y-102175657D01*
X148052200Y-101837142D01*
X148065237Y-101704773D01*
X148116757Y-101534934D01*
X148200422Y-101378409D01*
X148313015Y-101241215D01*
X148450210Y-101128622D01*
X148606735Y-101044957D01*
X148776574Y-100993437D01*
X148953200Y-100976041D01*
X149129827Y-100993437D01*
G37*
G36*
X151629827Y-100993437D02*
G01*
X151799666Y-101044957D01*
X151956191Y-101128622D01*
X151991929Y-101157952D01*
X152093386Y-101241214D01*
X152151782Y-101312371D01*
X152205978Y-101378409D01*
X152289643Y-101534934D01*
X152341163Y-101704774D01*
X152354200Y-101837143D01*
X152354200Y-102175658D01*
X152341163Y-102308027D01*
X152289643Y-102477866D01*
X152205978Y-102634391D01*
X152176648Y-102670129D01*
X152093386Y-102771586D01*
X151956189Y-102884179D01*
X151799667Y-102967842D01*
X151799665Y-102967843D01*
X151629826Y-103019363D01*
X151453200Y-103036759D01*
X151276573Y-103019363D01*
X151106734Y-102967843D01*
X151103960Y-102966360D01*
X150961101Y-102890000D01*
X150950209Y-102884178D01*
X150894460Y-102838426D01*
X150813014Y-102771586D01*
X150700421Y-102634389D01*
X150616758Y-102477867D01*
X150596725Y-102411827D01*
X150565237Y-102308026D01*
X150552200Y-102175657D01*
X150552200Y-101837142D01*
X150565237Y-101704773D01*
X150616757Y-101534934D01*
X150700422Y-101378409D01*
X150813015Y-101241215D01*
X150950210Y-101128622D01*
X151106735Y-101044957D01*
X151276574Y-100993437D01*
X151453200Y-100976041D01*
X151629827Y-100993437D01*
G37*
G36*
X154129827Y-100993437D02*
G01*
X154299666Y-101044957D01*
X154456191Y-101128622D01*
X154491929Y-101157952D01*
X154593386Y-101241214D01*
X154651782Y-101312371D01*
X154705978Y-101378409D01*
X154789643Y-101534934D01*
X154841163Y-101704774D01*
X154854200Y-101837143D01*
X154854200Y-102175658D01*
X154841163Y-102308027D01*
X154789643Y-102477866D01*
X154705978Y-102634391D01*
X154676648Y-102670129D01*
X154593386Y-102771586D01*
X154456189Y-102884179D01*
X154299667Y-102967842D01*
X154299665Y-102967843D01*
X154129826Y-103019363D01*
X153953200Y-103036759D01*
X153776573Y-103019363D01*
X153606734Y-102967843D01*
X153603960Y-102966360D01*
X153461101Y-102890000D01*
X153450209Y-102884178D01*
X153394460Y-102838426D01*
X153313014Y-102771586D01*
X153200421Y-102634389D01*
X153116758Y-102477867D01*
X153096725Y-102411827D01*
X153065237Y-102308026D01*
X153052200Y-102175657D01*
X153052200Y-101837142D01*
X153065237Y-101704773D01*
X153116757Y-101534934D01*
X153200422Y-101378409D01*
X153313015Y-101241215D01*
X153450210Y-101128622D01*
X153606735Y-101044957D01*
X153776574Y-100993437D01*
X153953200Y-100976041D01*
X154129827Y-100993437D01*
G37*
G36*
X156629827Y-100993437D02*
G01*
X156799666Y-101044957D01*
X156956191Y-101128622D01*
X156991929Y-101157952D01*
X157093386Y-101241214D01*
X157151782Y-101312371D01*
X157205978Y-101378409D01*
X157289643Y-101534934D01*
X157341163Y-101704774D01*
X157354200Y-101837143D01*
X157354200Y-102175658D01*
X157341163Y-102308027D01*
X157289643Y-102477866D01*
X157205978Y-102634391D01*
X157176648Y-102670129D01*
X157093386Y-102771586D01*
X156956189Y-102884179D01*
X156799667Y-102967842D01*
X156799665Y-102967843D01*
X156629826Y-103019363D01*
X156453200Y-103036759D01*
X156276573Y-103019363D01*
X156106734Y-102967843D01*
X156103960Y-102966360D01*
X155961101Y-102890000D01*
X155950209Y-102884178D01*
X155894460Y-102838426D01*
X155813014Y-102771586D01*
X155700421Y-102634389D01*
X155616758Y-102477867D01*
X155596725Y-102411827D01*
X155565237Y-102308026D01*
X155552200Y-102175657D01*
X155552200Y-101837142D01*
X155565237Y-101704773D01*
X155616757Y-101534934D01*
X155700422Y-101378409D01*
X155813015Y-101241215D01*
X155950210Y-101128622D01*
X156106735Y-101044957D01*
X156276574Y-100993437D01*
X156453200Y-100976041D01*
X156629827Y-100993437D01*
G37*
G36*
X159711800Y-100984389D02*
G01*
X159744852Y-100994415D01*
X159775303Y-101010692D01*
X159801999Y-101032601D01*
X159823908Y-101059297D01*
X159840185Y-101089748D01*
X159850211Y-101122800D01*
X159854200Y-101163303D01*
X159854200Y-102849497D01*
X159850211Y-102890000D01*
X159840185Y-102923052D01*
X159823908Y-102953503D01*
X159801999Y-102980199D01*
X159775303Y-103002108D01*
X159744852Y-103018385D01*
X159711800Y-103028411D01*
X159671297Y-103032400D01*
X158235103Y-103032400D01*
X158194600Y-103028411D01*
X158161548Y-103018385D01*
X158131097Y-103002108D01*
X158104401Y-102980199D01*
X158082492Y-102953503D01*
X158066215Y-102923052D01*
X158056189Y-102890000D01*
X158052200Y-102849497D01*
X158052200Y-101163303D01*
X158056189Y-101122800D01*
X158066215Y-101089748D01*
X158082492Y-101059297D01*
X158104401Y-101032601D01*
X158131097Y-101010692D01*
X158161548Y-100994415D01*
X158194600Y-100984389D01*
X158235103Y-100980400D01*
X159671297Y-100980400D01*
X159711800Y-100984389D01*
G37*
G36*
X176349107Y-100927397D02*
G01*
X176518946Y-100978917D01*
X176518948Y-100978918D01*
X176559459Y-101000572D01*
X176675471Y-101062582D01*
X176705350Y-101087103D01*
X176812666Y-101175174D01*
X176870298Y-101245400D01*
X176925258Y-101312369D01*
X177008923Y-101468894D01*
X177060443Y-101638734D01*
X177065869Y-101693822D01*
X177072480Y-101760943D01*
X177073480Y-101771103D01*
X177073480Y-102109618D01*
X177060443Y-102241987D01*
X177008923Y-102411826D01*
X176925258Y-102568351D01*
X176895928Y-102604089D01*
X176812666Y-102705546D01*
X176675469Y-102818139D01*
X176541027Y-102890000D01*
X176518945Y-102901803D01*
X176349106Y-102953323D01*
X176172480Y-102970719D01*
X175995853Y-102953323D01*
X175826014Y-102901803D01*
X175669489Y-102818138D01*
X175614850Y-102773297D01*
X175532294Y-102705546D01*
X175419701Y-102568349D01*
X175336038Y-102411827D01*
X175332956Y-102401667D01*
X175284517Y-102241986D01*
X175271480Y-102109617D01*
X175271480Y-101771102D01*
X175272481Y-101760943D01*
X175284517Y-101638735D01*
X175284517Y-101638733D01*
X175336037Y-101468894D01*
X175419702Y-101312369D01*
X175532295Y-101175175D01*
X175669490Y-101062582D01*
X175785502Y-101000572D01*
X175826013Y-100978918D01*
X175826015Y-100978917D01*
X175995854Y-100927397D01*
X176172480Y-100910001D01*
X176349107Y-100927397D01*
G37*
G36*
X181349107Y-100927397D02*
G01*
X181518946Y-100978917D01*
X181518948Y-100978918D01*
X181559459Y-101000572D01*
X181675471Y-101062582D01*
X181705350Y-101087103D01*
X181812666Y-101175174D01*
X181870298Y-101245400D01*
X181925258Y-101312369D01*
X182008923Y-101468894D01*
X182060443Y-101638734D01*
X182065869Y-101693822D01*
X182072480Y-101760943D01*
X182073480Y-101771103D01*
X182073480Y-102109618D01*
X182060443Y-102241987D01*
X182008923Y-102411826D01*
X181925258Y-102568351D01*
X181895928Y-102604089D01*
X181812666Y-102705546D01*
X181675469Y-102818139D01*
X181541027Y-102890000D01*
X181518945Y-102901803D01*
X181349106Y-102953323D01*
X181172480Y-102970719D01*
X180995853Y-102953323D01*
X180826014Y-102901803D01*
X180669489Y-102818138D01*
X180614850Y-102773297D01*
X180532294Y-102705546D01*
X180419701Y-102568349D01*
X180336038Y-102411827D01*
X180332956Y-102401667D01*
X180284517Y-102241986D01*
X180271480Y-102109617D01*
X180271480Y-101771102D01*
X180272481Y-101760943D01*
X180284517Y-101638735D01*
X180284517Y-101638733D01*
X180336037Y-101468894D01*
X180419702Y-101312369D01*
X180532295Y-101175175D01*
X180669490Y-101062582D01*
X180785502Y-101000572D01*
X180826013Y-100978918D01*
X180826015Y-100978917D01*
X180995854Y-100927397D01*
X181172480Y-100910001D01*
X181349107Y-100927397D01*
G37*
G36*
X178849107Y-100927397D02*
G01*
X179018946Y-100978917D01*
X179018948Y-100978918D01*
X179059459Y-101000572D01*
X179175471Y-101062582D01*
X179205350Y-101087103D01*
X179312666Y-101175174D01*
X179370298Y-101245400D01*
X179425258Y-101312369D01*
X179508923Y-101468894D01*
X179560443Y-101638734D01*
X179565869Y-101693822D01*
X179572480Y-101760943D01*
X179573480Y-101771103D01*
X179573480Y-102109618D01*
X179560443Y-102241987D01*
X179508923Y-102411826D01*
X179425258Y-102568351D01*
X179395928Y-102604089D01*
X179312666Y-102705546D01*
X179175469Y-102818139D01*
X179041027Y-102890000D01*
X179018945Y-102901803D01*
X178849106Y-102953323D01*
X178672480Y-102970719D01*
X178495853Y-102953323D01*
X178326014Y-102901803D01*
X178169489Y-102818138D01*
X178114850Y-102773297D01*
X178032294Y-102705546D01*
X177919701Y-102568349D01*
X177836038Y-102411827D01*
X177832956Y-102401667D01*
X177784517Y-102241986D01*
X177771480Y-102109617D01*
X177771480Y-101771102D01*
X177772481Y-101760943D01*
X177784517Y-101638735D01*
X177784517Y-101638733D01*
X177836037Y-101468894D01*
X177919702Y-101312369D01*
X178032295Y-101175175D01*
X178169490Y-101062582D01*
X178285502Y-101000572D01*
X178326013Y-100978918D01*
X178326015Y-100978917D01*
X178495854Y-100927397D01*
X178672480Y-100910001D01*
X178849107Y-100927397D01*
G37*
G36*
X184431080Y-100918349D02*
G01*
X184464132Y-100928375D01*
X184494583Y-100944652D01*
X184521279Y-100966561D01*
X184543188Y-100993257D01*
X184559465Y-101023708D01*
X184569491Y-101056760D01*
X184573480Y-101097263D01*
X184573480Y-102783457D01*
X184569491Y-102823960D01*
X184559465Y-102857012D01*
X184543188Y-102887463D01*
X184521279Y-102914159D01*
X184494583Y-102936068D01*
X184464132Y-102952345D01*
X184431080Y-102962371D01*
X184390577Y-102966360D01*
X182954383Y-102966360D01*
X182913880Y-102962371D01*
X182880828Y-102952345D01*
X182850377Y-102936068D01*
X182823681Y-102914159D01*
X182801772Y-102887463D01*
X182785495Y-102857012D01*
X182775469Y-102823960D01*
X182771480Y-102783457D01*
X182771480Y-101097263D01*
X182775469Y-101056760D01*
X182785495Y-101023708D01*
X182801772Y-100993257D01*
X182823681Y-100966561D01*
X182850377Y-100944652D01*
X182880828Y-100928375D01*
X182913880Y-100918349D01*
X182954383Y-100914360D01*
X184390577Y-100914360D01*
X184431080Y-100918349D01*
G37*
G36*
X165255027Y-100917237D02*
G01*
X165424866Y-100968757D01*
X165581391Y-101052422D01*
X165617129Y-101081752D01*
X165718586Y-101165014D01*
X165784556Y-101245400D01*
X165831178Y-101302209D01*
X165914843Y-101458734D01*
X165966363Y-101628574D01*
X165967364Y-101638735D01*
X165979400Y-101760941D01*
X165979400Y-102099460D01*
X165978399Y-102109619D01*
X165966363Y-102231827D01*
X165943248Y-102308026D01*
X165914842Y-102401668D01*
X165909413Y-102411825D01*
X165831178Y-102558191D01*
X165801848Y-102593929D01*
X165718586Y-102695386D01*
X165581389Y-102807979D01*
X165427939Y-102890000D01*
X165424865Y-102891643D01*
X165255026Y-102943163D01*
X165078400Y-102960559D01*
X164901773Y-102943163D01*
X164731934Y-102891643D01*
X164726509Y-102888743D01*
X164575411Y-102807979D01*
X164575409Y-102807978D01*
X164533150Y-102773297D01*
X164438214Y-102695386D01*
X164325621Y-102558189D01*
X164241958Y-102401667D01*
X164241957Y-102401665D01*
X164190437Y-102231826D01*
X164178401Y-102109618D01*
X164177400Y-102099459D01*
X164177400Y-101760940D01*
X164189436Y-101638734D01*
X164190437Y-101628573D01*
X164241957Y-101458734D01*
X164325622Y-101302209D01*
X164438215Y-101165015D01*
X164575410Y-101052422D01*
X164731935Y-100968757D01*
X164901774Y-100917237D01*
X165078400Y-100899841D01*
X165255027Y-100917237D01*
G37*
G36*
X167755027Y-100917237D02*
G01*
X167924866Y-100968757D01*
X168081391Y-101052422D01*
X168117129Y-101081752D01*
X168218586Y-101165014D01*
X168284556Y-101245400D01*
X168331178Y-101302209D01*
X168414843Y-101458734D01*
X168466363Y-101628574D01*
X168467364Y-101638735D01*
X168479400Y-101760941D01*
X168479400Y-102099460D01*
X168478399Y-102109619D01*
X168466363Y-102231827D01*
X168443248Y-102308026D01*
X168414842Y-102401668D01*
X168409413Y-102411825D01*
X168331178Y-102558191D01*
X168301848Y-102593929D01*
X168218586Y-102695386D01*
X168081389Y-102807979D01*
X167927939Y-102890000D01*
X167924865Y-102891643D01*
X167755026Y-102943163D01*
X167578400Y-102960559D01*
X167401773Y-102943163D01*
X167231934Y-102891643D01*
X167226509Y-102888743D01*
X167075411Y-102807979D01*
X167075409Y-102807978D01*
X167033150Y-102773297D01*
X166938214Y-102695386D01*
X166825621Y-102558189D01*
X166741958Y-102401667D01*
X166741957Y-102401665D01*
X166690437Y-102231826D01*
X166678401Y-102109618D01*
X166677400Y-102099459D01*
X166677400Y-101760940D01*
X166689436Y-101638734D01*
X166690437Y-101628573D01*
X166741957Y-101458734D01*
X166825622Y-101302209D01*
X166938215Y-101165015D01*
X167075410Y-101052422D01*
X167231935Y-100968757D01*
X167401774Y-100917237D01*
X167578400Y-100899841D01*
X167755027Y-100917237D01*
G37*
G36*
X170837000Y-100908189D02*
G01*
X170870052Y-100918215D01*
X170900503Y-100934492D01*
X170927199Y-100956401D01*
X170949108Y-100983097D01*
X170965385Y-101013548D01*
X170975411Y-101046600D01*
X170979400Y-101087103D01*
X170979400Y-102773297D01*
X170975411Y-102813800D01*
X170965385Y-102846852D01*
X170949108Y-102877303D01*
X170927199Y-102903999D01*
X170900503Y-102925908D01*
X170870052Y-102942185D01*
X170837000Y-102952211D01*
X170796497Y-102956200D01*
X169360303Y-102956200D01*
X169319800Y-102952211D01*
X169286748Y-102942185D01*
X169256297Y-102925908D01*
X169229601Y-102903999D01*
X169207692Y-102877303D01*
X169191415Y-102846852D01*
X169181389Y-102813800D01*
X169177400Y-102773297D01*
X169177400Y-101087103D01*
X169181389Y-101046600D01*
X169191415Y-101013548D01*
X169207692Y-100983097D01*
X169229601Y-100956401D01*
X169256297Y-100934492D01*
X169286748Y-100918215D01*
X169319800Y-100908189D01*
X169360303Y-100904200D01*
X170796497Y-100904200D01*
X170837000Y-100908189D01*
G37*
G36*
X191667612Y-100709007D02*
G01*
X191816912Y-100738704D01*
X191980884Y-100806624D01*
X192128454Y-100905227D01*
X192253953Y-101030726D01*
X192352556Y-101178296D01*
X192420476Y-101342268D01*
X192455100Y-101516339D01*
X192455100Y-101693821D01*
X192420476Y-101867892D01*
X192352556Y-102031864D01*
X192253953Y-102179434D01*
X192128454Y-102304933D01*
X191980884Y-102403536D01*
X191816912Y-102471456D01*
X191667612Y-102501153D01*
X191642842Y-102506080D01*
X191465358Y-102506080D01*
X191440588Y-102501153D01*
X191291288Y-102471456D01*
X191127316Y-102403536D01*
X190979746Y-102304933D01*
X190854247Y-102179434D01*
X190755644Y-102031864D01*
X190687724Y-101867892D01*
X190653100Y-101693821D01*
X190653100Y-101516339D01*
X190687724Y-101342268D01*
X190755644Y-101178296D01*
X190854247Y-101030726D01*
X190979746Y-100905227D01*
X191127316Y-100806624D01*
X191291288Y-100738704D01*
X191440588Y-100709007D01*
X191465358Y-100704080D01*
X191642842Y-100704080D01*
X191667612Y-100709007D01*
G37*
G36*
X189127612Y-100709007D02*
G01*
X189276912Y-100738704D01*
X189440884Y-100806624D01*
X189588454Y-100905227D01*
X189713953Y-101030726D01*
X189812556Y-101178296D01*
X189880476Y-101342268D01*
X189915100Y-101516339D01*
X189915100Y-101693821D01*
X189880476Y-101867892D01*
X189812556Y-102031864D01*
X189713953Y-102179434D01*
X189588454Y-102304933D01*
X189440884Y-102403536D01*
X189276912Y-102471456D01*
X189127612Y-102501153D01*
X189102842Y-102506080D01*
X188925358Y-102506080D01*
X188900588Y-102501153D01*
X188751288Y-102471456D01*
X188587316Y-102403536D01*
X188439746Y-102304933D01*
X188314247Y-102179434D01*
X188215644Y-102031864D01*
X188147724Y-101867892D01*
X188113100Y-101693821D01*
X188113100Y-101516339D01*
X188147724Y-101342268D01*
X188215644Y-101178296D01*
X188314247Y-101030726D01*
X188439746Y-100905227D01*
X188587316Y-100806624D01*
X188751288Y-100738704D01*
X188900588Y-100709007D01*
X188925358Y-100704080D01*
X189102842Y-100704080D01*
X189127612Y-100709007D01*
G37*
G36*
X189127612Y-98169007D02*
G01*
X189276912Y-98198704D01*
X189440884Y-98266624D01*
X189588454Y-98365227D01*
X189713953Y-98490726D01*
X189812556Y-98638296D01*
X189880476Y-98802268D01*
X189915100Y-98976339D01*
X189915100Y-99153821D01*
X189880476Y-99327892D01*
X189812556Y-99491864D01*
X189713953Y-99639434D01*
X189588454Y-99764933D01*
X189440884Y-99863536D01*
X189276912Y-99931456D01*
X189127612Y-99961153D01*
X189102842Y-99966080D01*
X188925358Y-99966080D01*
X188900588Y-99961153D01*
X188751288Y-99931456D01*
X188587316Y-99863536D01*
X188439746Y-99764933D01*
X188314247Y-99639434D01*
X188215644Y-99491864D01*
X188147724Y-99327892D01*
X188113100Y-99153821D01*
X188113100Y-98976339D01*
X188147724Y-98802268D01*
X188215644Y-98638296D01*
X188314247Y-98490726D01*
X188439746Y-98365227D01*
X188587316Y-98266624D01*
X188751288Y-98198704D01*
X188900588Y-98169007D01*
X188925358Y-98164080D01*
X189102842Y-98164080D01*
X189127612Y-98169007D01*
G37*
G36*
X191667612Y-98169007D02*
G01*
X191816912Y-98198704D01*
X191980884Y-98266624D01*
X192128454Y-98365227D01*
X192253953Y-98490726D01*
X192352556Y-98638296D01*
X192420476Y-98802268D01*
X192455100Y-98976339D01*
X192455100Y-99153821D01*
X192420476Y-99327892D01*
X192352556Y-99491864D01*
X192253953Y-99639434D01*
X192128454Y-99764933D01*
X191980884Y-99863536D01*
X191816912Y-99931456D01*
X191667612Y-99961153D01*
X191642842Y-99966080D01*
X191465358Y-99966080D01*
X191440588Y-99961153D01*
X191291288Y-99931456D01*
X191127316Y-99863536D01*
X190979746Y-99764933D01*
X190854247Y-99639434D01*
X190755644Y-99491864D01*
X190687724Y-99327892D01*
X190653100Y-99153821D01*
X190653100Y-98976339D01*
X190687724Y-98802268D01*
X190755644Y-98638296D01*
X190854247Y-98490726D01*
X190979746Y-98365227D01*
X191127316Y-98266624D01*
X191291288Y-98198704D01*
X191440588Y-98169007D01*
X191465358Y-98164080D01*
X191642842Y-98164080D01*
X191667612Y-98169007D01*
G37*
G36*
X143375060Y-96148769D02*
G01*
X143408112Y-96158795D01*
X143438563Y-96175072D01*
X143465259Y-96196981D01*
X143487168Y-96223677D01*
X143503445Y-96254128D01*
X143513471Y-96287180D01*
X143517460Y-96327683D01*
X143517460Y-97763877D01*
X143513471Y-97804380D01*
X143503445Y-97837432D01*
X143487168Y-97867883D01*
X143465259Y-97894579D01*
X143438563Y-97916488D01*
X143408112Y-97932765D01*
X143375060Y-97942791D01*
X143334557Y-97946780D01*
X141648363Y-97946780D01*
X141607860Y-97942791D01*
X141574808Y-97932765D01*
X141544357Y-97916488D01*
X141517661Y-97894579D01*
X141495752Y-97867883D01*
X141479475Y-97837432D01*
X141469449Y-97804380D01*
X141465460Y-97763877D01*
X141465460Y-96327683D01*
X141469449Y-96287180D01*
X141479475Y-96254128D01*
X141495752Y-96223677D01*
X141517661Y-96196981D01*
X141544357Y-96175072D01*
X141574808Y-96158795D01*
X141607860Y-96148769D01*
X141648363Y-96144780D01*
X143334557Y-96144780D01*
X143375060Y-96148769D01*
G37*
G36*
X191667612Y-95629007D02*
G01*
X191816912Y-95658704D01*
X191980884Y-95726624D01*
X192128454Y-95825227D01*
X192253953Y-95950726D01*
X192352556Y-96098296D01*
X192420476Y-96262268D01*
X192455100Y-96436339D01*
X192455100Y-96613821D01*
X192420476Y-96787892D01*
X192352556Y-96951864D01*
X192253953Y-97099434D01*
X192128454Y-97224933D01*
X191980884Y-97323536D01*
X191816912Y-97391456D01*
X191667612Y-97421153D01*
X191642842Y-97426080D01*
X191465358Y-97426080D01*
X191440588Y-97421153D01*
X191291288Y-97391456D01*
X191127316Y-97323536D01*
X190979746Y-97224933D01*
X190854247Y-97099434D01*
X190755644Y-96951864D01*
X190687724Y-96787892D01*
X190653100Y-96613821D01*
X190653100Y-96436339D01*
X190687724Y-96262268D01*
X190755644Y-96098296D01*
X190854247Y-95950726D01*
X190979746Y-95825227D01*
X191127316Y-95726624D01*
X191291288Y-95658704D01*
X191440588Y-95629007D01*
X191465358Y-95624080D01*
X191642842Y-95624080D01*
X191667612Y-95629007D01*
G37*
G36*
X189127612Y-95629007D02*
G01*
X189276912Y-95658704D01*
X189440884Y-95726624D01*
X189588454Y-95825227D01*
X189713953Y-95950726D01*
X189812556Y-96098296D01*
X189880476Y-96262268D01*
X189915100Y-96436339D01*
X189915100Y-96613821D01*
X189880476Y-96787892D01*
X189812556Y-96951864D01*
X189713953Y-97099434D01*
X189588454Y-97224933D01*
X189440884Y-97323536D01*
X189276912Y-97391456D01*
X189127612Y-97421153D01*
X189102842Y-97426080D01*
X188925358Y-97426080D01*
X188900588Y-97421153D01*
X188751288Y-97391456D01*
X188587316Y-97323536D01*
X188439746Y-97224933D01*
X188314247Y-97099434D01*
X188215644Y-96951864D01*
X188147724Y-96787892D01*
X188113100Y-96613821D01*
X188113100Y-96436339D01*
X188147724Y-96262268D01*
X188215644Y-96098296D01*
X188314247Y-95950726D01*
X188439746Y-95825227D01*
X188587316Y-95726624D01*
X188751288Y-95658704D01*
X188900588Y-95629007D01*
X188925358Y-95624080D01*
X189102842Y-95624080D01*
X189127612Y-95629007D01*
G37*
G36*
X142726903Y-93651299D02*
G01*
X142793087Y-93657817D01*
X142962926Y-93709337D01*
X143119451Y-93793002D01*
X143155189Y-93822332D01*
X143256646Y-93905594D01*
X143339908Y-94007051D01*
X143369238Y-94042789D01*
X143452903Y-94199314D01*
X143504423Y-94369153D01*
X143521819Y-94545780D01*
X143504423Y-94722407D01*
X143452903Y-94892246D01*
X143369238Y-95048771D01*
X143339908Y-95084509D01*
X143256646Y-95185966D01*
X143155189Y-95269228D01*
X143119451Y-95298558D01*
X142962926Y-95382223D01*
X142793087Y-95433743D01*
X142726902Y-95440262D01*
X142660720Y-95446780D01*
X142322200Y-95446780D01*
X142256018Y-95440262D01*
X142189833Y-95433743D01*
X142019994Y-95382223D01*
X141863469Y-95298558D01*
X141827731Y-95269228D01*
X141726274Y-95185966D01*
X141643012Y-95084509D01*
X141613682Y-95048771D01*
X141530017Y-94892246D01*
X141478497Y-94722407D01*
X141461101Y-94545780D01*
X141478497Y-94369153D01*
X141530017Y-94199314D01*
X141613682Y-94042789D01*
X141643012Y-94007051D01*
X141726274Y-93905594D01*
X141827731Y-93822332D01*
X141863469Y-93793002D01*
X142019994Y-93709337D01*
X142189833Y-93657817D01*
X142256017Y-93651299D01*
X142322200Y-93644780D01*
X142660720Y-93644780D01*
X142726903Y-93651299D01*
G37*
G36*
X189127612Y-93089007D02*
G01*
X189276912Y-93118704D01*
X189440884Y-93186624D01*
X189588454Y-93285227D01*
X189713953Y-93410726D01*
X189812556Y-93558296D01*
X189880476Y-93722268D01*
X189915100Y-93896339D01*
X189915100Y-94073821D01*
X189880476Y-94247892D01*
X189812556Y-94411864D01*
X189713953Y-94559434D01*
X189588454Y-94684933D01*
X189440884Y-94783536D01*
X189276912Y-94851456D01*
X189127612Y-94881153D01*
X189102842Y-94886080D01*
X188925358Y-94886080D01*
X188900588Y-94881153D01*
X188751288Y-94851456D01*
X188587316Y-94783536D01*
X188439746Y-94684933D01*
X188314247Y-94559434D01*
X188215644Y-94411864D01*
X188147724Y-94247892D01*
X188113100Y-94073821D01*
X188113100Y-93896339D01*
X188147724Y-93722268D01*
X188215644Y-93558296D01*
X188314247Y-93410726D01*
X188439746Y-93285227D01*
X188587316Y-93186624D01*
X188751288Y-93118704D01*
X188900588Y-93089007D01*
X188925358Y-93084080D01*
X189102842Y-93084080D01*
X189127612Y-93089007D01*
G37*
G36*
X191667612Y-93089007D02*
G01*
X191816912Y-93118704D01*
X191980884Y-93186624D01*
X192128454Y-93285227D01*
X192253953Y-93410726D01*
X192352556Y-93558296D01*
X192420476Y-93722268D01*
X192455100Y-93896339D01*
X192455100Y-94073821D01*
X192420476Y-94247892D01*
X192352556Y-94411864D01*
X192253953Y-94559434D01*
X192128454Y-94684933D01*
X191980884Y-94783536D01*
X191816912Y-94851456D01*
X191667612Y-94881153D01*
X191642842Y-94886080D01*
X191465358Y-94886080D01*
X191440588Y-94881153D01*
X191291288Y-94851456D01*
X191127316Y-94783536D01*
X190979746Y-94684933D01*
X190854247Y-94559434D01*
X190755644Y-94411864D01*
X190687724Y-94247892D01*
X190653100Y-94073821D01*
X190653100Y-93896339D01*
X190687724Y-93722268D01*
X190755644Y-93558296D01*
X190854247Y-93410726D01*
X190979746Y-93285227D01*
X191127316Y-93186624D01*
X191291288Y-93118704D01*
X191440588Y-93089007D01*
X191465358Y-93084080D01*
X191642842Y-93084080D01*
X191667612Y-93089007D01*
G37*
G36*
X142726902Y-91151298D02*
G01*
X142793087Y-91157817D01*
X142962926Y-91209337D01*
X143119451Y-91293002D01*
X143155189Y-91322332D01*
X143256646Y-91405594D01*
X143339908Y-91507051D01*
X143369238Y-91542789D01*
X143452903Y-91699314D01*
X143504423Y-91869153D01*
X143521819Y-92045780D01*
X143504423Y-92222407D01*
X143452903Y-92392246D01*
X143369238Y-92548771D01*
X143339908Y-92584509D01*
X143256646Y-92685966D01*
X143155189Y-92769228D01*
X143119451Y-92798558D01*
X142962926Y-92882223D01*
X142793087Y-92933743D01*
X142726902Y-92940262D01*
X142660720Y-92946780D01*
X142322200Y-92946780D01*
X142256018Y-92940262D01*
X142189833Y-92933743D01*
X142019994Y-92882223D01*
X141863469Y-92798558D01*
X141827731Y-92769228D01*
X141726274Y-92685966D01*
X141643012Y-92584509D01*
X141613682Y-92548771D01*
X141530017Y-92392246D01*
X141478497Y-92222407D01*
X141461101Y-92045780D01*
X141478497Y-91869153D01*
X141530017Y-91699314D01*
X141613682Y-91542789D01*
X141643012Y-91507051D01*
X141726274Y-91405594D01*
X141827731Y-91322332D01*
X141863469Y-91293002D01*
X142019994Y-91209337D01*
X142189833Y-91157817D01*
X142256018Y-91151298D01*
X142322200Y-91144780D01*
X142660720Y-91144780D01*
X142726902Y-91151298D01*
G37*
G36*
X191667612Y-90549007D02*
G01*
X191816912Y-90578704D01*
X191980884Y-90646624D01*
X192128454Y-90745227D01*
X192253953Y-90870726D01*
X192352556Y-91018296D01*
X192420476Y-91182268D01*
X192455100Y-91356339D01*
X192455100Y-91533821D01*
X192420476Y-91707892D01*
X192352556Y-91871864D01*
X192253953Y-92019434D01*
X192128454Y-92144933D01*
X191980884Y-92243536D01*
X191816912Y-92311456D01*
X191667612Y-92341153D01*
X191642842Y-92346080D01*
X191465358Y-92346080D01*
X191440588Y-92341153D01*
X191291288Y-92311456D01*
X191127316Y-92243536D01*
X190979746Y-92144933D01*
X190854247Y-92019434D01*
X190755644Y-91871864D01*
X190687724Y-91707892D01*
X190653100Y-91533821D01*
X190653100Y-91356339D01*
X190687724Y-91182268D01*
X190755644Y-91018296D01*
X190854247Y-90870726D01*
X190979746Y-90745227D01*
X191127316Y-90646624D01*
X191291288Y-90578704D01*
X191440588Y-90549007D01*
X191465358Y-90544080D01*
X191642842Y-90544080D01*
X191667612Y-90549007D01*
G37*
G36*
X189915100Y-92346080D02*
G01*
X188113100Y-92346080D01*
X188113100Y-90544080D01*
X189915100Y-90544080D01*
X189915100Y-92346080D01*
G37*
G36*
X148256940Y-88660849D02*
G01*
X148289992Y-88670875D01*
X148320443Y-88687152D01*
X148347139Y-88709061D01*
X148369048Y-88735757D01*
X148385325Y-88766208D01*
X148395351Y-88799260D01*
X148399340Y-88839763D01*
X148399340Y-90275957D01*
X148395351Y-90316460D01*
X148385325Y-90349512D01*
X148369048Y-90379963D01*
X148347139Y-90406659D01*
X148320443Y-90428568D01*
X148289992Y-90444845D01*
X148256940Y-90454871D01*
X148216437Y-90458860D01*
X146530243Y-90458860D01*
X146489740Y-90454871D01*
X146456688Y-90444845D01*
X146426237Y-90428568D01*
X146399541Y-90406659D01*
X146377632Y-90379963D01*
X146361355Y-90349512D01*
X146351329Y-90316460D01*
X146347340Y-90275957D01*
X146347340Y-88839763D01*
X146351329Y-88799260D01*
X146361355Y-88766208D01*
X146377632Y-88735757D01*
X146399541Y-88709061D01*
X146426237Y-88687152D01*
X146456688Y-88670875D01*
X146489740Y-88660849D01*
X146530243Y-88656860D01*
X148216437Y-88656860D01*
X148256940Y-88660849D01*
G37*
G36*
X142726903Y-88651299D02*
G01*
X142793087Y-88657817D01*
X142962926Y-88709337D01*
X143119451Y-88793002D01*
X143127076Y-88799260D01*
X143256646Y-88905594D01*
X143339908Y-89007051D01*
X143369238Y-89042789D01*
X143452903Y-89199314D01*
X143504423Y-89369153D01*
X143521819Y-89545780D01*
X143504423Y-89722407D01*
X143452903Y-89892246D01*
X143369238Y-90048771D01*
X143339908Y-90084509D01*
X143256646Y-90185966D01*
X143155189Y-90269228D01*
X143119451Y-90298558D01*
X143119449Y-90298559D01*
X142964760Y-90381243D01*
X142962926Y-90382223D01*
X142793087Y-90433743D01*
X142726902Y-90440262D01*
X142660720Y-90446780D01*
X142322200Y-90446780D01*
X142256018Y-90440262D01*
X142189833Y-90433743D01*
X142019994Y-90382223D01*
X142018161Y-90381243D01*
X141863471Y-90298559D01*
X141863469Y-90298558D01*
X141827731Y-90269228D01*
X141726274Y-90185966D01*
X141643012Y-90084509D01*
X141613682Y-90048771D01*
X141530017Y-89892246D01*
X141478497Y-89722407D01*
X141461101Y-89545780D01*
X141478497Y-89369153D01*
X141530017Y-89199314D01*
X141613682Y-89042789D01*
X141643012Y-89007051D01*
X141726274Y-88905594D01*
X141855844Y-88799260D01*
X141863469Y-88793002D01*
X142019994Y-88709337D01*
X142189833Y-88657817D01*
X142256017Y-88651299D01*
X142322200Y-88644780D01*
X142660720Y-88644780D01*
X142726903Y-88651299D01*
G37*
G36*
X189089512Y-86866007D02*
G01*
X189238812Y-86895704D01*
X189402784Y-86963624D01*
X189550354Y-87062227D01*
X189675853Y-87187726D01*
X189774456Y-87335296D01*
X189842376Y-87499268D01*
X189877000Y-87673339D01*
X189877000Y-87850821D01*
X189842376Y-88024892D01*
X189774456Y-88188864D01*
X189675853Y-88336434D01*
X189550354Y-88461933D01*
X189402784Y-88560536D01*
X189238812Y-88628456D01*
X189089512Y-88658153D01*
X189064742Y-88663080D01*
X188887258Y-88663080D01*
X188862488Y-88658153D01*
X188713188Y-88628456D01*
X188549216Y-88560536D01*
X188401646Y-88461933D01*
X188276147Y-88336434D01*
X188177544Y-88188864D01*
X188109624Y-88024892D01*
X188075000Y-87850821D01*
X188075000Y-87673339D01*
X188109624Y-87499268D01*
X188177544Y-87335296D01*
X188276147Y-87187726D01*
X188401646Y-87062227D01*
X188549216Y-86963624D01*
X188713188Y-86895704D01*
X188862488Y-86866007D01*
X188887258Y-86861080D01*
X189064742Y-86861080D01*
X189089512Y-86866007D01*
G37*
G36*
X191629512Y-86866007D02*
G01*
X191778812Y-86895704D01*
X191942784Y-86963624D01*
X192090354Y-87062227D01*
X192215853Y-87187726D01*
X192314456Y-87335296D01*
X192382376Y-87499268D01*
X192417000Y-87673339D01*
X192417000Y-87850821D01*
X192382376Y-88024892D01*
X192314456Y-88188864D01*
X192215853Y-88336434D01*
X192090354Y-88461933D01*
X191942784Y-88560536D01*
X191778812Y-88628456D01*
X191629512Y-88658153D01*
X191604742Y-88663080D01*
X191427258Y-88663080D01*
X191402488Y-88658153D01*
X191253188Y-88628456D01*
X191089216Y-88560536D01*
X190941646Y-88461933D01*
X190816147Y-88336434D01*
X190717544Y-88188864D01*
X190649624Y-88024892D01*
X190615000Y-87850821D01*
X190615000Y-87673339D01*
X190649624Y-87499268D01*
X190717544Y-87335296D01*
X190816147Y-87187726D01*
X190941646Y-87062227D01*
X191089216Y-86963624D01*
X191253188Y-86895704D01*
X191402488Y-86866007D01*
X191427258Y-86861080D01*
X191604742Y-86861080D01*
X191629512Y-86866007D01*
G37*
G36*
X147608783Y-86163379D02*
G01*
X147674967Y-86169897D01*
X147844806Y-86221417D01*
X148001331Y-86305082D01*
X148037069Y-86334412D01*
X148138526Y-86417674D01*
X148221788Y-86519131D01*
X148251118Y-86554869D01*
X148334783Y-86711394D01*
X148386303Y-86881233D01*
X148403699Y-87057860D01*
X148386303Y-87234487D01*
X148334783Y-87404326D01*
X148251118Y-87560851D01*
X148221788Y-87596589D01*
X148138526Y-87698046D01*
X148037069Y-87781308D01*
X148001331Y-87810638D01*
X147844806Y-87894303D01*
X147674967Y-87945823D01*
X147608783Y-87952341D01*
X147542600Y-87958860D01*
X147204080Y-87958860D01*
X147137897Y-87952341D01*
X147071713Y-87945823D01*
X146901874Y-87894303D01*
X146745349Y-87810638D01*
X146709611Y-87781308D01*
X146608154Y-87698046D01*
X146524892Y-87596589D01*
X146495562Y-87560851D01*
X146411897Y-87404326D01*
X146360377Y-87234487D01*
X146342981Y-87057860D01*
X146360377Y-86881233D01*
X146411897Y-86711394D01*
X146495562Y-86554869D01*
X146524892Y-86519131D01*
X146608154Y-86417674D01*
X146709611Y-86334412D01*
X146745349Y-86305082D01*
X146901874Y-86221417D01*
X147071713Y-86169897D01*
X147137897Y-86163379D01*
X147204080Y-86156860D01*
X147542600Y-86156860D01*
X147608783Y-86163379D01*
G37*
G36*
X142726902Y-86151298D02*
G01*
X142793087Y-86157817D01*
X142962926Y-86209337D01*
X143119451Y-86293002D01*
X143134169Y-86305081D01*
X143256646Y-86405594D01*
X143339908Y-86507051D01*
X143369238Y-86542789D01*
X143452903Y-86699314D01*
X143504423Y-86869153D01*
X143521819Y-87045780D01*
X143504423Y-87222407D01*
X143452903Y-87392246D01*
X143369238Y-87548771D01*
X143359324Y-87560851D01*
X143256646Y-87685966D01*
X143155189Y-87769228D01*
X143119451Y-87798558D01*
X142962926Y-87882223D01*
X142793087Y-87933743D01*
X142726902Y-87940262D01*
X142660720Y-87946780D01*
X142322200Y-87946780D01*
X142256018Y-87940262D01*
X142189833Y-87933743D01*
X142019994Y-87882223D01*
X141863469Y-87798558D01*
X141827731Y-87769228D01*
X141726274Y-87685966D01*
X141623596Y-87560851D01*
X141613682Y-87548771D01*
X141530017Y-87392246D01*
X141478497Y-87222407D01*
X141461101Y-87045780D01*
X141478497Y-86869153D01*
X141530017Y-86699314D01*
X141613682Y-86542789D01*
X141643012Y-86507051D01*
X141726274Y-86405594D01*
X141848751Y-86305081D01*
X141863469Y-86293002D01*
X142019994Y-86209337D01*
X142189833Y-86157817D01*
X142256018Y-86151298D01*
X142322200Y-86144780D01*
X142660720Y-86144780D01*
X142726902Y-86151298D01*
G37*
G36*
X191629512Y-84326007D02*
G01*
X191778812Y-84355704D01*
X191942784Y-84423624D01*
X192090354Y-84522227D01*
X192215853Y-84647726D01*
X192314456Y-84795296D01*
X192382376Y-84959268D01*
X192417000Y-85133339D01*
X192417000Y-85310821D01*
X192382376Y-85484892D01*
X192314456Y-85648864D01*
X192215853Y-85796434D01*
X192090354Y-85921933D01*
X191942784Y-86020536D01*
X191778812Y-86088456D01*
X191629512Y-86118153D01*
X191604742Y-86123080D01*
X191427258Y-86123080D01*
X191402488Y-86118153D01*
X191253188Y-86088456D01*
X191089216Y-86020536D01*
X190941646Y-85921933D01*
X190816147Y-85796434D01*
X190717544Y-85648864D01*
X190649624Y-85484892D01*
X190615000Y-85310821D01*
X190615000Y-85133339D01*
X190649624Y-84959268D01*
X190717544Y-84795296D01*
X190816147Y-84647726D01*
X190941646Y-84522227D01*
X191089216Y-84423624D01*
X191253188Y-84355704D01*
X191402488Y-84326007D01*
X191427258Y-84321080D01*
X191604742Y-84321080D01*
X191629512Y-84326007D01*
G37*
G36*
X189089512Y-84326007D02*
G01*
X189238812Y-84355704D01*
X189402784Y-84423624D01*
X189550354Y-84522227D01*
X189675853Y-84647726D01*
X189774456Y-84795296D01*
X189842376Y-84959268D01*
X189877000Y-85133339D01*
X189877000Y-85310821D01*
X189842376Y-85484892D01*
X189774456Y-85648864D01*
X189675853Y-85796434D01*
X189550354Y-85921933D01*
X189402784Y-86020536D01*
X189238812Y-86088456D01*
X189089512Y-86118153D01*
X189064742Y-86123080D01*
X188887258Y-86123080D01*
X188862488Y-86118153D01*
X188713188Y-86088456D01*
X188549216Y-86020536D01*
X188401646Y-85921933D01*
X188276147Y-85796434D01*
X188177544Y-85648864D01*
X188109624Y-85484892D01*
X188075000Y-85310821D01*
X188075000Y-85133339D01*
X188109624Y-84959268D01*
X188177544Y-84795296D01*
X188276147Y-84647726D01*
X188401646Y-84522227D01*
X188549216Y-84423624D01*
X188713188Y-84355704D01*
X188862488Y-84326007D01*
X188887258Y-84321080D01*
X189064742Y-84321080D01*
X189089512Y-84326007D01*
G37*
G36*
X147608782Y-83663378D02*
G01*
X147674967Y-83669897D01*
X147844806Y-83721417D01*
X148001331Y-83805082D01*
X148037069Y-83834412D01*
X148138526Y-83917674D01*
X148221788Y-84019131D01*
X148251118Y-84054869D01*
X148334783Y-84211394D01*
X148386303Y-84381233D01*
X148403699Y-84557860D01*
X148386303Y-84734487D01*
X148334783Y-84904326D01*
X148251118Y-85060851D01*
X148221788Y-85096589D01*
X148138526Y-85198046D01*
X148037069Y-85281308D01*
X148001331Y-85310638D01*
X147844806Y-85394303D01*
X147674967Y-85445823D01*
X147608782Y-85452342D01*
X147542600Y-85458860D01*
X147204080Y-85458860D01*
X147137898Y-85452342D01*
X147071713Y-85445823D01*
X146901874Y-85394303D01*
X146745349Y-85310638D01*
X146709611Y-85281308D01*
X146608154Y-85198046D01*
X146524892Y-85096589D01*
X146495562Y-85060851D01*
X146411897Y-84904326D01*
X146360377Y-84734487D01*
X146342981Y-84557860D01*
X146360377Y-84381233D01*
X146411897Y-84211394D01*
X146495562Y-84054869D01*
X146524892Y-84019131D01*
X146608154Y-83917674D01*
X146709611Y-83834412D01*
X146745349Y-83805082D01*
X146901874Y-83721417D01*
X147071713Y-83669897D01*
X147137898Y-83663378D01*
X147204080Y-83656860D01*
X147542600Y-83656860D01*
X147608782Y-83663378D01*
G37*
G36*
X142726903Y-83651299D02*
G01*
X142793087Y-83657817D01*
X142962926Y-83709337D01*
X143119451Y-83793002D01*
X143134169Y-83805081D01*
X143256646Y-83905594D01*
X143339908Y-84007051D01*
X143369238Y-84042789D01*
X143452903Y-84199314D01*
X143504423Y-84369153D01*
X143521819Y-84545780D01*
X143504423Y-84722407D01*
X143452903Y-84892246D01*
X143369238Y-85048771D01*
X143359324Y-85060851D01*
X143256646Y-85185966D01*
X143155189Y-85269228D01*
X143119451Y-85298558D01*
X142962926Y-85382223D01*
X142793087Y-85433743D01*
X142726902Y-85440262D01*
X142660720Y-85446780D01*
X142322200Y-85446780D01*
X142256018Y-85440262D01*
X142189833Y-85433743D01*
X142019994Y-85382223D01*
X141863469Y-85298558D01*
X141827731Y-85269228D01*
X141726274Y-85185966D01*
X141623596Y-85060851D01*
X141613682Y-85048771D01*
X141530017Y-84892246D01*
X141478497Y-84722407D01*
X141461101Y-84545780D01*
X141478497Y-84369153D01*
X141530017Y-84199314D01*
X141613682Y-84042789D01*
X141643012Y-84007051D01*
X141726274Y-83905594D01*
X141848751Y-83805081D01*
X141863469Y-83793002D01*
X142019994Y-83709337D01*
X142189833Y-83657817D01*
X142256017Y-83651299D01*
X142322200Y-83644780D01*
X142660720Y-83644780D01*
X142726903Y-83651299D01*
G37*
G36*
X191629512Y-81786007D02*
G01*
X191778812Y-81815704D01*
X191942784Y-81883624D01*
X192090354Y-81982227D01*
X192215853Y-82107726D01*
X192314456Y-82255296D01*
X192382376Y-82419268D01*
X192417000Y-82593339D01*
X192417000Y-82770821D01*
X192382376Y-82944892D01*
X192314456Y-83108864D01*
X192215853Y-83256434D01*
X192090354Y-83381933D01*
X191942784Y-83480536D01*
X191778812Y-83548456D01*
X191629512Y-83578153D01*
X191604742Y-83583080D01*
X191427258Y-83583080D01*
X191402488Y-83578153D01*
X191253188Y-83548456D01*
X191089216Y-83480536D01*
X190941646Y-83381933D01*
X190816147Y-83256434D01*
X190717544Y-83108864D01*
X190649624Y-82944892D01*
X190615000Y-82770821D01*
X190615000Y-82593339D01*
X190649624Y-82419268D01*
X190717544Y-82255296D01*
X190816147Y-82107726D01*
X190941646Y-81982227D01*
X191089216Y-81883624D01*
X191253188Y-81815704D01*
X191402488Y-81786007D01*
X191427258Y-81781080D01*
X191604742Y-81781080D01*
X191629512Y-81786007D01*
G37*
G36*
X189877000Y-83583080D02*
G01*
X188075000Y-83583080D01*
X188075000Y-81781080D01*
X189877000Y-81781080D01*
X189877000Y-83583080D01*
G37*
G36*
X191629512Y-78128407D02*
G01*
X191778812Y-78158104D01*
X191942784Y-78226024D01*
X192090354Y-78324627D01*
X192215853Y-78450126D01*
X192314456Y-78597696D01*
X192382376Y-78761668D01*
X192417000Y-78935739D01*
X192417000Y-79113221D01*
X192382376Y-79287292D01*
X192314456Y-79451264D01*
X192215853Y-79598834D01*
X192090354Y-79724333D01*
X191942784Y-79822936D01*
X191778812Y-79890856D01*
X191629512Y-79920553D01*
X191604742Y-79925480D01*
X191427258Y-79925480D01*
X191402488Y-79920553D01*
X191253188Y-79890856D01*
X191089216Y-79822936D01*
X190941646Y-79724333D01*
X190816147Y-79598834D01*
X190717544Y-79451264D01*
X190649624Y-79287292D01*
X190615000Y-79113221D01*
X190615000Y-78935739D01*
X190649624Y-78761668D01*
X190717544Y-78597696D01*
X190816147Y-78450126D01*
X190941646Y-78324627D01*
X191089216Y-78226024D01*
X191253188Y-78158104D01*
X191402488Y-78128407D01*
X191427258Y-78123480D01*
X191604742Y-78123480D01*
X191629512Y-78128407D01*
G37*
G36*
X189089512Y-78128407D02*
G01*
X189238812Y-78158104D01*
X189402784Y-78226024D01*
X189550354Y-78324627D01*
X189675853Y-78450126D01*
X189774456Y-78597696D01*
X189842376Y-78761668D01*
X189877000Y-78935739D01*
X189877000Y-79113221D01*
X189842376Y-79287292D01*
X189774456Y-79451264D01*
X189675853Y-79598834D01*
X189550354Y-79724333D01*
X189402784Y-79822936D01*
X189238812Y-79890856D01*
X189089512Y-79920553D01*
X189064742Y-79925480D01*
X188887258Y-79925480D01*
X188862488Y-79920553D01*
X188713188Y-79890856D01*
X188549216Y-79822936D01*
X188401646Y-79724333D01*
X188276147Y-79598834D01*
X188177544Y-79451264D01*
X188109624Y-79287292D01*
X188075000Y-79113221D01*
X188075000Y-78935739D01*
X188109624Y-78761668D01*
X188177544Y-78597696D01*
X188276147Y-78450126D01*
X188401646Y-78324627D01*
X188549216Y-78226024D01*
X188713188Y-78158104D01*
X188862488Y-78128407D01*
X188887258Y-78123480D01*
X189064742Y-78123480D01*
X189089512Y-78128407D01*
G37*
G36*
X148251860Y-77606769D02*
G01*
X148284912Y-77616795D01*
X148315363Y-77633072D01*
X148342059Y-77654981D01*
X148363968Y-77681677D01*
X148380245Y-77712128D01*
X148390271Y-77745180D01*
X148394260Y-77785683D01*
X148394260Y-79221877D01*
X148390271Y-79262380D01*
X148380245Y-79295432D01*
X148363968Y-79325883D01*
X148342059Y-79352579D01*
X148315363Y-79374488D01*
X148284912Y-79390765D01*
X148251860Y-79400791D01*
X148211357Y-79404780D01*
X146525163Y-79404780D01*
X146484660Y-79400791D01*
X146451608Y-79390765D01*
X146421157Y-79374488D01*
X146394461Y-79352579D01*
X146372552Y-79325883D01*
X146356275Y-79295432D01*
X146346249Y-79262380D01*
X146342260Y-79221877D01*
X146342260Y-77785683D01*
X146346249Y-77745180D01*
X146356275Y-77712128D01*
X146372552Y-77681677D01*
X146394461Y-77654981D01*
X146421157Y-77633072D01*
X146451608Y-77616795D01*
X146484660Y-77606769D01*
X146525163Y-77602780D01*
X148211357Y-77602780D01*
X148251860Y-77606769D01*
G37*
G36*
X143324260Y-77606769D02*
G01*
X143357312Y-77616795D01*
X143387763Y-77633072D01*
X143414459Y-77654981D01*
X143436368Y-77681677D01*
X143452645Y-77712128D01*
X143462671Y-77745180D01*
X143466660Y-77785683D01*
X143466660Y-79221877D01*
X143462671Y-79262380D01*
X143452645Y-79295432D01*
X143436368Y-79325883D01*
X143414459Y-79352579D01*
X143387763Y-79374488D01*
X143357312Y-79390765D01*
X143324260Y-79400791D01*
X143283757Y-79404780D01*
X141597563Y-79404780D01*
X141557060Y-79400791D01*
X141524008Y-79390765D01*
X141493557Y-79374488D01*
X141466861Y-79352579D01*
X141444952Y-79325883D01*
X141428675Y-79295432D01*
X141418649Y-79262380D01*
X141414660Y-79221877D01*
X141414660Y-77785683D01*
X141418649Y-77745180D01*
X141428675Y-77712128D01*
X141444952Y-77681677D01*
X141466861Y-77654981D01*
X141493557Y-77633072D01*
X141524008Y-77616795D01*
X141557060Y-77606769D01*
X141597563Y-77602780D01*
X143283757Y-77602780D01*
X143324260Y-77606769D01*
G37*
G36*
X152869200Y-78091600D02*
G01*
X151067200Y-78091600D01*
X151067200Y-76289600D01*
X152869200Y-76289600D01*
X152869200Y-78091600D01*
G37*
G36*
X154621712Y-76294527D02*
G01*
X154771012Y-76324224D01*
X154934984Y-76392144D01*
X155082554Y-76490747D01*
X155208053Y-76616246D01*
X155306656Y-76763816D01*
X155374576Y-76927788D01*
X155409200Y-77101859D01*
X155409200Y-77279341D01*
X155374576Y-77453412D01*
X155306656Y-77617384D01*
X155208053Y-77764954D01*
X155082554Y-77890453D01*
X154934984Y-77989056D01*
X154771012Y-78056976D01*
X154621712Y-78086673D01*
X154596942Y-78091600D01*
X154419458Y-78091600D01*
X154394688Y-78086673D01*
X154245388Y-78056976D01*
X154081416Y-77989056D01*
X153933846Y-77890453D01*
X153808347Y-77764954D01*
X153709744Y-77617384D01*
X153641824Y-77453412D01*
X153607200Y-77279341D01*
X153607200Y-77101859D01*
X153641824Y-76927788D01*
X153709744Y-76763816D01*
X153808347Y-76616246D01*
X153933846Y-76490747D01*
X154081416Y-76392144D01*
X154245388Y-76324224D01*
X154394688Y-76294527D01*
X154419458Y-76289600D01*
X154596942Y-76289600D01*
X154621712Y-76294527D01*
G37*
G36*
X157161712Y-76294527D02*
G01*
X157311012Y-76324224D01*
X157474984Y-76392144D01*
X157622554Y-76490747D01*
X157748053Y-76616246D01*
X157846656Y-76763816D01*
X157914576Y-76927788D01*
X157949200Y-77101859D01*
X157949200Y-77279341D01*
X157914576Y-77453412D01*
X157846656Y-77617384D01*
X157748053Y-77764954D01*
X157622554Y-77890453D01*
X157474984Y-77989056D01*
X157311012Y-78056976D01*
X157161712Y-78086673D01*
X157136942Y-78091600D01*
X156959458Y-78091600D01*
X156934688Y-78086673D01*
X156785388Y-78056976D01*
X156621416Y-77989056D01*
X156473846Y-77890453D01*
X156348347Y-77764954D01*
X156249744Y-77617384D01*
X156181824Y-77453412D01*
X156147200Y-77279341D01*
X156147200Y-77101859D01*
X156181824Y-76927788D01*
X156249744Y-76763816D01*
X156348347Y-76616246D01*
X156473846Y-76490747D01*
X156621416Y-76392144D01*
X156785388Y-76324224D01*
X156934688Y-76294527D01*
X156959458Y-76289600D01*
X157136942Y-76289600D01*
X157161712Y-76294527D01*
G37*
G36*
X191629512Y-75588407D02*
G01*
X191778812Y-75618104D01*
X191942784Y-75686024D01*
X192090354Y-75784627D01*
X192215853Y-75910126D01*
X192314456Y-76057696D01*
X192382376Y-76221668D01*
X192417000Y-76395739D01*
X192417000Y-76573221D01*
X192382376Y-76747292D01*
X192314456Y-76911264D01*
X192215853Y-77058834D01*
X192090354Y-77184333D01*
X191942784Y-77282936D01*
X191778812Y-77350856D01*
X191629512Y-77380553D01*
X191604742Y-77385480D01*
X191427258Y-77385480D01*
X191402488Y-77380553D01*
X191253188Y-77350856D01*
X191089216Y-77282936D01*
X190941646Y-77184333D01*
X190816147Y-77058834D01*
X190717544Y-76911264D01*
X190649624Y-76747292D01*
X190615000Y-76573221D01*
X190615000Y-76395739D01*
X190649624Y-76221668D01*
X190717544Y-76057696D01*
X190816147Y-75910126D01*
X190941646Y-75784627D01*
X191089216Y-75686024D01*
X191253188Y-75618104D01*
X191402488Y-75588407D01*
X191427258Y-75583480D01*
X191604742Y-75583480D01*
X191629512Y-75588407D01*
G37*
G36*
X189089512Y-75588407D02*
G01*
X189238812Y-75618104D01*
X189402784Y-75686024D01*
X189550354Y-75784627D01*
X189675853Y-75910126D01*
X189774456Y-76057696D01*
X189842376Y-76221668D01*
X189877000Y-76395739D01*
X189877000Y-76573221D01*
X189842376Y-76747292D01*
X189774456Y-76911264D01*
X189675853Y-77058834D01*
X189550354Y-77184333D01*
X189402784Y-77282936D01*
X189238812Y-77350856D01*
X189089512Y-77380553D01*
X189064742Y-77385480D01*
X188887258Y-77385480D01*
X188862488Y-77380553D01*
X188713188Y-77350856D01*
X188549216Y-77282936D01*
X188401646Y-77184333D01*
X188276147Y-77058834D01*
X188177544Y-76911264D01*
X188109624Y-76747292D01*
X188075000Y-76573221D01*
X188075000Y-76395739D01*
X188109624Y-76221668D01*
X188177544Y-76057696D01*
X188276147Y-75910126D01*
X188401646Y-75784627D01*
X188549216Y-75686024D01*
X188713188Y-75618104D01*
X188862488Y-75588407D01*
X188887258Y-75583480D01*
X189064742Y-75583480D01*
X189089512Y-75588407D01*
G37*
G36*
X147603703Y-75109299D02*
G01*
X147669887Y-75115817D01*
X147839726Y-75167337D01*
X147996251Y-75251002D01*
X148031989Y-75280332D01*
X148133446Y-75363594D01*
X148203582Y-75449056D01*
X148246038Y-75500789D01*
X148329703Y-75657314D01*
X148381223Y-75827153D01*
X148398619Y-76003780D01*
X148381223Y-76180407D01*
X148329703Y-76350246D01*
X148246038Y-76506771D01*
X148216708Y-76542509D01*
X148133446Y-76643966D01*
X148031989Y-76727228D01*
X147996251Y-76756558D01*
X147839726Y-76840223D01*
X147669887Y-76891743D01*
X147603702Y-76898262D01*
X147537520Y-76904780D01*
X147199000Y-76904780D01*
X147132818Y-76898262D01*
X147066633Y-76891743D01*
X146896794Y-76840223D01*
X146740269Y-76756558D01*
X146704531Y-76727228D01*
X146603074Y-76643966D01*
X146519812Y-76542509D01*
X146490482Y-76506771D01*
X146406817Y-76350246D01*
X146355297Y-76180407D01*
X146337901Y-76003780D01*
X146355297Y-75827153D01*
X146406817Y-75657314D01*
X146490482Y-75500789D01*
X146532938Y-75449056D01*
X146603074Y-75363594D01*
X146704531Y-75280332D01*
X146740269Y-75251002D01*
X146896794Y-75167337D01*
X147066633Y-75115817D01*
X147132817Y-75109299D01*
X147199000Y-75102780D01*
X147537520Y-75102780D01*
X147603703Y-75109299D01*
G37*
G36*
X142676103Y-75109299D02*
G01*
X142742287Y-75115817D01*
X142912126Y-75167337D01*
X143068651Y-75251002D01*
X143104389Y-75280332D01*
X143205846Y-75363594D01*
X143275982Y-75449056D01*
X143318438Y-75500789D01*
X143402103Y-75657314D01*
X143453623Y-75827153D01*
X143471019Y-76003780D01*
X143453623Y-76180407D01*
X143402103Y-76350246D01*
X143318438Y-76506771D01*
X143289108Y-76542509D01*
X143205846Y-76643966D01*
X143104389Y-76727228D01*
X143068651Y-76756558D01*
X142912126Y-76840223D01*
X142742287Y-76891743D01*
X142676102Y-76898262D01*
X142609920Y-76904780D01*
X142271400Y-76904780D01*
X142205218Y-76898262D01*
X142139033Y-76891743D01*
X141969194Y-76840223D01*
X141812669Y-76756558D01*
X141776931Y-76727228D01*
X141675474Y-76643966D01*
X141592212Y-76542509D01*
X141562882Y-76506771D01*
X141479217Y-76350246D01*
X141427697Y-76180407D01*
X141410301Y-76003780D01*
X141427697Y-75827153D01*
X141479217Y-75657314D01*
X141562882Y-75500789D01*
X141605338Y-75449056D01*
X141675474Y-75363594D01*
X141776931Y-75280332D01*
X141812669Y-75251002D01*
X141969194Y-75167337D01*
X142139033Y-75115817D01*
X142205217Y-75109299D01*
X142271400Y-75102780D01*
X142609920Y-75102780D01*
X142676103Y-75109299D01*
G37*
G36*
X152081712Y-73754527D02*
G01*
X152231012Y-73784224D01*
X152394984Y-73852144D01*
X152542554Y-73950747D01*
X152668053Y-74076246D01*
X152766656Y-74223816D01*
X152834576Y-74387788D01*
X152869200Y-74561859D01*
X152869200Y-74739341D01*
X152834576Y-74913412D01*
X152766656Y-75077384D01*
X152668053Y-75224954D01*
X152542554Y-75350453D01*
X152394984Y-75449056D01*
X152231012Y-75516976D01*
X152081712Y-75546673D01*
X152056942Y-75551600D01*
X151879458Y-75551600D01*
X151854688Y-75546673D01*
X151705388Y-75516976D01*
X151541416Y-75449056D01*
X151393846Y-75350453D01*
X151268347Y-75224954D01*
X151169744Y-75077384D01*
X151101824Y-74913412D01*
X151067200Y-74739341D01*
X151067200Y-74561859D01*
X151101824Y-74387788D01*
X151169744Y-74223816D01*
X151268347Y-74076246D01*
X151393846Y-73950747D01*
X151541416Y-73852144D01*
X151705388Y-73784224D01*
X151854688Y-73754527D01*
X151879458Y-73749600D01*
X152056942Y-73749600D01*
X152081712Y-73754527D01*
G37*
G36*
X154621712Y-73754527D02*
G01*
X154771012Y-73784224D01*
X154934984Y-73852144D01*
X155082554Y-73950747D01*
X155208053Y-74076246D01*
X155306656Y-74223816D01*
X155374576Y-74387788D01*
X155409200Y-74561859D01*
X155409200Y-74739341D01*
X155374576Y-74913412D01*
X155306656Y-75077384D01*
X155208053Y-75224954D01*
X155082554Y-75350453D01*
X154934984Y-75449056D01*
X154771012Y-75516976D01*
X154621712Y-75546673D01*
X154596942Y-75551600D01*
X154419458Y-75551600D01*
X154394688Y-75546673D01*
X154245388Y-75516976D01*
X154081416Y-75449056D01*
X153933846Y-75350453D01*
X153808347Y-75224954D01*
X153709744Y-75077384D01*
X153641824Y-74913412D01*
X153607200Y-74739341D01*
X153607200Y-74561859D01*
X153641824Y-74387788D01*
X153709744Y-74223816D01*
X153808347Y-74076246D01*
X153933846Y-73950747D01*
X154081416Y-73852144D01*
X154245388Y-73784224D01*
X154394688Y-73754527D01*
X154419458Y-73749600D01*
X154596942Y-73749600D01*
X154621712Y-73754527D01*
G37*
G36*
X157161712Y-73754527D02*
G01*
X157311012Y-73784224D01*
X157474984Y-73852144D01*
X157622554Y-73950747D01*
X157748053Y-74076246D01*
X157846656Y-74223816D01*
X157914576Y-74387788D01*
X157949200Y-74561859D01*
X157949200Y-74739341D01*
X157914576Y-74913412D01*
X157846656Y-75077384D01*
X157748053Y-75224954D01*
X157622554Y-75350453D01*
X157474984Y-75449056D01*
X157311012Y-75516976D01*
X157161712Y-75546673D01*
X157136942Y-75551600D01*
X156959458Y-75551600D01*
X156934688Y-75546673D01*
X156785388Y-75516976D01*
X156621416Y-75449056D01*
X156473846Y-75350453D01*
X156348347Y-75224954D01*
X156249744Y-75077384D01*
X156181824Y-74913412D01*
X156147200Y-74739341D01*
X156147200Y-74561859D01*
X156181824Y-74387788D01*
X156249744Y-74223816D01*
X156348347Y-74076246D01*
X156473846Y-73950747D01*
X156621416Y-73852144D01*
X156785388Y-73784224D01*
X156934688Y-73754527D01*
X156959458Y-73749600D01*
X157136942Y-73749600D01*
X157161712Y-73754527D01*
G37*
G36*
X191629512Y-73048407D02*
G01*
X191778812Y-73078104D01*
X191942784Y-73146024D01*
X192090354Y-73244627D01*
X192215853Y-73370126D01*
X192314456Y-73517696D01*
X192382376Y-73681668D01*
X192395888Y-73749600D01*
X192415908Y-73850246D01*
X192417000Y-73855739D01*
X192417000Y-74033221D01*
X192382376Y-74207292D01*
X192314456Y-74371264D01*
X192215853Y-74518834D01*
X192090354Y-74644333D01*
X191942784Y-74742936D01*
X191778812Y-74810856D01*
X191629512Y-74840553D01*
X191604742Y-74845480D01*
X191427258Y-74845480D01*
X191402488Y-74840553D01*
X191253188Y-74810856D01*
X191089216Y-74742936D01*
X190941646Y-74644333D01*
X190816147Y-74518834D01*
X190717544Y-74371264D01*
X190649624Y-74207292D01*
X190615000Y-74033221D01*
X190615000Y-73855739D01*
X190616093Y-73850246D01*
X190636112Y-73749600D01*
X190649624Y-73681668D01*
X190717544Y-73517696D01*
X190816147Y-73370126D01*
X190941646Y-73244627D01*
X191089216Y-73146024D01*
X191253188Y-73078104D01*
X191402488Y-73048407D01*
X191427258Y-73043480D01*
X191604742Y-73043480D01*
X191629512Y-73048407D01*
G37*
G36*
X189877000Y-74845480D02*
G01*
X188075000Y-74845480D01*
X188075000Y-73043480D01*
X189877000Y-73043480D01*
X189877000Y-74845480D01*
G37*
G36*
X142676103Y-72609299D02*
G01*
X142742287Y-72615817D01*
X142912126Y-72667337D01*
X143068651Y-72751002D01*
X143104389Y-72780332D01*
X143205846Y-72863594D01*
X143289108Y-72965051D01*
X143318438Y-73000789D01*
X143402103Y-73157314D01*
X143453623Y-73327153D01*
X143471019Y-73503780D01*
X143453623Y-73680407D01*
X143422130Y-73784225D01*
X143402102Y-73850248D01*
X143399167Y-73855739D01*
X143318438Y-74006771D01*
X143296731Y-74033221D01*
X143205846Y-74143966D01*
X143108547Y-74223816D01*
X143068651Y-74256558D01*
X142912126Y-74340223D01*
X142742287Y-74391743D01*
X142676103Y-74398261D01*
X142609920Y-74404780D01*
X142271400Y-74404780D01*
X142205217Y-74398261D01*
X142139033Y-74391743D01*
X141969194Y-74340223D01*
X141812669Y-74256558D01*
X141772773Y-74223816D01*
X141675474Y-74143966D01*
X141584589Y-74033221D01*
X141562882Y-74006771D01*
X141482153Y-73855739D01*
X141479218Y-73850248D01*
X141459190Y-73784225D01*
X141427697Y-73680407D01*
X141410301Y-73503780D01*
X141427697Y-73327153D01*
X141479217Y-73157314D01*
X141562882Y-73000789D01*
X141592212Y-72965051D01*
X141675474Y-72863594D01*
X141776931Y-72780332D01*
X141812669Y-72751002D01*
X141969194Y-72667337D01*
X142139033Y-72615817D01*
X142205217Y-72609299D01*
X142271400Y-72602780D01*
X142609920Y-72602780D01*
X142676103Y-72609299D01*
G37*
G36*
X147603703Y-72609299D02*
G01*
X147669887Y-72615817D01*
X147839726Y-72667337D01*
X147996251Y-72751002D01*
X148031989Y-72780332D01*
X148133446Y-72863594D01*
X148216708Y-72965051D01*
X148246038Y-73000789D01*
X148329703Y-73157314D01*
X148381223Y-73327153D01*
X148398619Y-73503780D01*
X148381223Y-73680407D01*
X148349730Y-73784225D01*
X148329702Y-73850248D01*
X148326767Y-73855739D01*
X148246038Y-74006771D01*
X148224331Y-74033221D01*
X148133446Y-74143966D01*
X148036147Y-74223816D01*
X147996251Y-74256558D01*
X147839726Y-74340223D01*
X147669887Y-74391743D01*
X147603703Y-74398261D01*
X147537520Y-74404780D01*
X147199000Y-74404780D01*
X147132817Y-74398261D01*
X147066633Y-74391743D01*
X146896794Y-74340223D01*
X146740269Y-74256558D01*
X146700373Y-74223816D01*
X146603074Y-74143966D01*
X146512189Y-74033221D01*
X146490482Y-74006771D01*
X146409753Y-73855739D01*
X146406818Y-73850248D01*
X146386790Y-73784225D01*
X146355297Y-73680407D01*
X146337901Y-73503780D01*
X146355297Y-73327153D01*
X146406817Y-73157314D01*
X146490482Y-73000789D01*
X146519812Y-72965051D01*
X146603074Y-72863594D01*
X146704531Y-72780332D01*
X146740269Y-72751002D01*
X146896794Y-72667337D01*
X147066633Y-72615817D01*
X147132817Y-72609299D01*
X147199000Y-72602780D01*
X147537520Y-72602780D01*
X147603703Y-72609299D01*
G37*
G36*
X168535922Y-71055901D02*
G01*
X168681694Y-71116282D01*
X168681696Y-71116283D01*
X168812888Y-71203942D01*
X168924458Y-71315512D01*
X169012117Y-71446704D01*
X169012118Y-71446706D01*
X169072499Y-71592478D01*
X169103280Y-71747227D01*
X169103280Y-71905013D01*
X169072499Y-72059762D01*
X169012118Y-72205534D01*
X169012117Y-72205536D01*
X168924458Y-72336728D01*
X168812888Y-72448298D01*
X168681696Y-72535957D01*
X168681695Y-72535958D01*
X168681694Y-72535958D01*
X168535922Y-72596339D01*
X168381173Y-72627120D01*
X168223387Y-72627120D01*
X168068638Y-72596339D01*
X167922866Y-72535958D01*
X167922865Y-72535958D01*
X167922864Y-72535957D01*
X167791672Y-72448298D01*
X167680102Y-72336728D01*
X167592443Y-72205536D01*
X167592442Y-72205534D01*
X167532061Y-72059762D01*
X167501280Y-71905013D01*
X167501280Y-71747227D01*
X167532061Y-71592478D01*
X167592442Y-71446706D01*
X167592443Y-71446704D01*
X167680102Y-71315512D01*
X167791672Y-71203942D01*
X167922864Y-71116283D01*
X167922866Y-71116282D01*
X168068638Y-71055901D01*
X168223387Y-71025120D01*
X168381173Y-71025120D01*
X168535922Y-71055901D01*
G37*
G36*
X173415922Y-71055901D02*
G01*
X173561694Y-71116282D01*
X173561696Y-71116283D01*
X173692888Y-71203942D01*
X173804458Y-71315512D01*
X173892117Y-71446704D01*
X173892118Y-71446706D01*
X173952499Y-71592478D01*
X173983280Y-71747227D01*
X173983280Y-71905013D01*
X173952499Y-72059762D01*
X173892118Y-72205534D01*
X173892117Y-72205536D01*
X173804458Y-72336728D01*
X173692888Y-72448298D01*
X173561696Y-72535957D01*
X173561695Y-72535958D01*
X173561694Y-72535958D01*
X173415922Y-72596339D01*
X173261173Y-72627120D01*
X173103387Y-72627120D01*
X172948638Y-72596339D01*
X172802866Y-72535958D01*
X172802865Y-72535958D01*
X172802864Y-72535957D01*
X172671672Y-72448298D01*
X172560102Y-72336728D01*
X172472443Y-72205536D01*
X172472442Y-72205534D01*
X172412061Y-72059762D01*
X172381280Y-71905013D01*
X172381280Y-71747227D01*
X172412061Y-71592478D01*
X172472442Y-71446706D01*
X172472443Y-71446704D01*
X172560102Y-71315512D01*
X172671672Y-71203942D01*
X172802864Y-71116283D01*
X172802866Y-71116282D01*
X172948638Y-71055901D01*
X173103387Y-71025120D01*
X173261173Y-71025120D01*
X173415922Y-71055901D01*
G37*
G36*
X142676102Y-70109298D02*
G01*
X142742287Y-70115817D01*
X142912126Y-70167337D01*
X143068651Y-70251002D01*
X143096701Y-70274022D01*
X143205846Y-70363594D01*
X143289108Y-70465051D01*
X143318438Y-70500789D01*
X143318439Y-70500791D01*
X143392943Y-70640176D01*
X143402103Y-70657314D01*
X143453623Y-70827153D01*
X143471019Y-71003780D01*
X143453623Y-71180407D01*
X143402103Y-71350246D01*
X143318438Y-71506771D01*
X143289108Y-71542509D01*
X143205846Y-71643966D01*
X143104389Y-71727228D01*
X143068651Y-71756558D01*
X142912126Y-71840223D01*
X142742287Y-71891743D01*
X142676102Y-71898262D01*
X142609920Y-71904780D01*
X142271400Y-71904780D01*
X142205218Y-71898262D01*
X142139033Y-71891743D01*
X141969194Y-71840223D01*
X141812669Y-71756558D01*
X141776931Y-71727228D01*
X141675474Y-71643966D01*
X141592212Y-71542509D01*
X141562882Y-71506771D01*
X141479217Y-71350246D01*
X141427697Y-71180407D01*
X141410301Y-71003780D01*
X141427697Y-70827153D01*
X141479217Y-70657314D01*
X141488378Y-70640176D01*
X141562881Y-70500791D01*
X141562882Y-70500789D01*
X141592212Y-70465051D01*
X141675474Y-70363594D01*
X141784619Y-70274022D01*
X141812669Y-70251002D01*
X141969194Y-70167337D01*
X142139033Y-70115817D01*
X142205218Y-70109298D01*
X142271400Y-70102780D01*
X142609920Y-70102780D01*
X142676102Y-70109298D01*
G37*
G36*
X147603702Y-70109298D02*
G01*
X147669887Y-70115817D01*
X147839726Y-70167337D01*
X147996251Y-70251002D01*
X148024301Y-70274022D01*
X148133446Y-70363594D01*
X148216708Y-70465051D01*
X148246038Y-70500789D01*
X148246039Y-70500791D01*
X148320543Y-70640176D01*
X148329703Y-70657314D01*
X148381223Y-70827153D01*
X148398619Y-71003780D01*
X148381223Y-71180407D01*
X148329703Y-71350246D01*
X148246038Y-71506771D01*
X148216708Y-71542509D01*
X148133446Y-71643966D01*
X148031989Y-71727228D01*
X147996251Y-71756558D01*
X147839726Y-71840223D01*
X147669887Y-71891743D01*
X147603702Y-71898262D01*
X147537520Y-71904780D01*
X147199000Y-71904780D01*
X147132818Y-71898262D01*
X147066633Y-71891743D01*
X146896794Y-71840223D01*
X146740269Y-71756558D01*
X146704531Y-71727228D01*
X146603074Y-71643966D01*
X146519812Y-71542509D01*
X146490482Y-71506771D01*
X146406817Y-71350246D01*
X146355297Y-71180407D01*
X146337901Y-71003780D01*
X146355297Y-70827153D01*
X146406817Y-70657314D01*
X146415978Y-70640176D01*
X146490481Y-70500791D01*
X146490482Y-70500789D01*
X146519812Y-70465051D01*
X146603074Y-70363594D01*
X146712219Y-70274022D01*
X146740269Y-70251002D01*
X146896794Y-70167337D01*
X147066633Y-70115817D01*
X147132818Y-70109298D01*
X147199000Y-70102780D01*
X147537520Y-70102780D01*
X147603702Y-70109298D01*
G37*
G36*
X189038712Y-69289207D02*
G01*
X189188012Y-69318904D01*
X189351984Y-69386824D01*
X189499554Y-69485427D01*
X189625053Y-69610926D01*
X189723656Y-69758496D01*
X189791576Y-69922468D01*
X189826200Y-70096539D01*
X189826200Y-70274021D01*
X189791576Y-70448092D01*
X189723656Y-70612064D01*
X189625053Y-70759634D01*
X189499554Y-70885133D01*
X189351984Y-70983736D01*
X189188012Y-71051656D01*
X189038712Y-71081353D01*
X189013942Y-71086280D01*
X188836458Y-71086280D01*
X188811688Y-71081353D01*
X188662388Y-71051656D01*
X188498416Y-70983736D01*
X188350846Y-70885133D01*
X188225347Y-70759634D01*
X188126744Y-70612064D01*
X188058824Y-70448092D01*
X188024200Y-70274021D01*
X188024200Y-70096539D01*
X188058824Y-69922468D01*
X188126744Y-69758496D01*
X188225347Y-69610926D01*
X188350846Y-69485427D01*
X188498416Y-69386824D01*
X188662388Y-69318904D01*
X188811688Y-69289207D01*
X188836458Y-69284280D01*
X189013942Y-69284280D01*
X189038712Y-69289207D01*
G37*
G36*
X191578712Y-69289207D02*
G01*
X191728012Y-69318904D01*
X191891984Y-69386824D01*
X192039554Y-69485427D01*
X192165053Y-69610926D01*
X192263656Y-69758496D01*
X192331576Y-69922468D01*
X192366200Y-70096539D01*
X192366200Y-70274021D01*
X192331576Y-70448092D01*
X192263656Y-70612064D01*
X192165053Y-70759634D01*
X192039554Y-70885133D01*
X191891984Y-70983736D01*
X191728012Y-71051656D01*
X191578712Y-71081353D01*
X191553942Y-71086280D01*
X191376458Y-71086280D01*
X191351688Y-71081353D01*
X191202388Y-71051656D01*
X191038416Y-70983736D01*
X190890846Y-70885133D01*
X190765347Y-70759634D01*
X190666744Y-70612064D01*
X190598824Y-70448092D01*
X190564200Y-70274021D01*
X190564200Y-70096539D01*
X190598824Y-69922468D01*
X190666744Y-69758496D01*
X190765347Y-69610926D01*
X190890846Y-69485427D01*
X191038416Y-69386824D01*
X191202388Y-69318904D01*
X191351688Y-69289207D01*
X191376458Y-69284280D01*
X191553942Y-69284280D01*
X191578712Y-69289207D01*
G37*
G36*
X186498712Y-69289207D02*
G01*
X186648012Y-69318904D01*
X186811984Y-69386824D01*
X186959554Y-69485427D01*
X187085053Y-69610926D01*
X187183656Y-69758496D01*
X187251576Y-69922468D01*
X187286200Y-70096539D01*
X187286200Y-70274021D01*
X187251576Y-70448092D01*
X187183656Y-70612064D01*
X187085053Y-70759634D01*
X186959554Y-70885133D01*
X186811984Y-70983736D01*
X186648012Y-71051656D01*
X186498712Y-71081353D01*
X186473942Y-71086280D01*
X186296458Y-71086280D01*
X186271688Y-71081353D01*
X186122388Y-71051656D01*
X185958416Y-70983736D01*
X185810846Y-70885133D01*
X185685347Y-70759634D01*
X185586744Y-70612064D01*
X185518824Y-70448092D01*
X185484200Y-70274021D01*
X185484200Y-70096539D01*
X185518824Y-69922468D01*
X185586744Y-69758496D01*
X185685347Y-69610926D01*
X185810846Y-69485427D01*
X185958416Y-69386824D01*
X186122388Y-69318904D01*
X186271688Y-69289207D01*
X186296458Y-69284280D01*
X186473942Y-69284280D01*
X186498712Y-69289207D01*
G37*
G36*
X184746200Y-71086280D02*
G01*
X182944200Y-71086280D01*
X182944200Y-69284280D01*
X184746200Y-69284280D01*
X184746200Y-71086280D01*
G37*
G36*
X152035992Y-68877727D02*
G01*
X152185292Y-68907424D01*
X152349264Y-68975344D01*
X152496834Y-69073947D01*
X152622333Y-69199446D01*
X152720936Y-69347016D01*
X152788856Y-69510988D01*
X152823480Y-69685059D01*
X152823480Y-69862541D01*
X152788856Y-70036612D01*
X152720936Y-70200584D01*
X152622333Y-70348154D01*
X152496834Y-70473653D01*
X152349264Y-70572256D01*
X152185292Y-70640176D01*
X152035992Y-70669873D01*
X152011222Y-70674800D01*
X151833738Y-70674800D01*
X151808968Y-70669873D01*
X151659668Y-70640176D01*
X151495696Y-70572256D01*
X151348126Y-70473653D01*
X151222627Y-70348154D01*
X151124024Y-70200584D01*
X151056104Y-70036612D01*
X151021480Y-69862541D01*
X151021480Y-69685059D01*
X151056104Y-69510988D01*
X151124024Y-69347016D01*
X151222627Y-69199446D01*
X151348126Y-69073947D01*
X151495696Y-68975344D01*
X151659668Y-68907424D01*
X151808968Y-68877727D01*
X151833738Y-68872800D01*
X152011222Y-68872800D01*
X152035992Y-68877727D01*
G37*
G36*
X154575992Y-68877727D02*
G01*
X154725292Y-68907424D01*
X154889264Y-68975344D01*
X155036834Y-69073947D01*
X155162333Y-69199446D01*
X155260936Y-69347016D01*
X155328856Y-69510988D01*
X155363480Y-69685059D01*
X155363480Y-69862541D01*
X155328856Y-70036612D01*
X155260936Y-70200584D01*
X155162333Y-70348154D01*
X155036834Y-70473653D01*
X154889264Y-70572256D01*
X154725292Y-70640176D01*
X154575992Y-70669873D01*
X154551222Y-70674800D01*
X154373738Y-70674800D01*
X154348968Y-70669873D01*
X154199668Y-70640176D01*
X154035696Y-70572256D01*
X153888126Y-70473653D01*
X153762627Y-70348154D01*
X153664024Y-70200584D01*
X153596104Y-70036612D01*
X153561480Y-69862541D01*
X153561480Y-69685059D01*
X153596104Y-69510988D01*
X153664024Y-69347016D01*
X153762627Y-69199446D01*
X153888126Y-69073947D01*
X154035696Y-68975344D01*
X154199668Y-68907424D01*
X154348968Y-68877727D01*
X154373738Y-68872800D01*
X154551222Y-68872800D01*
X154575992Y-68877727D01*
G37*
G36*
X157115992Y-68877727D02*
G01*
X157265292Y-68907424D01*
X157429264Y-68975344D01*
X157576834Y-69073947D01*
X157702333Y-69199446D01*
X157800936Y-69347016D01*
X157868856Y-69510988D01*
X157903480Y-69685059D01*
X157903480Y-69862541D01*
X157868856Y-70036612D01*
X157800936Y-70200584D01*
X157702333Y-70348154D01*
X157576834Y-70473653D01*
X157429264Y-70572256D01*
X157265292Y-70640176D01*
X157115992Y-70669873D01*
X157091222Y-70674800D01*
X156913738Y-70674800D01*
X156888968Y-70669873D01*
X156739668Y-70640176D01*
X156575696Y-70572256D01*
X156428126Y-70473653D01*
X156302627Y-70348154D01*
X156204024Y-70200584D01*
X156136104Y-70036612D01*
X156101480Y-69862541D01*
X156101480Y-69685059D01*
X156136104Y-69510988D01*
X156204024Y-69347016D01*
X156302627Y-69199446D01*
X156428126Y-69073947D01*
X156575696Y-68975344D01*
X156739668Y-68907424D01*
X156888968Y-68877727D01*
X156913738Y-68872800D01*
X157091222Y-68872800D01*
X157115992Y-68877727D01*
G37*
G36*
X160443480Y-70674800D02*
G01*
X158641480Y-70674800D01*
X158641480Y-68872800D01*
X160443480Y-68872800D01*
X160443480Y-70674800D01*
G37*
G36*
X153482600Y-52619680D02*
G01*
X148980600Y-52619680D01*
X148980600Y-50717680D01*
X153482600Y-50717680D01*
X153482600Y-52619680D01*
G37*
G36*
X146618025Y-46631440D02*
G01*
X146618028Y-46631441D01*
X146618029Y-46631441D01*
X146797293Y-46685820D01*
X146797296Y-46685822D01*
X146797297Y-46685822D01*
X146962503Y-46774126D01*
X147107312Y-46892968D01*
X147226154Y-47037777D01*
X147314458Y-47202983D01*
X147314460Y-47202987D01*
X147368839Y-47382251D01*
X147368840Y-47382255D01*
X147382600Y-47521962D01*
X147382600Y-49815398D01*
X147368840Y-49955105D01*
X147368839Y-49955108D01*
X147368839Y-49955109D01*
X147314460Y-50134373D01*
X147314458Y-50134376D01*
X147314458Y-50134377D01*
X147226154Y-50299583D01*
X147107312Y-50444392D01*
X146962503Y-50563234D01*
X146797296Y-50651538D01*
X146797292Y-50651540D01*
X146618028Y-50705919D01*
X146618027Y-50705919D01*
X146618024Y-50705920D01*
X146431600Y-50724281D01*
X146245175Y-50705920D01*
X146245172Y-50705919D01*
X146245171Y-50705919D01*
X146065907Y-50651540D01*
X146065903Y-50651538D01*
X145900697Y-50563234D01*
X145755888Y-50444392D01*
X145637046Y-50299583D01*
X145548742Y-50134376D01*
X145548741Y-50134373D01*
X145548740Y-50134372D01*
X145494361Y-49955108D01*
X145494361Y-49955107D01*
X145494360Y-49955104D01*
X145480600Y-49815397D01*
X145480601Y-47521962D01*
X145494361Y-47382255D01*
X145494362Y-47382251D01*
X145548741Y-47202987D01*
X145548743Y-47202983D01*
X145637047Y-47037777D01*
X145755889Y-46892968D01*
X145900698Y-46774126D01*
X146065904Y-46685822D01*
X146065905Y-46685822D01*
X146065908Y-46685820D01*
X146245172Y-46631441D01*
X146245173Y-46631441D01*
X146245176Y-46631440D01*
X146431600Y-46613079D01*
X146618025Y-46631440D01*
G37*
G36*
X174359672Y-45796691D02*
G01*
X174441747Y-45830688D01*
X174441749Y-45830689D01*
X174478933Y-45855535D01*
X174515615Y-45880045D01*
X174578435Y-45942865D01*
X174627792Y-46016733D01*
X174661789Y-46098808D01*
X174679120Y-46185939D01*
X174679120Y-46274781D01*
X174661789Y-46361912D01*
X174627792Y-46443987D01*
X174578519Y-46517730D01*
X174578434Y-46517856D01*
X174515616Y-46580674D01*
X174441749Y-46630031D01*
X174441748Y-46630032D01*
X174441747Y-46630032D01*
X174359672Y-46664029D01*
X174272541Y-46681360D01*
X174183699Y-46681360D01*
X174096568Y-46664029D01*
X174014493Y-46630032D01*
X174014492Y-46630032D01*
X174014491Y-46630031D01*
X173940624Y-46580674D01*
X173925072Y-46565122D01*
X173906130Y-46549577D01*
X173884519Y-46538026D01*
X173861070Y-46530913D01*
X173836684Y-46528511D01*
X173812298Y-46530913D01*
X173788849Y-46538026D01*
X173767238Y-46549577D01*
X173748296Y-46565122D01*
X173732751Y-46584064D01*
X173721200Y-46605675D01*
X173714087Y-46629124D01*
X173711685Y-46653510D01*
X173714087Y-46677896D01*
X173721200Y-46701345D01*
X173722916Y-46704974D01*
X173767892Y-46853239D01*
X173779120Y-46967242D01*
X173779120Y-47593478D01*
X173767892Y-47707481D01*
X173723518Y-47853762D01*
X173651465Y-47988564D01*
X173554487Y-48106732D01*
X173436326Y-48203703D01*
X173301521Y-48275758D01*
X173155240Y-48320132D01*
X173003120Y-48335114D01*
X172850999Y-48320132D01*
X172704718Y-48275758D01*
X172569916Y-48203705D01*
X172451748Y-48106727D01*
X172354777Y-47988566D01*
X172282722Y-47853761D01*
X172238348Y-47707480D01*
X172227120Y-47593477D01*
X172227120Y-46967242D01*
X172238348Y-46853239D01*
X172282721Y-46706960D01*
X172354777Y-46572154D01*
X172451752Y-46453991D01*
X172493483Y-46419743D01*
X172569913Y-46357018D01*
X172569914Y-46357017D01*
X172569917Y-46357015D01*
X172704719Y-46284962D01*
X172851000Y-46240588D01*
X173003120Y-46225606D01*
X173155241Y-46240588D01*
X173301522Y-46284962D01*
X173436324Y-46357015D01*
X173554492Y-46453993D01*
X173581408Y-46486790D01*
X173598735Y-46504117D01*
X173619109Y-46517730D01*
X173641748Y-46527108D01*
X173665781Y-46531888D01*
X173690285Y-46531888D01*
X173714319Y-46527108D01*
X173736957Y-46517730D01*
X173757332Y-46504116D01*
X173774659Y-46486789D01*
X173788272Y-46466415D01*
X173797650Y-46443776D01*
X173802430Y-46419743D01*
X173802430Y-46395239D01*
X173797650Y-46371205D01*
X173794610Y-46362711D01*
X173777120Y-46274781D01*
X173777120Y-46185939D01*
X173794451Y-46098808D01*
X173828448Y-46016733D01*
X173877805Y-45942865D01*
X173940625Y-45880045D01*
X173977307Y-45855535D01*
X174014491Y-45830689D01*
X174014493Y-45830688D01*
X174096568Y-45796691D01*
X174183699Y-45779360D01*
X174272541Y-45779360D01*
X174359672Y-45796691D01*
G37*
G36*
X179359672Y-45796691D02*
G01*
X179441747Y-45830688D01*
X179441749Y-45830689D01*
X179478933Y-45855535D01*
X179515615Y-45880045D01*
X179578435Y-45942865D01*
X179627792Y-46016733D01*
X179661789Y-46098808D01*
X179679120Y-46185939D01*
X179679120Y-46274781D01*
X179661313Y-46364306D01*
X179655610Y-46383103D01*
X179653207Y-46407489D01*
X179655608Y-46431875D01*
X179662720Y-46455324D01*
X179674271Y-46476935D01*
X179689815Y-46495878D01*
X179708757Y-46511423D01*
X179730367Y-46522975D01*
X179753816Y-46530089D01*
X179778202Y-46532492D01*
X179802588Y-46530091D01*
X179826037Y-46522979D01*
X179847648Y-46511428D01*
X179866591Y-46495884D01*
X179874831Y-46486792D01*
X179901748Y-46453994D01*
X180019917Y-46357015D01*
X180154719Y-46284962D01*
X180301000Y-46240588D01*
X180453120Y-46225606D01*
X180605241Y-46240588D01*
X180751522Y-46284962D01*
X180886324Y-46357015D01*
X180886327Y-46357017D01*
X180886328Y-46357018D01*
X181004489Y-46453991D01*
X181095693Y-46565122D01*
X181101465Y-46572156D01*
X181173518Y-46706958D01*
X181217892Y-46853239D01*
X181229120Y-46967242D01*
X181229120Y-47593478D01*
X181217892Y-47707481D01*
X181173518Y-47853762D01*
X181101465Y-47988564D01*
X181004487Y-48106732D01*
X180886326Y-48203703D01*
X180751521Y-48275758D01*
X180605240Y-48320132D01*
X180453120Y-48335114D01*
X180300999Y-48320132D01*
X180154718Y-48275758D01*
X180019916Y-48203705D01*
X179901748Y-48106727D01*
X179804777Y-47988566D01*
X179732722Y-47853761D01*
X179688348Y-47707480D01*
X179677120Y-47593477D01*
X179677120Y-46967242D01*
X179688348Y-46853239D01*
X179734522Y-46701024D01*
X179739172Y-46689799D01*
X179743953Y-46665765D01*
X179743953Y-46641261D01*
X179739174Y-46617228D01*
X179729797Y-46594589D01*
X179716184Y-46574214D01*
X179698857Y-46556887D01*
X179678483Y-46543272D01*
X179655845Y-46533894D01*
X179631811Y-46529113D01*
X179607307Y-46529113D01*
X179583274Y-46533892D01*
X179560635Y-46543269D01*
X179540260Y-46556882D01*
X179531168Y-46565122D01*
X179515616Y-46580674D01*
X179441749Y-46630031D01*
X179441748Y-46630032D01*
X179441747Y-46630032D01*
X179359672Y-46664029D01*
X179272541Y-46681360D01*
X179183699Y-46681360D01*
X179096568Y-46664029D01*
X179014493Y-46630032D01*
X179014492Y-46630032D01*
X179014491Y-46630031D01*
X178940624Y-46580674D01*
X178877806Y-46517856D01*
X178877722Y-46517730D01*
X178828448Y-46443987D01*
X178794451Y-46361912D01*
X178777120Y-46274781D01*
X178777120Y-46185939D01*
X178794451Y-46098808D01*
X178828448Y-46016733D01*
X178877805Y-45942865D01*
X178940625Y-45880045D01*
X178977307Y-45855535D01*
X179014491Y-45830689D01*
X179014493Y-45830688D01*
X179096568Y-45796691D01*
X179183699Y-45779360D01*
X179272541Y-45779360D01*
X179359672Y-45796691D01*
G37*
G36*
X152518025Y-44931440D02*
G01*
X152518028Y-44931441D01*
X152518029Y-44931441D01*
X152697293Y-44985820D01*
X152697296Y-44985822D01*
X152697297Y-44985822D01*
X152862503Y-45074126D01*
X153007312Y-45192968D01*
X153126154Y-45337777D01*
X153214458Y-45502983D01*
X153214460Y-45502987D01*
X153268839Y-45682251D01*
X153268840Y-45682255D01*
X153287201Y-45868680D01*
X153268840Y-46055105D01*
X153268839Y-46055108D01*
X153268839Y-46055109D01*
X153214460Y-46234373D01*
X153214458Y-46234376D01*
X153214458Y-46234377D01*
X153126154Y-46399583D01*
X153007312Y-46544392D01*
X152862503Y-46663234D01*
X152697297Y-46751538D01*
X152697293Y-46751540D01*
X152518029Y-46805919D01*
X152518028Y-46805919D01*
X152518025Y-46805920D01*
X152378318Y-46819680D01*
X150084882Y-46819680D01*
X149945175Y-46805920D01*
X149945172Y-46805919D01*
X149945171Y-46805919D01*
X149765907Y-46751540D01*
X149765903Y-46751538D01*
X149600697Y-46663234D01*
X149455888Y-46544392D01*
X149337046Y-46399583D01*
X149248742Y-46234377D01*
X149248742Y-46234376D01*
X149248740Y-46234373D01*
X149194361Y-46055109D01*
X149194361Y-46055108D01*
X149194360Y-46055105D01*
X149175999Y-45868680D01*
X149194360Y-45682255D01*
X149194361Y-45682251D01*
X149248740Y-45502987D01*
X149248742Y-45502983D01*
X149337046Y-45337777D01*
X149455888Y-45192968D01*
X149600697Y-45074126D01*
X149765903Y-44985822D01*
X149765904Y-44985822D01*
X149765907Y-44985820D01*
X149945171Y-44931441D01*
X149945172Y-44931441D01*
X149945175Y-44931440D01*
X150084882Y-44917680D01*
X152378318Y-44917680D01*
X152518025Y-44931440D01*
G37*
G36*
X172975835Y-42538418D02*
G01*
X173093842Y-42574215D01*
X173202588Y-42632341D01*
X173297910Y-42710570D01*
X173376139Y-42805892D01*
X173434265Y-42914638D01*
X173470062Y-43032645D01*
X173479120Y-43124614D01*
X173479120Y-43836106D01*
X173470062Y-43928075D01*
X173434265Y-44046082D01*
X173376139Y-44154828D01*
X173297910Y-44250150D01*
X173202588Y-44328379D01*
X173093841Y-44386505D01*
X172975834Y-44422302D01*
X172853120Y-44434388D01*
X172730405Y-44422302D01*
X172612398Y-44386505D01*
X172503652Y-44328379D01*
X172408330Y-44250150D01*
X172330101Y-44154828D01*
X172271975Y-44046081D01*
X172236178Y-43928074D01*
X172227120Y-43836105D01*
X172227120Y-43124614D01*
X172236178Y-43032645D01*
X172271975Y-42914639D01*
X172330102Y-42805892D01*
X172408331Y-42710570D01*
X172503653Y-42632341D01*
X172612399Y-42574215D01*
X172730406Y-42538418D01*
X172853120Y-42526332D01*
X172975835Y-42538418D01*
G37*
G36*
X180725835Y-42538418D02*
G01*
X180843842Y-42574215D01*
X180952588Y-42632341D01*
X181047910Y-42710570D01*
X181126139Y-42805892D01*
X181184265Y-42914638D01*
X181220062Y-43032645D01*
X181229120Y-43124614D01*
X181229120Y-43836106D01*
X181220062Y-43928075D01*
X181184265Y-44046082D01*
X181126139Y-44154828D01*
X181047910Y-44250150D01*
X180952588Y-44328379D01*
X180843841Y-44386505D01*
X180725834Y-44422302D01*
X180603120Y-44434388D01*
X180480405Y-44422302D01*
X180362398Y-44386505D01*
X180253652Y-44328379D01*
X180158330Y-44250150D01*
X180080101Y-44154828D01*
X180021975Y-44046081D01*
X179986178Y-43928074D01*
X179977120Y-43836105D01*
X179977120Y-43124614D01*
X179986178Y-43032645D01*
X180021975Y-42914639D01*
X180080102Y-42805892D01*
X180158331Y-42710570D01*
X180253653Y-42632341D01*
X180362399Y-42574215D01*
X180480406Y-42538418D01*
X180603120Y-42526332D01*
X180725835Y-42538418D01*
G37*
M02*
