G04 #@! TF.GenerationSoftware,KiCad,Pcbnew,5.1.5-52549c5~86~ubuntu18.04.1*
G04 #@! TF.CreationDate,2020-05-18T11:22:32+07:00*
G04 #@! TF.ProjectId,openSTM32F4_LQFP64,6f70656e-5354-44d3-9332-46345f4c5146,rev?*
G04 #@! TF.SameCoordinates,Original*
G04 #@! TF.FileFunction,Legend,Top*
G04 #@! TF.FilePolarity,Positive*
%FSLAX46Y46*%
G04 Gerber Fmt 4.6, Leading zero omitted, Abs format (unit mm)*
G04 Created by KiCad (PCBNEW 5.1.5-52549c5~86~ubuntu18.04.1) date 2020-05-18 11:22:32*
%MOMM*%
%LPD*%
G04 APERTURE LIST*
%ADD10C,0.150000*%
%ADD11C,0.300000*%
%ADD12C,0.120000*%
G04 APERTURE END LIST*
D10*
X184461295Y-47941184D02*
X184194628Y-47560232D01*
X184004152Y-47941184D02*
X184004152Y-47141184D01*
X184308914Y-47141184D01*
X184385104Y-47179280D01*
X184423200Y-47217375D01*
X184461295Y-47293565D01*
X184461295Y-47407851D01*
X184423200Y-47484041D01*
X184385104Y-47522137D01*
X184308914Y-47560232D01*
X184004152Y-47560232D01*
X184804152Y-47522137D02*
X185070819Y-47522137D01*
X185185104Y-47941184D02*
X184804152Y-47941184D01*
X184804152Y-47141184D01*
X185185104Y-47141184D01*
X185489866Y-47903089D02*
X185604152Y-47941184D01*
X185794628Y-47941184D01*
X185870819Y-47903089D01*
X185908914Y-47864994D01*
X185947009Y-47788803D01*
X185947009Y-47712613D01*
X185908914Y-47636422D01*
X185870819Y-47598327D01*
X185794628Y-47560232D01*
X185642247Y-47522137D01*
X185566057Y-47484041D01*
X185527961Y-47445946D01*
X185489866Y-47369756D01*
X185489866Y-47293565D01*
X185527961Y-47217375D01*
X185566057Y-47179280D01*
X185642247Y-47141184D01*
X185832723Y-47141184D01*
X185947009Y-47179280D01*
X186289866Y-47522137D02*
X186556533Y-47522137D01*
X186670819Y-47941184D02*
X186289866Y-47941184D01*
X186289866Y-47141184D01*
X186670819Y-47141184D01*
X186899390Y-47141184D02*
X187356533Y-47141184D01*
X187127961Y-47941184D02*
X187127961Y-47141184D01*
X191471600Y-68356403D02*
X191433504Y-68432594D01*
X191433504Y-68546880D01*
X191471600Y-68661165D01*
X191547790Y-68737356D01*
X191623980Y-68775451D01*
X191776361Y-68813546D01*
X191890647Y-68813546D01*
X192043028Y-68775451D01*
X192119219Y-68737356D01*
X192195409Y-68661165D01*
X192233504Y-68546880D01*
X192233504Y-68470689D01*
X192195409Y-68356403D01*
X192157314Y-68318308D01*
X191890647Y-68318308D01*
X191890647Y-68470689D01*
X192233504Y-67975451D02*
X191433504Y-67975451D01*
X192233504Y-67518308D01*
X191433504Y-67518308D01*
X192233504Y-67137356D02*
X191433504Y-67137356D01*
X191433504Y-66946880D01*
X191471600Y-66832594D01*
X191547790Y-66756403D01*
X191623980Y-66718308D01*
X191776361Y-66680213D01*
X191890647Y-66680213D01*
X192043028Y-66718308D01*
X192119219Y-66756403D01*
X192195409Y-66832594D01*
X192233504Y-66946880D01*
X192233504Y-67137356D01*
X189528409Y-68819803D02*
X189566504Y-68705518D01*
X189566504Y-68515041D01*
X189528409Y-68438851D01*
X189490314Y-68400756D01*
X189414123Y-68362660D01*
X189337933Y-68362660D01*
X189261742Y-68400756D01*
X189223647Y-68438851D01*
X189185552Y-68515041D01*
X189147457Y-68667422D01*
X189109361Y-68743613D01*
X189071266Y-68781708D01*
X188995076Y-68819803D01*
X188918885Y-68819803D01*
X188842695Y-68781708D01*
X188804600Y-68743613D01*
X188766504Y-68667422D01*
X188766504Y-68476946D01*
X188804600Y-68362660D01*
X188766504Y-68095994D02*
X189566504Y-67905518D01*
X188995076Y-67753137D01*
X189566504Y-67600756D01*
X188766504Y-67410280D01*
X189490314Y-66648375D02*
X189528409Y-66686470D01*
X189566504Y-66800756D01*
X189566504Y-66876946D01*
X189528409Y-66991232D01*
X189452219Y-67067422D01*
X189376028Y-67105518D01*
X189223647Y-67143613D01*
X189109361Y-67143613D01*
X188956980Y-67105518D01*
X188880790Y-67067422D01*
X188804600Y-66991232D01*
X188766504Y-66876946D01*
X188766504Y-66800756D01*
X188804600Y-66686470D01*
X188842695Y-66648375D01*
X189566504Y-65924565D02*
X189566504Y-66305518D01*
X188766504Y-66305518D01*
X189566504Y-65657899D02*
X188766504Y-65657899D01*
X189566504Y-65200756D02*
X189109361Y-65543613D01*
X188766504Y-65200756D02*
X189223647Y-65657899D01*
X187090009Y-68807118D02*
X187128104Y-68692832D01*
X187128104Y-68502356D01*
X187090009Y-68426165D01*
X187051914Y-68388070D01*
X186975723Y-68349975D01*
X186899533Y-68349975D01*
X186823342Y-68388070D01*
X186785247Y-68426165D01*
X186747152Y-68502356D01*
X186709057Y-68654737D01*
X186670961Y-68730927D01*
X186632866Y-68769022D01*
X186556676Y-68807118D01*
X186480485Y-68807118D01*
X186404295Y-68769022D01*
X186366200Y-68730927D01*
X186328104Y-68654737D01*
X186328104Y-68464260D01*
X186366200Y-68349975D01*
X186328104Y-68083308D02*
X187128104Y-67892832D01*
X186556676Y-67740451D01*
X187128104Y-67588070D01*
X186328104Y-67397594D01*
X187128104Y-67092832D02*
X186328104Y-67092832D01*
X186328104Y-66902356D01*
X186366200Y-66788070D01*
X186442390Y-66711880D01*
X186518580Y-66673784D01*
X186670961Y-66635689D01*
X186785247Y-66635689D01*
X186937628Y-66673784D01*
X187013819Y-66711880D01*
X187090009Y-66788070D01*
X187128104Y-66902356D01*
X187128104Y-67092832D01*
X187128104Y-66292832D02*
X186328104Y-66292832D01*
X186328104Y-65759499D02*
X186328104Y-65607118D01*
X186366200Y-65530927D01*
X186442390Y-65454737D01*
X186594771Y-65416641D01*
X186861438Y-65416641D01*
X187013819Y-65454737D01*
X187090009Y-65530927D01*
X187128104Y-65607118D01*
X187128104Y-65759499D01*
X187090009Y-65835689D01*
X187013819Y-65911880D01*
X186861438Y-65949975D01*
X186594771Y-65949975D01*
X186442390Y-65911880D01*
X186366200Y-65835689D01*
X186328104Y-65759499D01*
X184016704Y-68788156D02*
X184016704Y-68292918D01*
X184321466Y-68559584D01*
X184321466Y-68445299D01*
X184359561Y-68369108D01*
X184397657Y-68331013D01*
X184473847Y-68292918D01*
X184664323Y-68292918D01*
X184740514Y-68331013D01*
X184778609Y-68369108D01*
X184816704Y-68445299D01*
X184816704Y-68673870D01*
X184778609Y-68750060D01*
X184740514Y-68788156D01*
X184016704Y-68064346D02*
X184816704Y-67797680D01*
X184016704Y-67531013D01*
X184016704Y-67340537D02*
X184016704Y-66845299D01*
X184321466Y-67111965D01*
X184321466Y-66997680D01*
X184359561Y-66921489D01*
X184397657Y-66883394D01*
X184473847Y-66845299D01*
X184664323Y-66845299D01*
X184740514Y-66883394D01*
X184778609Y-66921489D01*
X184816704Y-66997680D01*
X184816704Y-67226251D01*
X184778609Y-67302441D01*
X184740514Y-67340537D01*
X158960824Y-77583084D02*
X159037015Y-77583084D01*
X159113205Y-77621180D01*
X159151300Y-77659275D01*
X159189396Y-77735465D01*
X159227491Y-77887846D01*
X159227491Y-78078322D01*
X159189396Y-78230703D01*
X159151300Y-78306894D01*
X159113205Y-78344989D01*
X159037015Y-78383084D01*
X158960824Y-78383084D01*
X158884634Y-78344989D01*
X158846539Y-78306894D01*
X158808443Y-78230703D01*
X158770348Y-78078322D01*
X158770348Y-77887846D01*
X158808443Y-77735465D01*
X158846539Y-77659275D01*
X158884634Y-77621180D01*
X158960824Y-77583084D01*
X150436551Y-78421184D02*
X149979408Y-78421184D01*
X150207980Y-78421184D02*
X150207980Y-77621184D01*
X150131789Y-77735470D01*
X150055599Y-77811660D01*
X149979408Y-77849756D01*
X158941953Y-74893177D02*
X159056239Y-74931272D01*
X159094334Y-74969367D01*
X159132429Y-75045558D01*
X159132429Y-75159843D01*
X159094334Y-75236034D01*
X159056239Y-75274129D01*
X158980048Y-75312224D01*
X158675286Y-75312224D01*
X158675286Y-74512224D01*
X158941953Y-74512224D01*
X159018143Y-74550320D01*
X159056239Y-74588415D01*
X159094334Y-74664605D01*
X159094334Y-74740796D01*
X159056239Y-74816986D01*
X159018143Y-74855081D01*
X158941953Y-74893177D01*
X158675286Y-74893177D01*
X159627667Y-74512224D02*
X159780048Y-74512224D01*
X159856239Y-74550320D01*
X159932429Y-74626510D01*
X159970524Y-74778891D01*
X159970524Y-75045558D01*
X159932429Y-75197939D01*
X159856239Y-75274129D01*
X159780048Y-75312224D01*
X159627667Y-75312224D01*
X159551477Y-75274129D01*
X159475286Y-75197939D01*
X159437191Y-75045558D01*
X159437191Y-74778891D01*
X159475286Y-74626510D01*
X159551477Y-74550320D01*
X159627667Y-74512224D01*
X160465762Y-74512224D02*
X160618143Y-74512224D01*
X160694334Y-74550320D01*
X160770524Y-74626510D01*
X160808620Y-74778891D01*
X160808620Y-75045558D01*
X160770524Y-75197939D01*
X160694334Y-75274129D01*
X160618143Y-75312224D01*
X160465762Y-75312224D01*
X160389572Y-75274129D01*
X160313381Y-75197939D01*
X160275286Y-75045558D01*
X160275286Y-74778891D01*
X160313381Y-74626510D01*
X160389572Y-74550320D01*
X160465762Y-74512224D01*
X161037191Y-74512224D02*
X161494334Y-74512224D01*
X161265762Y-75312224D02*
X161265762Y-74512224D01*
X162180048Y-75312224D02*
X161722905Y-75312224D01*
X161951477Y-75312224D02*
X161951477Y-74512224D01*
X161875286Y-74626510D01*
X161799096Y-74702700D01*
X161722905Y-74740796D01*
X158964813Y-73686677D02*
X159079099Y-73724772D01*
X159117194Y-73762867D01*
X159155289Y-73839058D01*
X159155289Y-73953343D01*
X159117194Y-74029534D01*
X159079099Y-74067629D01*
X159002908Y-74105724D01*
X158698146Y-74105724D01*
X158698146Y-73305724D01*
X158964813Y-73305724D01*
X159041003Y-73343820D01*
X159079099Y-73381915D01*
X159117194Y-73458105D01*
X159117194Y-73534296D01*
X159079099Y-73610486D01*
X159041003Y-73648581D01*
X158964813Y-73686677D01*
X158698146Y-73686677D01*
X159650527Y-73305724D02*
X159802908Y-73305724D01*
X159879099Y-73343820D01*
X159955289Y-73420010D01*
X159993384Y-73572391D01*
X159993384Y-73839058D01*
X159955289Y-73991439D01*
X159879099Y-74067629D01*
X159802908Y-74105724D01*
X159650527Y-74105724D01*
X159574337Y-74067629D01*
X159498146Y-73991439D01*
X159460051Y-73839058D01*
X159460051Y-73572391D01*
X159498146Y-73420010D01*
X159574337Y-73343820D01*
X159650527Y-73305724D01*
X160488622Y-73305724D02*
X160641003Y-73305724D01*
X160717194Y-73343820D01*
X160793384Y-73420010D01*
X160831480Y-73572391D01*
X160831480Y-73839058D01*
X160793384Y-73991439D01*
X160717194Y-74067629D01*
X160641003Y-74105724D01*
X160488622Y-74105724D01*
X160412432Y-74067629D01*
X160336241Y-73991439D01*
X160298146Y-73839058D01*
X160298146Y-73572391D01*
X160336241Y-73420010D01*
X160412432Y-73343820D01*
X160488622Y-73305724D01*
X161060051Y-73305724D02*
X161517194Y-73305724D01*
X161288622Y-74105724D02*
X161288622Y-73305724D01*
X161936241Y-73305724D02*
X162012432Y-73305724D01*
X162088622Y-73343820D01*
X162126718Y-73381915D01*
X162164813Y-73458105D01*
X162202908Y-73610486D01*
X162202908Y-73800962D01*
X162164813Y-73953343D01*
X162126718Y-74029534D01*
X162088622Y-74067629D01*
X162012432Y-74105724D01*
X161936241Y-74105724D01*
X161860051Y-74067629D01*
X161821956Y-74029534D01*
X161783860Y-73953343D01*
X161745765Y-73800962D01*
X161745765Y-73610486D01*
X161783860Y-73458105D01*
X161821956Y-73381915D01*
X161860051Y-73343820D01*
X161936241Y-73305724D01*
X159051106Y-72502984D02*
X159051106Y-71702984D01*
X159355868Y-71702984D01*
X159432059Y-71741080D01*
X159470154Y-71779175D01*
X159508249Y-71855365D01*
X159508249Y-71969651D01*
X159470154Y-72045841D01*
X159432059Y-72083937D01*
X159355868Y-72122032D01*
X159051106Y-72122032D01*
X159813011Y-72274413D02*
X160193963Y-72274413D01*
X159736820Y-72502984D02*
X160003487Y-71702984D01*
X160270154Y-72502984D01*
X160460630Y-71702984D02*
X160993963Y-71702984D01*
X160651106Y-72502984D01*
X155853294Y-72533464D02*
X155853294Y-71733464D01*
X156158056Y-71733464D01*
X156234246Y-71771560D01*
X156272341Y-71809655D01*
X156310437Y-71885845D01*
X156310437Y-72000131D01*
X156272341Y-72076321D01*
X156234246Y-72114417D01*
X156158056Y-72152512D01*
X155853294Y-72152512D01*
X156615199Y-72304893D02*
X156996151Y-72304893D01*
X156539008Y-72533464D02*
X156805675Y-71733464D01*
X157072341Y-72533464D01*
X157758056Y-72533464D02*
X157300913Y-72533464D01*
X157529484Y-72533464D02*
X157529484Y-71733464D01*
X157453294Y-71847750D01*
X157377103Y-71923940D01*
X157300913Y-71962036D01*
X158062818Y-71809655D02*
X158100913Y-71771560D01*
X158177103Y-71733464D01*
X158367580Y-71733464D01*
X158443770Y-71771560D01*
X158481865Y-71809655D01*
X158519960Y-71885845D01*
X158519960Y-71962036D01*
X158481865Y-72076321D01*
X158024722Y-72533464D01*
X158519960Y-72533464D01*
X153356426Y-72533464D02*
X153356426Y-71733464D01*
X153661188Y-71733464D01*
X153737379Y-71771560D01*
X153775474Y-71809655D01*
X153813569Y-71885845D01*
X153813569Y-72000131D01*
X153775474Y-72076321D01*
X153737379Y-72114417D01*
X153661188Y-72152512D01*
X153356426Y-72152512D01*
X154118331Y-72304893D02*
X154499283Y-72304893D01*
X154042140Y-72533464D02*
X154308807Y-71733464D01*
X154575474Y-72533464D01*
X155184998Y-71733464D02*
X155032617Y-71733464D01*
X154956426Y-71771560D01*
X154918331Y-71809655D01*
X154842140Y-71923940D01*
X154804045Y-72076321D01*
X154804045Y-72381083D01*
X154842140Y-72457274D01*
X154880236Y-72495369D01*
X154956426Y-72533464D01*
X155108807Y-72533464D01*
X155184998Y-72495369D01*
X155223093Y-72457274D01*
X155261188Y-72381083D01*
X155261188Y-72190607D01*
X155223093Y-72114417D01*
X155184998Y-72076321D01*
X155108807Y-72038226D01*
X154956426Y-72038226D01*
X154880236Y-72076321D01*
X154842140Y-72114417D01*
X154804045Y-72190607D01*
X150600526Y-72579184D02*
X150600526Y-71779184D01*
X150905288Y-71779184D01*
X150981479Y-71817280D01*
X151019574Y-71855375D01*
X151057669Y-71931565D01*
X151057669Y-72045851D01*
X151019574Y-72122041D01*
X150981479Y-72160137D01*
X150905288Y-72198232D01*
X150600526Y-72198232D01*
X151362431Y-72350613D02*
X151743383Y-72350613D01*
X151286240Y-72579184D02*
X151552907Y-71779184D01*
X151819574Y-72579184D01*
X152467193Y-71779184D02*
X152086240Y-71779184D01*
X152048145Y-72160137D01*
X152086240Y-72122041D01*
X152162431Y-72083946D01*
X152352907Y-72083946D01*
X152429098Y-72122041D01*
X152467193Y-72160137D01*
X152505288Y-72236327D01*
X152505288Y-72426803D01*
X152467193Y-72502994D01*
X152429098Y-72541089D01*
X152352907Y-72579184D01*
X152162431Y-72579184D01*
X152086240Y-72541089D01*
X152048145Y-72502994D01*
D11*
X146409438Y-98014041D02*
X146218961Y-97918803D01*
X146123723Y-97823565D01*
X146028485Y-97633089D01*
X146028485Y-97061660D01*
X146123723Y-96871184D01*
X146218961Y-96775946D01*
X146409438Y-96680708D01*
X146695152Y-96680708D01*
X146885628Y-96775946D01*
X146980866Y-96871184D01*
X147076104Y-97061660D01*
X147076104Y-97633089D01*
X146980866Y-97823565D01*
X146885628Y-97918803D01*
X146695152Y-98014041D01*
X146409438Y-98014041D01*
X147933247Y-96680708D02*
X147933247Y-98680708D01*
X147933247Y-96775946D02*
X148123723Y-96680708D01*
X148504676Y-96680708D01*
X148695152Y-96775946D01*
X148790390Y-96871184D01*
X148885628Y-97061660D01*
X148885628Y-97633089D01*
X148790390Y-97823565D01*
X148695152Y-97918803D01*
X148504676Y-98014041D01*
X148123723Y-98014041D01*
X147933247Y-97918803D01*
X150504676Y-97918803D02*
X150314200Y-98014041D01*
X149933247Y-98014041D01*
X149742771Y-97918803D01*
X149647533Y-97728327D01*
X149647533Y-96966422D01*
X149742771Y-96775946D01*
X149933247Y-96680708D01*
X150314200Y-96680708D01*
X150504676Y-96775946D01*
X150599914Y-96966422D01*
X150599914Y-97156899D01*
X149647533Y-97347375D01*
X151457057Y-96680708D02*
X151457057Y-98014041D01*
X151457057Y-96871184D02*
X151552295Y-96775946D01*
X151742771Y-96680708D01*
X152028485Y-96680708D01*
X152218961Y-96775946D01*
X152314200Y-96966422D01*
X152314200Y-98014041D01*
X153171342Y-97918803D02*
X153457057Y-98014041D01*
X153933247Y-98014041D01*
X154123723Y-97918803D01*
X154218961Y-97823565D01*
X154314200Y-97633089D01*
X154314200Y-97442613D01*
X154218961Y-97252137D01*
X154123723Y-97156899D01*
X153933247Y-97061660D01*
X153552295Y-96966422D01*
X153361819Y-96871184D01*
X153266580Y-96775946D01*
X153171342Y-96585470D01*
X153171342Y-96394994D01*
X153266580Y-96204518D01*
X153361819Y-96109280D01*
X153552295Y-96014041D01*
X154028485Y-96014041D01*
X154314200Y-96109280D01*
X154885628Y-96014041D02*
X156028485Y-96014041D01*
X155457057Y-98014041D02*
X155457057Y-96014041D01*
X156695152Y-98014041D02*
X156695152Y-96014041D01*
X157361819Y-97442613D01*
X158028485Y-96014041D01*
X158028485Y-98014041D01*
X158790390Y-96014041D02*
X160028485Y-96014041D01*
X159361819Y-96775946D01*
X159647533Y-96775946D01*
X159838009Y-96871184D01*
X159933247Y-96966422D01*
X160028485Y-97156899D01*
X160028485Y-97633089D01*
X159933247Y-97823565D01*
X159838009Y-97918803D01*
X159647533Y-98014041D01*
X159076104Y-98014041D01*
X158885628Y-97918803D01*
X158790390Y-97823565D01*
X160790390Y-96204518D02*
X160885628Y-96109280D01*
X161076104Y-96014041D01*
X161552295Y-96014041D01*
X161742771Y-96109280D01*
X161838009Y-96204518D01*
X161933247Y-96394994D01*
X161933247Y-96585470D01*
X161838009Y-96871184D01*
X160695152Y-98014041D01*
X161933247Y-98014041D01*
D12*
X155831600Y-52668680D02*
X153731600Y-52668680D01*
X156131600Y-52968680D02*
X156131600Y-51368680D01*
X154431600Y-52968680D02*
X156131600Y-52968680D01*
X146631600Y-52668680D02*
X146631600Y-50868680D01*
X148731600Y-52668680D02*
X146631600Y-52668680D01*
X155831600Y-37968680D02*
X155831600Y-52668680D01*
X146631600Y-37968680D02*
X155831600Y-37968680D01*
X146631600Y-46468680D02*
X146631600Y-37968680D01*
X144267240Y-44606480D02*
G75*
G03X144267240Y-44606480I-1500000J0D01*
G01*
X192267240Y-44606480D02*
G75*
G03X192267240Y-44606480I-1500000J0D01*
G01*
X192267240Y-106606480D02*
G75*
G03X192267240Y-106606480I-1500000J0D01*
G01*
X144267240Y-106606480D02*
G75*
G03X144267240Y-106606480I-1500000J0D01*
G01*
X193767240Y-109606480D02*
X139767240Y-109606480D01*
X193767240Y-41606480D02*
X193767240Y-109606480D01*
X139767240Y-41606480D02*
X193767240Y-41606480D01*
X139767240Y-109606480D02*
X139767240Y-41606480D01*
X187684100Y-90115080D02*
X189014100Y-90115080D01*
X187684100Y-91445080D02*
X187684100Y-90115080D01*
X190284100Y-90115080D02*
X192884100Y-90115080D01*
X190284100Y-92715080D02*
X190284100Y-90115080D01*
X187684100Y-92715080D02*
X190284100Y-92715080D01*
X192884100Y-90115080D02*
X192884100Y-102935080D01*
X187684100Y-92715080D02*
X187684100Y-102935080D01*
X187684100Y-102935080D02*
X192884100Y-102935080D01*
X182515200Y-71515280D02*
X182515200Y-70185280D01*
X183845200Y-71515280D02*
X182515200Y-71515280D01*
X185115200Y-71515280D02*
X185115200Y-68855280D01*
X185115200Y-68855280D02*
X192795200Y-68855280D01*
X185115200Y-71515280D02*
X192795200Y-71515280D01*
X192795200Y-71515280D02*
X192795200Y-68855280D01*
X156407033Y-80509840D02*
X156749567Y-80509840D01*
X156407033Y-79489840D02*
X156749567Y-79489840D01*
X156445133Y-94446820D02*
X156787667Y-94446820D01*
X156445133Y-93426820D02*
X156787667Y-93426820D01*
D10*
X179253080Y-89174520D02*
X179653080Y-89174520D01*
X182453080Y-89174520D02*
X182053080Y-89174520D01*
X182453080Y-89174520D02*
X182453080Y-89574520D01*
X182453080Y-92374520D02*
X182053080Y-92374520D01*
X182453080Y-92374520D02*
X182453080Y-91974520D01*
X179253080Y-92374520D02*
X179653080Y-92374520D01*
X179253080Y-92374520D02*
X179253080Y-91974520D01*
D12*
X187646000Y-72614480D02*
X188976000Y-72614480D01*
X187646000Y-73944480D02*
X187646000Y-72614480D01*
X190246000Y-72614480D02*
X192846000Y-72614480D01*
X190246000Y-75214480D02*
X190246000Y-72614480D01*
X187646000Y-75214480D02*
X190246000Y-75214480D01*
X192846000Y-72614480D02*
X192846000Y-80354480D01*
X187646000Y-75214480D02*
X187646000Y-80354480D01*
X187646000Y-80354480D02*
X192846000Y-80354480D01*
X187646000Y-81352080D02*
X188976000Y-81352080D01*
X187646000Y-82682080D02*
X187646000Y-81352080D01*
X190246000Y-81352080D02*
X192846000Y-81352080D01*
X190246000Y-83952080D02*
X190246000Y-81352080D01*
X187646000Y-83952080D02*
X190246000Y-83952080D01*
X192846000Y-81352080D02*
X192846000Y-89092080D01*
X187646000Y-83952080D02*
X187646000Y-89092080D01*
X187646000Y-89092080D02*
X192846000Y-89092080D01*
X172988400Y-99320200D02*
X170488400Y-99320200D01*
X172988400Y-101820200D02*
X172988400Y-99320200D01*
X163468400Y-101120200D02*
X163468400Y-99620200D01*
X162468400Y-101120200D02*
X163468400Y-101120200D01*
X171688400Y-101120200D02*
X171688400Y-99620200D01*
X172688400Y-101120200D02*
X171688400Y-101120200D01*
X162968400Y-101930200D02*
X162468400Y-101930200D01*
X162968400Y-103140200D02*
X162968400Y-101930200D01*
X172188400Y-103140200D02*
X162968400Y-103140200D01*
X172188400Y-101930200D02*
X172188400Y-103140200D01*
X172688400Y-101930200D02*
X172188400Y-101930200D01*
X162468400Y-103640200D02*
X172688400Y-103640200D01*
X162468400Y-99620200D02*
X162468400Y-103640200D01*
X172688400Y-99620200D02*
X162468400Y-99620200D01*
X172688400Y-103640200D02*
X172688400Y-99620200D01*
X170651600Y-104349400D02*
X168151600Y-104349400D01*
X170651600Y-106849400D02*
X170651600Y-104349400D01*
X161131600Y-106149400D02*
X161131600Y-104649400D01*
X160131600Y-106149400D02*
X161131600Y-106149400D01*
X169351600Y-106149400D02*
X169351600Y-104649400D01*
X170351600Y-106149400D02*
X169351600Y-106149400D01*
X160631600Y-106959400D02*
X160131600Y-106959400D01*
X160631600Y-108169400D02*
X160631600Y-106959400D01*
X169851600Y-108169400D02*
X160631600Y-108169400D01*
X169851600Y-106959400D02*
X169851600Y-108169400D01*
X170351600Y-106959400D02*
X169851600Y-106959400D01*
X160131600Y-108669400D02*
X170351600Y-108669400D01*
X160131600Y-104649400D02*
X160131600Y-108669400D01*
X170351600Y-104649400D02*
X160131600Y-104649400D01*
X170351600Y-108669400D02*
X170351600Y-104649400D01*
X149983340Y-92467860D02*
X149983340Y-89967860D01*
X147483340Y-92467860D02*
X149983340Y-92467860D01*
X148183340Y-82947860D02*
X149683340Y-82947860D01*
X148183340Y-81947860D02*
X148183340Y-82947860D01*
X148183340Y-91167860D02*
X149683340Y-91167860D01*
X148183340Y-92167860D02*
X148183340Y-91167860D01*
X147373340Y-82447860D02*
X147373340Y-81947860D01*
X146163340Y-82447860D02*
X147373340Y-82447860D01*
X146163340Y-91667860D02*
X146163340Y-82447860D01*
X147373340Y-91667860D02*
X146163340Y-91667860D01*
X147373340Y-92167860D02*
X147373340Y-91667860D01*
X145663340Y-81947860D02*
X145663340Y-92167860D01*
X149683340Y-81947860D02*
X145663340Y-81947860D01*
X149683340Y-92167860D02*
X149683340Y-81947860D01*
X145663340Y-92167860D02*
X149683340Y-92167860D01*
X160872480Y-68443800D02*
X160872480Y-69773800D01*
X159542480Y-68443800D02*
X160872480Y-68443800D01*
X158272480Y-68443800D02*
X158272480Y-71103800D01*
X158272480Y-71103800D02*
X150592480Y-71103800D01*
X158272480Y-68443800D02*
X150592480Y-68443800D01*
X150592480Y-68443800D02*
X150592480Y-71103800D01*
X150638200Y-78520600D02*
X150638200Y-77190600D01*
X151968200Y-78520600D02*
X150638200Y-78520600D01*
X150638200Y-75920600D02*
X150638200Y-73320600D01*
X153238200Y-75920600D02*
X150638200Y-75920600D01*
X153238200Y-78520600D02*
X153238200Y-75920600D01*
X150638200Y-73320600D02*
X158378200Y-73320600D01*
X153238200Y-78520600D02*
X158378200Y-78520600D01*
X158378200Y-78520600D02*
X158378200Y-73320600D01*
X172836300Y-77377107D02*
X172836300Y-77034573D01*
X171816300Y-77377107D02*
X171816300Y-77034573D01*
X166579280Y-57974440D02*
X166579280Y-52574440D01*
X169879280Y-57974440D02*
X169879280Y-52574440D01*
X166579280Y-57974440D02*
X169879280Y-57974440D01*
X153734500Y-62092800D02*
X153734500Y-56692800D01*
X157034500Y-62092800D02*
X157034500Y-56692800D01*
X153734500Y-62092800D02*
X157034500Y-62092800D01*
X165261500Y-65378600D02*
X159861500Y-65378600D01*
X165261500Y-62078600D02*
X159861500Y-62078600D01*
X165261500Y-65378600D02*
X165261500Y-62078600D01*
X167542280Y-69301120D02*
G75*
G03X167542280Y-74351120I0J-2525000D01*
G01*
X173942280Y-69301120D02*
G75*
G02X173942280Y-74351120I0J-2525000D01*
G01*
X173942280Y-69301120D02*
X167542280Y-69301120D01*
X173942280Y-74351120D02*
X167542280Y-74351120D01*
X153734940Y-64124756D02*
X153734940Y-65328884D01*
X156454940Y-64124756D02*
X156454940Y-65328884D01*
X177183880Y-65326344D02*
X177183880Y-64122216D01*
X174463880Y-65326344D02*
X174463880Y-64122216D01*
X156615120Y-44965520D02*
X156615120Y-45965520D01*
X156115120Y-45465520D02*
X157115120Y-45465520D01*
X157355120Y-51171083D02*
X158419557Y-52235520D01*
X157355120Y-44779957D02*
X158419557Y-43715520D01*
X157355120Y-44779957D02*
X157355120Y-46465520D01*
X157355120Y-51171083D02*
X157355120Y-49485520D01*
X158419557Y-52235520D02*
X165875120Y-52235520D01*
X158419557Y-43715520D02*
X165875120Y-43715520D01*
X165875120Y-43715520D02*
X165875120Y-46465520D01*
X165875120Y-52235520D02*
X165875120Y-49485520D01*
D10*
X174928120Y-47830360D02*
X173928120Y-47830360D01*
X178528120Y-47830360D02*
X179528120Y-47830360D01*
X178528120Y-48255360D02*
X178528120Y-47830360D01*
X177803120Y-48255360D02*
X178528120Y-48255360D01*
X172578120Y-44680360D02*
X172578120Y-46080360D01*
X172578120Y-42130360D02*
X172578120Y-42280360D01*
X172878120Y-42130360D02*
X172578120Y-42130360D01*
X172878120Y-41680360D02*
X172878120Y-42130360D01*
X180578120Y-42130360D02*
X180578120Y-41680360D01*
X180878120Y-42130360D02*
X180578120Y-42130360D01*
X180878120Y-42280360D02*
X180878120Y-42130360D01*
X180878120Y-46080360D02*
X180878120Y-44680360D01*
D12*
X179343200Y-51150200D02*
X179343200Y-50425200D01*
X174123200Y-55645200D02*
X174848200Y-55645200D01*
X174123200Y-54920200D02*
X174123200Y-55645200D01*
X174123200Y-50425200D02*
X174848200Y-50425200D01*
X174123200Y-51150200D02*
X174123200Y-50425200D01*
X179343200Y-55645200D02*
X178618200Y-55645200D01*
X179343200Y-54920200D02*
X179343200Y-55645200D01*
X173965920Y-58475440D02*
X173965920Y-64485440D01*
X167145920Y-60725440D02*
X167145920Y-64485440D01*
X173965920Y-64485440D02*
X172705920Y-64485440D01*
X167145920Y-64485440D02*
X168405920Y-64485440D01*
D10*
X157469600Y-59771100D02*
X157469600Y-61171100D01*
X162569600Y-59771100D02*
X162569600Y-55621100D01*
X157419600Y-59771100D02*
X157419600Y-55621100D01*
X162569600Y-59771100D02*
X162424600Y-59771100D01*
X162569600Y-55621100D02*
X162424600Y-55621100D01*
X157419600Y-55621100D02*
X157564600Y-55621100D01*
X157419600Y-59771100D02*
X157469600Y-59771100D01*
D12*
X170568100Y-81554800D02*
X170568100Y-80214800D01*
X171518100Y-81554800D02*
X170568100Y-81554800D01*
X171518100Y-82504800D02*
X171518100Y-81554800D01*
X171518100Y-91774800D02*
X170568100Y-91774800D01*
X171518100Y-90824800D02*
X171518100Y-91774800D01*
X161298100Y-81554800D02*
X162248100Y-81554800D01*
X161298100Y-82504800D02*
X161298100Y-81554800D01*
X161298100Y-91774800D02*
X162248100Y-91774800D01*
X161298100Y-90824800D02*
X161298100Y-91774800D01*
X191634500Y-48370100D02*
X185174500Y-48370100D01*
X191634500Y-52900100D02*
X191634500Y-50300100D01*
X191634500Y-54830100D02*
X185174500Y-54830100D01*
X185174500Y-52900100D02*
X185174500Y-50300100D01*
X191634500Y-54800100D02*
X191634500Y-54830100D01*
X191634500Y-48370100D02*
X191634500Y-48400100D01*
X185174500Y-48370100D02*
X185174500Y-48400100D01*
X185174500Y-54830100D02*
X185174500Y-54800100D01*
X191677680Y-56449840D02*
X185217680Y-56449840D01*
X191677680Y-60979840D02*
X191677680Y-58379840D01*
X191677680Y-62909840D02*
X185217680Y-62909840D01*
X185217680Y-60979840D02*
X185217680Y-58379840D01*
X191677680Y-62879840D02*
X191677680Y-62909840D01*
X191677680Y-56449840D02*
X191677680Y-56479840D01*
X185217680Y-56449840D02*
X185217680Y-56479840D01*
X185217680Y-62909840D02*
X185217680Y-62879840D01*
X182267320Y-59271987D02*
X182267320Y-58929453D01*
X181247320Y-59271987D02*
X181247320Y-58929453D01*
X175790320Y-59330407D02*
X175790320Y-58987873D01*
X174770320Y-59330407D02*
X174770320Y-58987873D01*
X171751173Y-52529200D02*
X172093707Y-52529200D01*
X171751173Y-51509200D02*
X172093707Y-51509200D01*
X181917880Y-95107973D02*
X181917880Y-95450507D01*
X182937880Y-95107973D02*
X182937880Y-95450507D01*
X178880040Y-86065573D02*
X178880040Y-86408107D01*
X179900040Y-86065573D02*
X179900040Y-86408107D01*
X178819080Y-95130773D02*
X178819080Y-95473307D01*
X179839080Y-95130773D02*
X179839080Y-95473307D01*
X168977127Y-46370780D02*
X168634593Y-46370780D01*
X168977127Y-47390780D02*
X168634593Y-47390780D01*
X180404040Y-86065573D02*
X180404040Y-86408107D01*
X181424040Y-86065573D02*
X181424040Y-86408107D01*
X181928040Y-86076973D02*
X181928040Y-86419507D01*
X182948040Y-86076973D02*
X182948040Y-86419507D01*
X164035200Y-59950167D02*
X164035200Y-59607633D01*
X163015200Y-59950167D02*
X163015200Y-59607633D01*
X164526500Y-59594933D02*
X164526500Y-59937467D01*
X165546500Y-59594933D02*
X165546500Y-59937467D01*
X186566993Y-56158860D02*
X186909527Y-56158860D01*
X186566993Y-55138860D02*
X186909527Y-55138860D01*
X163274280Y-69907333D02*
X163274280Y-70249867D01*
X164294280Y-69907333D02*
X164294280Y-70249867D01*
X186615253Y-64251300D02*
X186957787Y-64251300D01*
X186615253Y-63231300D02*
X186957787Y-63231300D01*
X153086600Y-66675800D02*
X150086600Y-66675800D01*
X153086600Y-54075800D02*
X153086600Y-66675800D01*
X150086600Y-54075800D02*
X153086600Y-54075800D01*
X140486600Y-54075800D02*
X143486600Y-54075800D01*
X140486600Y-66675800D02*
X140486600Y-54075800D01*
X143486600Y-66675800D02*
X140486600Y-66675800D01*
X145101460Y-99955780D02*
X145101460Y-97455780D01*
X142601460Y-99955780D02*
X145101460Y-99955780D01*
X143301460Y-82935780D02*
X144801460Y-82935780D01*
X143301460Y-81935780D02*
X143301460Y-82935780D01*
X143301460Y-98655780D02*
X144801460Y-98655780D01*
X143301460Y-99655780D02*
X143301460Y-98655780D01*
X142491460Y-82435780D02*
X142491460Y-81935780D01*
X141281460Y-82435780D02*
X142491460Y-82435780D01*
X141281460Y-99155780D02*
X141281460Y-82435780D01*
X142491460Y-99155780D02*
X141281460Y-99155780D01*
X142491460Y-99655780D02*
X142491460Y-99155780D01*
X140781460Y-81935780D02*
X140781460Y-99655780D01*
X144801460Y-81935780D02*
X140781460Y-81935780D01*
X144801460Y-99655780D02*
X144801460Y-81935780D01*
X140781460Y-99655780D02*
X144801460Y-99655780D01*
X186704400Y-104324000D02*
X184204400Y-104324000D01*
X186704400Y-106824000D02*
X186704400Y-104324000D01*
X172184400Y-106124000D02*
X172184400Y-104624000D01*
X171184400Y-106124000D02*
X172184400Y-106124000D01*
X185404400Y-106124000D02*
X185404400Y-104624000D01*
X186404400Y-106124000D02*
X185404400Y-106124000D01*
X171684400Y-106934000D02*
X171184400Y-106934000D01*
X171684400Y-108144000D02*
X171684400Y-106934000D01*
X185904400Y-108144000D02*
X171684400Y-108144000D01*
X185904400Y-106934000D02*
X185904400Y-108144000D01*
X186404400Y-106934000D02*
X185904400Y-106934000D01*
X171184400Y-108644000D02*
X186404400Y-108644000D01*
X171184400Y-104624000D02*
X171184400Y-108644000D01*
X186404400Y-104624000D02*
X171184400Y-104624000D01*
X186404400Y-108644000D02*
X186404400Y-104624000D01*
X159526400Y-104349400D02*
X157026400Y-104349400D01*
X159526400Y-106849400D02*
X159526400Y-104349400D01*
X147506400Y-106149400D02*
X147506400Y-104649400D01*
X146506400Y-106149400D02*
X147506400Y-106149400D01*
X158226400Y-106149400D02*
X158226400Y-104649400D01*
X159226400Y-106149400D02*
X158226400Y-106149400D01*
X147006400Y-106959400D02*
X146506400Y-106959400D01*
X147006400Y-108169400D02*
X147006400Y-106959400D01*
X158726400Y-108169400D02*
X147006400Y-108169400D01*
X158726400Y-106959400D02*
X158726400Y-108169400D01*
X159226400Y-106959400D02*
X158726400Y-106959400D01*
X146506400Y-108669400D02*
X159226400Y-108669400D01*
X146506400Y-104649400D02*
X146506400Y-108669400D01*
X159226400Y-104649400D02*
X146506400Y-104649400D01*
X159226400Y-108669400D02*
X159226400Y-104649400D01*
X161863200Y-99396400D02*
X159363200Y-99396400D01*
X161863200Y-101896400D02*
X161863200Y-99396400D01*
X147343200Y-101196400D02*
X147343200Y-99696400D01*
X146343200Y-101196400D02*
X147343200Y-101196400D01*
X160563200Y-101196400D02*
X160563200Y-99696400D01*
X161563200Y-101196400D02*
X160563200Y-101196400D01*
X146843200Y-102006400D02*
X146343200Y-102006400D01*
X146843200Y-103216400D02*
X146843200Y-102006400D01*
X161063200Y-103216400D02*
X146843200Y-103216400D01*
X161063200Y-102006400D02*
X161063200Y-103216400D01*
X161563200Y-102006400D02*
X161063200Y-102006400D01*
X146343200Y-103716400D02*
X161563200Y-103716400D01*
X146343200Y-99696400D02*
X146343200Y-103716400D01*
X161563200Y-99696400D02*
X146343200Y-99696400D01*
X161563200Y-103716400D02*
X161563200Y-99696400D01*
X145050660Y-81413780D02*
X145050660Y-78913780D01*
X142550660Y-81413780D02*
X145050660Y-81413780D01*
X143250660Y-69393780D02*
X144750660Y-69393780D01*
X143250660Y-68393780D02*
X143250660Y-69393780D01*
X143250660Y-80113780D02*
X144750660Y-80113780D01*
X143250660Y-81113780D02*
X143250660Y-80113780D01*
X142440660Y-68893780D02*
X142440660Y-68393780D01*
X141230660Y-68893780D02*
X142440660Y-68893780D01*
X141230660Y-80613780D02*
X141230660Y-68893780D01*
X142440660Y-80613780D02*
X141230660Y-80613780D01*
X142440660Y-81113780D02*
X142440660Y-80613780D01*
X140730660Y-68393780D02*
X140730660Y-81113780D01*
X144750660Y-68393780D02*
X140730660Y-68393780D01*
X144750660Y-81113780D02*
X144750660Y-68393780D01*
X140730660Y-81113780D02*
X144750660Y-81113780D01*
X149978260Y-81413780D02*
X149978260Y-78913780D01*
X147478260Y-81413780D02*
X149978260Y-81413780D01*
X148178260Y-69393780D02*
X149678260Y-69393780D01*
X148178260Y-68393780D02*
X148178260Y-69393780D01*
X148178260Y-80113780D02*
X149678260Y-80113780D01*
X148178260Y-81113780D02*
X148178260Y-80113780D01*
X147368260Y-68893780D02*
X147368260Y-68393780D01*
X146158260Y-68893780D02*
X147368260Y-68893780D01*
X146158260Y-80613780D02*
X146158260Y-68893780D01*
X147368260Y-80613780D02*
X146158260Y-80613780D01*
X147368260Y-81113780D02*
X147368260Y-80613780D01*
X145658260Y-68393780D02*
X145658260Y-81113780D01*
X149678260Y-68393780D02*
X145658260Y-68393780D01*
X149678260Y-81113780D02*
X149678260Y-68393780D01*
X145658260Y-81113780D02*
X149678260Y-81113780D01*
X186582480Y-99330360D02*
X184082480Y-99330360D01*
X186582480Y-101830360D02*
X186582480Y-99330360D01*
X174562480Y-101130360D02*
X174562480Y-99630360D01*
X173562480Y-101130360D02*
X174562480Y-101130360D01*
X185282480Y-101130360D02*
X185282480Y-99630360D01*
X186282480Y-101130360D02*
X185282480Y-101130360D01*
X174062480Y-101940360D02*
X173562480Y-101940360D01*
X174062480Y-103150360D02*
X174062480Y-101940360D01*
X185782480Y-103150360D02*
X174062480Y-103150360D01*
X185782480Y-101940360D02*
X185782480Y-103150360D01*
X186282480Y-101940360D02*
X185782480Y-101940360D01*
X173562480Y-103650360D02*
X186282480Y-103650360D01*
X173562480Y-99630360D02*
X173562480Y-103650360D01*
X186282480Y-99630360D02*
X173562480Y-99630360D01*
X186282480Y-103650360D02*
X186282480Y-99630360D01*
X179452600Y-57461040D02*
X179452600Y-59921040D01*
X180922600Y-57461040D02*
X179452600Y-57461040D01*
X180922600Y-59921040D02*
X180922600Y-57461040D01*
X176117580Y-57522000D02*
X176117580Y-59982000D01*
X177587580Y-57522000D02*
X176117580Y-57522000D01*
X177587580Y-59982000D02*
X177587580Y-57522000D01*
X170436760Y-47732260D02*
X167976760Y-47732260D01*
X170436760Y-49202260D02*
X170436760Y-47732260D01*
X167976760Y-49202260D02*
X170436760Y-49202260D01*
X161499880Y-68441460D02*
X161499880Y-70901460D01*
X162969880Y-68441460D02*
X161499880Y-68441460D01*
X162969880Y-70901460D02*
X162969880Y-68441460D01*
X171758793Y-54043040D02*
X172101327Y-54043040D01*
X171758793Y-53023040D02*
X172101327Y-53023040D01*
X171756253Y-55567040D02*
X172098787Y-55567040D01*
X171756253Y-54547040D02*
X172098787Y-54547040D01*
X180343080Y-95119373D02*
X180343080Y-95461907D01*
X181363080Y-95119373D02*
X181363080Y-95461907D01*
X184884273Y-92267500D02*
X185226807Y-92267500D01*
X184884273Y-91247500D02*
X185226807Y-91247500D01*
X184893133Y-90710480D02*
X185235667Y-90710480D01*
X184893133Y-89690480D02*
X185235667Y-89690480D01*
X165641560Y-64710493D02*
X165641560Y-65053027D01*
X166661560Y-64710493D02*
X166661560Y-65053027D01*
X189942653Y-56151240D02*
X190285187Y-56151240D01*
X189942653Y-55131240D02*
X190285187Y-55131240D01*
X156982700Y-64930233D02*
X156982700Y-65272767D01*
X158002700Y-64930233D02*
X158002700Y-65272767D01*
X155354233Y-54866000D02*
X155696767Y-54866000D01*
X155354233Y-53846000D02*
X155696767Y-53846000D01*
X159977033Y-53659500D02*
X160319567Y-53659500D01*
X159977033Y-52639500D02*
X160319567Y-52639500D01*
X170838947Y-67694080D02*
X170496413Y-67694080D01*
X170838947Y-68714080D02*
X170496413Y-68714080D01*
X173856833Y-68726780D02*
X174199367Y-68726780D01*
X173856833Y-67706780D02*
X174199367Y-67706780D01*
X169512520Y-95960113D02*
X169512520Y-96302647D01*
X170532520Y-95960113D02*
X170532520Y-96302647D01*
X156782587Y-90300080D02*
X156440053Y-90300080D01*
X156782587Y-91320080D02*
X156440053Y-91320080D01*
X189978213Y-64256380D02*
X190320747Y-64256380D01*
X189978213Y-63236380D02*
X190320747Y-63236380D01*
X156782587Y-91879960D02*
X156440053Y-91879960D01*
X156782587Y-92899960D02*
X156440053Y-92899960D01*
X176206333Y-83471480D02*
X176548867Y-83471480D01*
X176206333Y-82451480D02*
X176548867Y-82451480D01*
X156830847Y-83157600D02*
X156488313Y-83157600D01*
X156830847Y-84177600D02*
X156488313Y-84177600D01*
X164324760Y-77375807D02*
X164324760Y-77033273D01*
X163304760Y-77375807D02*
X163304760Y-77033273D01*
X171041600Y-95952493D02*
X171041600Y-96295027D01*
X172061600Y-95952493D02*
X172061600Y-96295027D01*
X171289440Y-77392347D02*
X171289440Y-77049813D01*
X170269440Y-77392347D02*
X170269440Y-77049813D01*
X162800760Y-77397427D02*
X162800760Y-77054893D01*
X161780760Y-77397427D02*
X161780760Y-77054893D01*
D10*
X150898266Y-53621060D02*
X150898266Y-54335346D01*
X150850647Y-54478203D01*
X150755409Y-54573441D01*
X150612552Y-54621060D01*
X150517314Y-54621060D01*
X151898266Y-54621060D02*
X151326838Y-54621060D01*
X151612552Y-54621060D02*
X151612552Y-53621060D01*
X151517314Y-53763918D01*
X151422076Y-53859156D01*
X151326838Y-53906775D01*
X139155335Y-113033860D02*
X139155335Y-113843384D01*
X139202954Y-113938622D01*
X139250573Y-113986241D01*
X139345811Y-114033860D01*
X139536287Y-114033860D01*
X139631525Y-113986241D01*
X139679144Y-113938622D01*
X139726763Y-113843384D01*
X139726763Y-113033860D01*
X140631525Y-113033860D02*
X140441049Y-113033860D01*
X140345811Y-113081480D01*
X140298192Y-113129099D01*
X140202954Y-113271956D01*
X140155335Y-113462432D01*
X140155335Y-113843384D01*
X140202954Y-113938622D01*
X140250573Y-113986241D01*
X140345811Y-114033860D01*
X140536287Y-114033860D01*
X140631525Y-113986241D01*
X140679144Y-113938622D01*
X140726763Y-113843384D01*
X140726763Y-113605289D01*
X140679144Y-113510051D01*
X140631525Y-113462432D01*
X140536287Y-113414813D01*
X140345811Y-113414813D01*
X140250573Y-113462432D01*
X140202954Y-113510051D01*
X140155335Y-113605289D01*
X192336453Y-103745084D02*
X192336453Y-104316513D01*
X192298358Y-104430799D01*
X192222167Y-104506989D01*
X192107881Y-104545084D01*
X192031691Y-104545084D01*
X193098358Y-103745084D02*
X192717405Y-103745084D01*
X192679310Y-104126037D01*
X192717405Y-104087941D01*
X192793596Y-104049846D01*
X192984072Y-104049846D01*
X193060262Y-104087941D01*
X193098358Y-104126037D01*
X193136453Y-104202227D01*
X193136453Y-104392703D01*
X193098358Y-104468894D01*
X193060262Y-104506989D01*
X192984072Y-104545084D01*
X192793596Y-104545084D01*
X192717405Y-104506989D01*
X192679310Y-104468894D01*
X180365480Y-68507664D02*
X180365480Y-69079093D01*
X180327385Y-69193379D01*
X180251195Y-69269569D01*
X180136909Y-69307664D01*
X180060719Y-69307664D01*
X181165480Y-69307664D02*
X180708338Y-69307664D01*
X180936909Y-69307664D02*
X180936909Y-68507664D01*
X180860719Y-68621950D01*
X180784528Y-68698140D01*
X180708338Y-68736236D01*
X181622623Y-68850521D02*
X181546433Y-68812426D01*
X181508338Y-68774331D01*
X181470242Y-68698140D01*
X181470242Y-68660045D01*
X181508338Y-68583855D01*
X181546433Y-68545760D01*
X181622623Y-68507664D01*
X181775004Y-68507664D01*
X181851195Y-68545760D01*
X181889290Y-68583855D01*
X181927385Y-68660045D01*
X181927385Y-68698140D01*
X181889290Y-68774331D01*
X181851195Y-68812426D01*
X181775004Y-68850521D01*
X181622623Y-68850521D01*
X181546433Y-68888617D01*
X181508338Y-68926712D01*
X181470242Y-69002902D01*
X181470242Y-69155283D01*
X181508338Y-69231474D01*
X181546433Y-69269569D01*
X181622623Y-69307664D01*
X181775004Y-69307664D01*
X181851195Y-69269569D01*
X181889290Y-69231474D01*
X181927385Y-69155283D01*
X181927385Y-69002902D01*
X181889290Y-68926712D01*
X181851195Y-68888617D01*
X181775004Y-68850521D01*
X153247154Y-80567484D02*
X152980487Y-80186532D01*
X152790011Y-80567484D02*
X152790011Y-79767484D01*
X153094773Y-79767484D01*
X153170963Y-79805580D01*
X153209059Y-79843675D01*
X153247154Y-79919865D01*
X153247154Y-80034151D01*
X153209059Y-80110341D01*
X153170963Y-80148437D01*
X153094773Y-80186532D01*
X152790011Y-80186532D01*
X154009059Y-80567484D02*
X153551916Y-80567484D01*
X153780487Y-80567484D02*
X153780487Y-79767484D01*
X153704297Y-79881770D01*
X153628106Y-79957960D01*
X153551916Y-79996056D01*
X154694773Y-79767484D02*
X154542392Y-79767484D01*
X154466201Y-79805580D01*
X154428106Y-79843675D01*
X154351916Y-79957960D01*
X154313820Y-80110341D01*
X154313820Y-80415103D01*
X154351916Y-80491294D01*
X154390011Y-80529389D01*
X154466201Y-80567484D01*
X154618582Y-80567484D01*
X154694773Y-80529389D01*
X154732868Y-80491294D01*
X154770963Y-80415103D01*
X154770963Y-80224627D01*
X154732868Y-80148437D01*
X154694773Y-80110341D01*
X154618582Y-80072246D01*
X154466201Y-80072246D01*
X154390011Y-80110341D01*
X154351916Y-80148437D01*
X154313820Y-80224627D01*
X153252234Y-92962684D02*
X152985567Y-92581732D01*
X152795091Y-92962684D02*
X152795091Y-92162684D01*
X153099853Y-92162684D01*
X153176043Y-92200780D01*
X153214139Y-92238875D01*
X153252234Y-92315065D01*
X153252234Y-92429351D01*
X153214139Y-92505541D01*
X153176043Y-92543637D01*
X153099853Y-92581732D01*
X152795091Y-92581732D01*
X154014139Y-92962684D02*
X153556996Y-92962684D01*
X153785567Y-92962684D02*
X153785567Y-92162684D01*
X153709377Y-92276970D01*
X153633186Y-92353160D01*
X153556996Y-92391256D01*
X154280805Y-92162684D02*
X154776043Y-92162684D01*
X154509377Y-92467446D01*
X154623662Y-92467446D01*
X154699853Y-92505541D01*
X154737948Y-92543637D01*
X154776043Y-92619827D01*
X154776043Y-92810303D01*
X154737948Y-92886494D01*
X154699853Y-92924589D01*
X154623662Y-92962684D01*
X154395091Y-92962684D01*
X154318900Y-92924589D01*
X154280805Y-92886494D01*
X177281916Y-88842904D02*
X177281916Y-89490523D01*
X177320011Y-89566714D01*
X177358106Y-89604809D01*
X177434297Y-89642904D01*
X177586678Y-89642904D01*
X177662868Y-89604809D01*
X177700963Y-89566714D01*
X177739059Y-89490523D01*
X177739059Y-88842904D01*
X178462868Y-89109571D02*
X178462868Y-89642904D01*
X178272392Y-88804809D02*
X178081916Y-89376238D01*
X178577154Y-89376238D01*
X186169333Y-72683424D02*
X186169333Y-73254853D01*
X186131238Y-73369139D01*
X186055047Y-73445329D01*
X185940761Y-73483424D01*
X185864571Y-73483424D01*
X186474095Y-72683424D02*
X186969333Y-72683424D01*
X186702666Y-72988186D01*
X186816952Y-72988186D01*
X186893142Y-73026281D01*
X186931238Y-73064377D01*
X186969333Y-73140567D01*
X186969333Y-73331043D01*
X186931238Y-73407234D01*
X186893142Y-73445329D01*
X186816952Y-73483424D01*
X186588380Y-73483424D01*
X186512190Y-73445329D01*
X186474095Y-73407234D01*
X186075353Y-81080664D02*
X186075353Y-81652093D01*
X186037258Y-81766379D01*
X185961067Y-81842569D01*
X185846781Y-81880664D01*
X185770591Y-81880664D01*
X186418210Y-81156855D02*
X186456305Y-81118760D01*
X186532496Y-81080664D01*
X186722972Y-81080664D01*
X186799162Y-81118760D01*
X186837258Y-81156855D01*
X186875353Y-81233045D01*
X186875353Y-81309236D01*
X186837258Y-81423521D01*
X186380115Y-81880664D01*
X186875353Y-81880664D01*
X163207733Y-98601584D02*
X163207733Y-99173013D01*
X163169638Y-99287299D01*
X163093447Y-99363489D01*
X162979161Y-99401584D01*
X162902971Y-99401584D01*
X163626780Y-99401584D02*
X163779161Y-99401584D01*
X163855352Y-99363489D01*
X163893447Y-99325394D01*
X163969638Y-99211108D01*
X164007733Y-99058727D01*
X164007733Y-98753965D01*
X163969638Y-98677775D01*
X163931542Y-98639680D01*
X163855352Y-98601584D01*
X163702971Y-98601584D01*
X163626780Y-98639680D01*
X163588685Y-98677775D01*
X163550590Y-98753965D01*
X163550590Y-98944441D01*
X163588685Y-99020632D01*
X163626780Y-99058727D01*
X163702971Y-99096822D01*
X163855352Y-99096822D01*
X163931542Y-99058727D01*
X163969638Y-99020632D01*
X164007733Y-98944441D01*
X159125953Y-108378044D02*
X159125953Y-108949473D01*
X159087858Y-109063759D01*
X159011667Y-109139949D01*
X158897381Y-109178044D01*
X158821191Y-109178044D01*
X159430715Y-108378044D02*
X159964048Y-108378044D01*
X159621191Y-109178044D01*
X145910333Y-92866264D02*
X145910333Y-93437693D01*
X145872238Y-93551979D01*
X145796047Y-93628169D01*
X145681761Y-93666264D01*
X145605571Y-93666264D01*
X146634142Y-93132931D02*
X146634142Y-93666264D01*
X146443666Y-92828169D02*
X146253190Y-93399598D01*
X146748428Y-93399598D01*
X160098820Y-67016684D02*
X160098820Y-67588113D01*
X160060725Y-67702399D01*
X159984535Y-67778589D01*
X159870249Y-67816684D01*
X159794059Y-67816684D01*
X160898820Y-67816684D02*
X160441678Y-67816684D01*
X160670249Y-67816684D02*
X160670249Y-67016684D01*
X160594059Y-67130970D01*
X160517868Y-67207160D01*
X160441678Y-67245256D01*
X161584535Y-67283351D02*
X161584535Y-67816684D01*
X161394059Y-66978589D02*
X161203582Y-67550018D01*
X161698820Y-67550018D01*
X151178293Y-79198524D02*
X151178293Y-79769953D01*
X151140198Y-79884239D01*
X151064007Y-79960429D01*
X150949721Y-79998524D01*
X150873531Y-79998524D01*
X151673531Y-79541381D02*
X151597340Y-79503286D01*
X151559245Y-79465191D01*
X151521150Y-79389000D01*
X151521150Y-79350905D01*
X151559245Y-79274715D01*
X151597340Y-79236620D01*
X151673531Y-79198524D01*
X151825912Y-79198524D01*
X151902102Y-79236620D01*
X151940198Y-79274715D01*
X151978293Y-79350905D01*
X151978293Y-79389000D01*
X151940198Y-79465191D01*
X151902102Y-79503286D01*
X151825912Y-79541381D01*
X151673531Y-79541381D01*
X151597340Y-79579477D01*
X151559245Y-79617572D01*
X151521150Y-79693762D01*
X151521150Y-79846143D01*
X151559245Y-79922334D01*
X151597340Y-79960429D01*
X151673531Y-79998524D01*
X151825912Y-79998524D01*
X151902102Y-79960429D01*
X151940198Y-79922334D01*
X151978293Y-79846143D01*
X151978293Y-79693762D01*
X151940198Y-79617572D01*
X151902102Y-79579477D01*
X151825912Y-79541381D01*
X172086334Y-75350334D02*
X172048239Y-75388429D01*
X171933953Y-75426524D01*
X171857762Y-75426524D01*
X171743477Y-75388429D01*
X171667286Y-75312239D01*
X171629191Y-75236048D01*
X171591096Y-75083667D01*
X171591096Y-74969381D01*
X171629191Y-74817000D01*
X171667286Y-74740810D01*
X171743477Y-74664620D01*
X171857762Y-74626524D01*
X171933953Y-74626524D01*
X172048239Y-74664620D01*
X172086334Y-74702715D01*
X172391096Y-74702715D02*
X172429191Y-74664620D01*
X172505381Y-74626524D01*
X172695858Y-74626524D01*
X172772048Y-74664620D01*
X172810143Y-74702715D01*
X172848239Y-74778905D01*
X172848239Y-74855096D01*
X172810143Y-74969381D01*
X172353000Y-75426524D01*
X172848239Y-75426524D01*
X173610143Y-75426524D02*
X173153000Y-75426524D01*
X173381572Y-75426524D02*
X173381572Y-74626524D01*
X173305381Y-74740810D01*
X173229191Y-74817000D01*
X173153000Y-74855096D01*
X166470403Y-50940924D02*
X166470403Y-50140924D01*
X166660880Y-50140924D01*
X166775165Y-50179020D01*
X166851356Y-50255210D01*
X166889451Y-50331400D01*
X166927546Y-50483781D01*
X166927546Y-50598067D01*
X166889451Y-50750448D01*
X166851356Y-50826639D01*
X166775165Y-50902829D01*
X166660880Y-50940924D01*
X166470403Y-50940924D01*
X167613260Y-50407591D02*
X167613260Y-50940924D01*
X167422784Y-50102829D02*
X167232308Y-50674258D01*
X167727546Y-50674258D01*
X156965723Y-63120224D02*
X156965723Y-62320224D01*
X157156200Y-62320224D01*
X157270485Y-62358320D01*
X157346676Y-62434510D01*
X157384771Y-62510700D01*
X157422866Y-62663081D01*
X157422866Y-62777367D01*
X157384771Y-62929748D01*
X157346676Y-63005939D01*
X157270485Y-63082129D01*
X157156200Y-63120224D01*
X156965723Y-63120224D01*
X157689533Y-62320224D02*
X158184771Y-62320224D01*
X157918104Y-62624986D01*
X158032390Y-62624986D01*
X158108580Y-62663081D01*
X158146676Y-62701177D01*
X158184771Y-62777367D01*
X158184771Y-62967843D01*
X158146676Y-63044034D01*
X158108580Y-63082129D01*
X158032390Y-63120224D01*
X157803819Y-63120224D01*
X157727628Y-63082129D01*
X157689533Y-63044034D01*
X158715783Y-66528904D02*
X158715783Y-65728904D01*
X158906260Y-65728904D01*
X159020545Y-65767000D01*
X159096736Y-65843190D01*
X159134831Y-65919380D01*
X159172926Y-66071761D01*
X159172926Y-66186047D01*
X159134831Y-66338428D01*
X159096736Y-66414619D01*
X159020545Y-66490809D01*
X158906260Y-66528904D01*
X158715783Y-66528904D01*
X159896736Y-65728904D02*
X159515783Y-65728904D01*
X159477688Y-66109857D01*
X159515783Y-66071761D01*
X159591974Y-66033666D01*
X159782450Y-66033666D01*
X159858640Y-66071761D01*
X159896736Y-66109857D01*
X159934831Y-66186047D01*
X159934831Y-66376523D01*
X159896736Y-66452714D01*
X159858640Y-66490809D01*
X159782450Y-66528904D01*
X159591974Y-66528904D01*
X159515783Y-66490809D01*
X159477688Y-66452714D01*
X165130527Y-69000372D02*
X165130527Y-69381324D01*
X164863860Y-68581324D02*
X165130527Y-69000372D01*
X165397194Y-68581324D01*
X166082908Y-69381324D02*
X165625765Y-69381324D01*
X165854337Y-69381324D02*
X165854337Y-68581324D01*
X165778146Y-68695610D01*
X165701956Y-68771800D01*
X165625765Y-68809896D01*
X154026934Y-67803994D02*
X153988839Y-67842089D01*
X153874553Y-67880184D01*
X153798362Y-67880184D01*
X153684077Y-67842089D01*
X153607886Y-67765899D01*
X153569791Y-67689708D01*
X153531696Y-67537327D01*
X153531696Y-67423041D01*
X153569791Y-67270660D01*
X153607886Y-67194470D01*
X153684077Y-67118280D01*
X153798362Y-67080184D01*
X153874553Y-67080184D01*
X153988839Y-67118280D01*
X154026934Y-67156375D01*
X154788839Y-67880184D02*
X154331696Y-67880184D01*
X154560267Y-67880184D02*
X154560267Y-67080184D01*
X154484077Y-67194470D01*
X154407886Y-67270660D01*
X154331696Y-67308756D01*
X155245981Y-67423041D02*
X155169791Y-67384946D01*
X155131696Y-67346851D01*
X155093600Y-67270660D01*
X155093600Y-67232565D01*
X155131696Y-67156375D01*
X155169791Y-67118280D01*
X155245981Y-67080184D01*
X155398362Y-67080184D01*
X155474553Y-67118280D01*
X155512648Y-67156375D01*
X155550743Y-67232565D01*
X155550743Y-67270660D01*
X155512648Y-67346851D01*
X155474553Y-67384946D01*
X155398362Y-67423041D01*
X155245981Y-67423041D01*
X155169791Y-67461137D01*
X155131696Y-67499232D01*
X155093600Y-67575422D01*
X155093600Y-67727803D01*
X155131696Y-67803994D01*
X155169791Y-67842089D01*
X155245981Y-67880184D01*
X155398362Y-67880184D01*
X155474553Y-67842089D01*
X155512648Y-67803994D01*
X155550743Y-67727803D01*
X155550743Y-67575422D01*
X155512648Y-67499232D01*
X155474553Y-67461137D01*
X155398362Y-67423041D01*
X178085814Y-66584794D02*
X178047719Y-66622889D01*
X177933433Y-66660984D01*
X177857242Y-66660984D01*
X177742957Y-66622889D01*
X177666766Y-66546699D01*
X177628671Y-66470508D01*
X177590576Y-66318127D01*
X177590576Y-66203841D01*
X177628671Y-66051460D01*
X177666766Y-65975270D01*
X177742957Y-65899080D01*
X177857242Y-65860984D01*
X177933433Y-65860984D01*
X178047719Y-65899080D01*
X178085814Y-65937175D01*
X178390576Y-65937175D02*
X178428671Y-65899080D01*
X178504861Y-65860984D01*
X178695338Y-65860984D01*
X178771528Y-65899080D01*
X178809623Y-65937175D01*
X178847719Y-66013365D01*
X178847719Y-66089556D01*
X178809623Y-66203841D01*
X178352480Y-66660984D01*
X178847719Y-66660984D01*
X179571528Y-65860984D02*
X179190576Y-65860984D01*
X179152480Y-66241937D01*
X179190576Y-66203841D01*
X179266766Y-66165746D01*
X179457242Y-66165746D01*
X179533433Y-66203841D01*
X179571528Y-66241937D01*
X179609623Y-66318127D01*
X179609623Y-66508603D01*
X179571528Y-66584794D01*
X179533433Y-66622889D01*
X179457242Y-66660984D01*
X179266766Y-66660984D01*
X179190576Y-66622889D01*
X179152480Y-66584794D01*
X157588014Y-43331094D02*
X157549919Y-43369189D01*
X157435633Y-43407284D01*
X157359442Y-43407284D01*
X157245157Y-43369189D01*
X157168966Y-43292999D01*
X157130871Y-43216808D01*
X157092776Y-43064427D01*
X157092776Y-42950141D01*
X157130871Y-42797760D01*
X157168966Y-42721570D01*
X157245157Y-42645380D01*
X157359442Y-42607284D01*
X157435633Y-42607284D01*
X157549919Y-42645380D01*
X157588014Y-42683475D01*
X158349919Y-43407284D02*
X157892776Y-43407284D01*
X158121347Y-43407284D02*
X158121347Y-42607284D01*
X158045157Y-42721570D01*
X157968966Y-42797760D01*
X157892776Y-42835856D01*
X159073728Y-42607284D02*
X158692776Y-42607284D01*
X158654680Y-42988237D01*
X158692776Y-42950141D01*
X158768966Y-42912046D01*
X158959442Y-42912046D01*
X159035633Y-42950141D01*
X159073728Y-42988237D01*
X159111823Y-43064427D01*
X159111823Y-43254903D01*
X159073728Y-43331094D01*
X159035633Y-43369189D01*
X158959442Y-43407284D01*
X158768966Y-43407284D01*
X158692776Y-43369189D01*
X158654680Y-43331094D01*
X169926080Y-42259304D02*
X169926080Y-42830733D01*
X169887985Y-42945019D01*
X169811795Y-43021209D01*
X169697509Y-43059304D01*
X169621319Y-43059304D01*
X170726080Y-43059304D02*
X170268938Y-43059304D01*
X170497509Y-43059304D02*
X170497509Y-42259304D01*
X170421319Y-42373590D01*
X170345128Y-42449780D01*
X170268938Y-42487876D01*
X170992747Y-42259304D02*
X171487985Y-42259304D01*
X171221319Y-42564066D01*
X171335604Y-42564066D01*
X171411795Y-42602161D01*
X171449890Y-42640257D01*
X171487985Y-42716447D01*
X171487985Y-42906923D01*
X171449890Y-42983114D01*
X171411795Y-43021209D01*
X171335604Y-43059304D01*
X171107033Y-43059304D01*
X171030842Y-43021209D01*
X170992747Y-42983114D01*
X180256256Y-50153624D02*
X180256256Y-50801243D01*
X180294351Y-50877434D01*
X180332446Y-50915529D01*
X180408637Y-50953624D01*
X180561018Y-50953624D01*
X180637208Y-50915529D01*
X180675303Y-50877434D01*
X180713399Y-50801243D01*
X180713399Y-50153624D01*
X181475303Y-50153624D02*
X181094351Y-50153624D01*
X181056256Y-50534577D01*
X181094351Y-50496481D01*
X181170541Y-50458386D01*
X181361018Y-50458386D01*
X181437208Y-50496481D01*
X181475303Y-50534577D01*
X181513399Y-50610767D01*
X181513399Y-50801243D01*
X181475303Y-50877434D01*
X181437208Y-50915529D01*
X181361018Y-50953624D01*
X181170541Y-50953624D01*
X181094351Y-50915529D01*
X181056256Y-50877434D01*
X165544576Y-66770304D02*
X165544576Y-67417923D01*
X165582671Y-67494114D01*
X165620766Y-67532209D01*
X165696957Y-67570304D01*
X165849338Y-67570304D01*
X165925528Y-67532209D01*
X165963623Y-67494114D01*
X166001719Y-67417923D01*
X166001719Y-66770304D01*
X166306480Y-66770304D02*
X166801719Y-66770304D01*
X166535052Y-67075066D01*
X166649338Y-67075066D01*
X166725528Y-67113161D01*
X166763623Y-67151257D01*
X166801719Y-67227447D01*
X166801719Y-67417923D01*
X166763623Y-67494114D01*
X166725528Y-67532209D01*
X166649338Y-67570304D01*
X166420766Y-67570304D01*
X166344576Y-67532209D01*
X166306480Y-67494114D01*
X163070616Y-55558744D02*
X163070616Y-56206363D01*
X163108711Y-56282554D01*
X163146806Y-56320649D01*
X163222997Y-56358744D01*
X163375378Y-56358744D01*
X163451568Y-56320649D01*
X163489663Y-56282554D01*
X163527759Y-56206363D01*
X163527759Y-55558744D01*
X163870616Y-55634935D02*
X163908711Y-55596840D01*
X163984901Y-55558744D01*
X164175378Y-55558744D01*
X164251568Y-55596840D01*
X164289663Y-55634935D01*
X164327759Y-55711125D01*
X164327759Y-55787316D01*
X164289663Y-55901601D01*
X163832520Y-56358744D01*
X164327759Y-56358744D01*
X170873496Y-80199284D02*
X170873496Y-80846903D01*
X170911591Y-80923094D01*
X170949686Y-80961189D01*
X171025877Y-80999284D01*
X171178258Y-80999284D01*
X171254448Y-80961189D01*
X171292543Y-80923094D01*
X171330639Y-80846903D01*
X171330639Y-80199284D01*
X172130639Y-80999284D02*
X171673496Y-80999284D01*
X171902067Y-80999284D02*
X171902067Y-80199284D01*
X171825877Y-80313570D01*
X171749686Y-80389760D01*
X171673496Y-80427856D01*
X180997993Y-54725529D02*
X181112279Y-54763624D01*
X181302755Y-54763624D01*
X181378945Y-54725529D01*
X181417040Y-54687434D01*
X181455136Y-54611243D01*
X181455136Y-54535053D01*
X181417040Y-54458862D01*
X181378945Y-54420767D01*
X181302755Y-54382672D01*
X181150374Y-54344577D01*
X181074183Y-54306481D01*
X181036088Y-54268386D01*
X180997993Y-54192196D01*
X180997993Y-54116005D01*
X181036088Y-54039815D01*
X181074183Y-54001720D01*
X181150374Y-53963624D01*
X181340850Y-53963624D01*
X181455136Y-54001720D01*
X181721802Y-53963624D02*
X181912279Y-54763624D01*
X182064660Y-54192196D01*
X182217040Y-54763624D01*
X182407517Y-53963624D01*
X182674183Y-54039815D02*
X182712279Y-54001720D01*
X182788469Y-53963624D01*
X182978945Y-53963624D01*
X183055136Y-54001720D01*
X183093231Y-54039815D01*
X183131326Y-54116005D01*
X183131326Y-54192196D01*
X183093231Y-54306481D01*
X182636088Y-54763624D01*
X183131326Y-54763624D01*
X182793773Y-63938109D02*
X182908059Y-63976204D01*
X183098535Y-63976204D01*
X183174725Y-63938109D01*
X183212820Y-63900014D01*
X183250916Y-63823823D01*
X183250916Y-63747633D01*
X183212820Y-63671442D01*
X183174725Y-63633347D01*
X183098535Y-63595252D01*
X182946154Y-63557157D01*
X182869963Y-63519061D01*
X182831868Y-63480966D01*
X182793773Y-63404776D01*
X182793773Y-63328585D01*
X182831868Y-63252395D01*
X182869963Y-63214300D01*
X182946154Y-63176204D01*
X183136630Y-63176204D01*
X183250916Y-63214300D01*
X183517582Y-63176204D02*
X183708059Y-63976204D01*
X183860440Y-63404776D01*
X184012820Y-63976204D01*
X184203297Y-63176204D01*
X184927106Y-63976204D02*
X184469963Y-63976204D01*
X184698535Y-63976204D02*
X184698535Y-63176204D01*
X184622344Y-63290490D01*
X184546154Y-63366680D01*
X184469963Y-63404776D01*
X179109434Y-57207104D02*
X178842767Y-56826152D01*
X178652291Y-57207104D02*
X178652291Y-56407104D01*
X178957053Y-56407104D01*
X179033243Y-56445200D01*
X179071339Y-56483295D01*
X179109434Y-56559485D01*
X179109434Y-56673771D01*
X179071339Y-56749961D01*
X179033243Y-56788057D01*
X178957053Y-56826152D01*
X178652291Y-56826152D01*
X179871339Y-57207104D02*
X179414196Y-57207104D01*
X179642767Y-57207104D02*
X179642767Y-56407104D01*
X179566577Y-56521390D01*
X179490386Y-56597580D01*
X179414196Y-56635676D01*
X180595148Y-56407104D02*
X180214196Y-56407104D01*
X180176100Y-56788057D01*
X180214196Y-56749961D01*
X180290386Y-56711866D01*
X180480862Y-56711866D01*
X180557053Y-56749961D01*
X180595148Y-56788057D01*
X180633243Y-56864247D01*
X180633243Y-57054723D01*
X180595148Y-57130914D01*
X180557053Y-57169009D01*
X180480862Y-57207104D01*
X180290386Y-57207104D01*
X180214196Y-57169009D01*
X180176100Y-57130914D01*
X174021814Y-57339184D02*
X173755147Y-56958232D01*
X173564671Y-57339184D02*
X173564671Y-56539184D01*
X173869433Y-56539184D01*
X173945623Y-56577280D01*
X173983719Y-56615375D01*
X174021814Y-56691565D01*
X174021814Y-56805851D01*
X173983719Y-56882041D01*
X173945623Y-56920137D01*
X173869433Y-56958232D01*
X173564671Y-56958232D01*
X174783719Y-57339184D02*
X174326576Y-57339184D01*
X174555147Y-57339184D02*
X174555147Y-56539184D01*
X174478957Y-56653470D01*
X174402766Y-56729660D01*
X174326576Y-56767756D01*
X175469433Y-56805851D02*
X175469433Y-57339184D01*
X175278957Y-56501089D02*
X175088480Y-57072518D01*
X175583719Y-57072518D01*
X170917934Y-51090784D02*
X170651267Y-50709832D01*
X170460791Y-51090784D02*
X170460791Y-50290784D01*
X170765553Y-50290784D01*
X170841743Y-50328880D01*
X170879839Y-50366975D01*
X170917934Y-50443165D01*
X170917934Y-50557451D01*
X170879839Y-50633641D01*
X170841743Y-50671737D01*
X170765553Y-50709832D01*
X170460791Y-50709832D01*
X171679839Y-51090784D02*
X171222696Y-51090784D01*
X171451267Y-51090784D02*
X171451267Y-50290784D01*
X171375077Y-50405070D01*
X171298886Y-50481260D01*
X171222696Y-50519356D01*
X171984600Y-50366975D02*
X172022696Y-50328880D01*
X172098886Y-50290784D01*
X172289362Y-50290784D01*
X172365553Y-50328880D01*
X172403648Y-50366975D01*
X172441743Y-50443165D01*
X172441743Y-50519356D01*
X172403648Y-50633641D01*
X171946505Y-51090784D01*
X172441743Y-51090784D01*
X182916894Y-97839484D02*
X182650227Y-97458532D01*
X182459751Y-97839484D02*
X182459751Y-97039484D01*
X182764513Y-97039484D01*
X182840703Y-97077580D01*
X182878799Y-97115675D01*
X182916894Y-97191865D01*
X182916894Y-97306151D01*
X182878799Y-97382341D01*
X182840703Y-97420437D01*
X182764513Y-97458532D01*
X182459751Y-97458532D01*
X183678799Y-97839484D02*
X183221656Y-97839484D01*
X183450227Y-97839484D02*
X183450227Y-97039484D01*
X183374037Y-97153770D01*
X183297846Y-97229960D01*
X183221656Y-97268056D01*
X184440703Y-97839484D02*
X183983560Y-97839484D01*
X184212132Y-97839484D02*
X184212132Y-97039484D01*
X184135941Y-97153770D01*
X184059751Y-97229960D01*
X183983560Y-97268056D01*
X178614134Y-84420664D02*
X178347467Y-84039712D01*
X178156991Y-84420664D02*
X178156991Y-83620664D01*
X178461753Y-83620664D01*
X178537943Y-83658760D01*
X178576039Y-83696855D01*
X178614134Y-83773045D01*
X178614134Y-83887331D01*
X178576039Y-83963521D01*
X178537943Y-84001617D01*
X178461753Y-84039712D01*
X178156991Y-84039712D01*
X179376039Y-84420664D02*
X178918896Y-84420664D01*
X179147467Y-84420664D02*
X179147467Y-83620664D01*
X179071277Y-83734950D01*
X178995086Y-83811140D01*
X178918896Y-83849236D01*
X179871277Y-83620664D02*
X179947467Y-83620664D01*
X180023658Y-83658760D01*
X180061753Y-83696855D01*
X180099848Y-83773045D01*
X180137943Y-83925426D01*
X180137943Y-84115902D01*
X180099848Y-84268283D01*
X180061753Y-84344474D01*
X180023658Y-84382569D01*
X179947467Y-84420664D01*
X179871277Y-84420664D01*
X179795086Y-84382569D01*
X179756991Y-84344474D01*
X179718896Y-84268283D01*
X179680800Y-84115902D01*
X179680800Y-83925426D01*
X179718896Y-83773045D01*
X179756991Y-83696855D01*
X179795086Y-83658760D01*
X179871277Y-83620664D01*
X178639486Y-97913144D02*
X178372820Y-97532192D01*
X178182343Y-97913144D02*
X178182343Y-97113144D01*
X178487105Y-97113144D01*
X178563296Y-97151240D01*
X178601391Y-97189335D01*
X178639486Y-97265525D01*
X178639486Y-97379811D01*
X178601391Y-97456001D01*
X178563296Y-97494097D01*
X178487105Y-97532192D01*
X178182343Y-97532192D01*
X179020439Y-97913144D02*
X179172820Y-97913144D01*
X179249010Y-97875049D01*
X179287105Y-97836954D01*
X179363296Y-97722668D01*
X179401391Y-97570287D01*
X179401391Y-97265525D01*
X179363296Y-97189335D01*
X179325200Y-97151240D01*
X179249010Y-97113144D01*
X179096629Y-97113144D01*
X179020439Y-97151240D01*
X178982343Y-97189335D01*
X178944248Y-97265525D01*
X178944248Y-97456001D01*
X178982343Y-97532192D01*
X179020439Y-97570287D01*
X179096629Y-97608382D01*
X179249010Y-97608382D01*
X179325200Y-97570287D01*
X179363296Y-97532192D01*
X179401391Y-97456001D01*
X167755586Y-45868544D02*
X167488920Y-45487592D01*
X167298443Y-45868544D02*
X167298443Y-45068544D01*
X167603205Y-45068544D01*
X167679396Y-45106640D01*
X167717491Y-45144735D01*
X167755586Y-45220925D01*
X167755586Y-45335211D01*
X167717491Y-45411401D01*
X167679396Y-45449497D01*
X167603205Y-45487592D01*
X167298443Y-45487592D01*
X168212729Y-45411401D02*
X168136539Y-45373306D01*
X168098443Y-45335211D01*
X168060348Y-45259020D01*
X168060348Y-45220925D01*
X168098443Y-45144735D01*
X168136539Y-45106640D01*
X168212729Y-45068544D01*
X168365110Y-45068544D01*
X168441300Y-45106640D01*
X168479396Y-45144735D01*
X168517491Y-45220925D01*
X168517491Y-45259020D01*
X168479396Y-45335211D01*
X168441300Y-45373306D01*
X168365110Y-45411401D01*
X168212729Y-45411401D01*
X168136539Y-45449497D01*
X168098443Y-45487592D01*
X168060348Y-45563782D01*
X168060348Y-45716163D01*
X168098443Y-45792354D01*
X168136539Y-45830449D01*
X168212729Y-45868544D01*
X168365110Y-45868544D01*
X168441300Y-45830449D01*
X168479396Y-45792354D01*
X168517491Y-45716163D01*
X168517491Y-45563782D01*
X168479396Y-45487592D01*
X168441300Y-45449497D01*
X168365110Y-45411401D01*
X180922946Y-84458764D02*
X180656280Y-84077812D01*
X180465803Y-84458764D02*
X180465803Y-83658764D01*
X180770565Y-83658764D01*
X180846756Y-83696860D01*
X180884851Y-83734955D01*
X180922946Y-83811145D01*
X180922946Y-83925431D01*
X180884851Y-84001621D01*
X180846756Y-84039717D01*
X180770565Y-84077812D01*
X180465803Y-84077812D01*
X181189613Y-83658764D02*
X181722946Y-83658764D01*
X181380089Y-84458764D01*
X182558706Y-84433364D02*
X182292040Y-84052412D01*
X182101563Y-84433364D02*
X182101563Y-83633364D01*
X182406325Y-83633364D01*
X182482516Y-83671460D01*
X182520611Y-83709555D01*
X182558706Y-83785745D01*
X182558706Y-83900031D01*
X182520611Y-83976221D01*
X182482516Y-84014317D01*
X182406325Y-84052412D01*
X182101563Y-84052412D01*
X183244420Y-83633364D02*
X183092040Y-83633364D01*
X183015849Y-83671460D01*
X182977754Y-83709555D01*
X182901563Y-83823840D01*
X182863468Y-83976221D01*
X182863468Y-84280983D01*
X182901563Y-84357174D01*
X182939659Y-84395269D01*
X183015849Y-84433364D01*
X183168230Y-84433364D01*
X183244420Y-84395269D01*
X183282516Y-84357174D01*
X183320611Y-84280983D01*
X183320611Y-84090507D01*
X183282516Y-84014317D01*
X183244420Y-83976221D01*
X183168230Y-83938126D01*
X183015849Y-83938126D01*
X182939659Y-83976221D01*
X182901563Y-84014317D01*
X182863468Y-84090507D01*
X163435046Y-57953864D02*
X163168380Y-57572912D01*
X162977903Y-57953864D02*
X162977903Y-57153864D01*
X163282665Y-57153864D01*
X163358856Y-57191960D01*
X163396951Y-57230055D01*
X163435046Y-57306245D01*
X163435046Y-57420531D01*
X163396951Y-57496721D01*
X163358856Y-57534817D01*
X163282665Y-57572912D01*
X162977903Y-57572912D01*
X164158856Y-57153864D02*
X163777903Y-57153864D01*
X163739808Y-57534817D01*
X163777903Y-57496721D01*
X163854094Y-57458626D01*
X164044570Y-57458626D01*
X164120760Y-57496721D01*
X164158856Y-57534817D01*
X164196951Y-57611007D01*
X164196951Y-57801483D01*
X164158856Y-57877674D01*
X164120760Y-57915769D01*
X164044570Y-57953864D01*
X163854094Y-57953864D01*
X163777903Y-57915769D01*
X163739808Y-57877674D01*
X165101286Y-57989424D02*
X164834620Y-57608472D01*
X164644143Y-57989424D02*
X164644143Y-57189424D01*
X164948905Y-57189424D01*
X165025096Y-57227520D01*
X165063191Y-57265615D01*
X165101286Y-57341805D01*
X165101286Y-57456091D01*
X165063191Y-57532281D01*
X165025096Y-57570377D01*
X164948905Y-57608472D01*
X164644143Y-57608472D01*
X165787000Y-57456091D02*
X165787000Y-57989424D01*
X165596524Y-57151329D02*
X165406048Y-57722758D01*
X165901286Y-57722758D01*
X183958246Y-56079344D02*
X183691580Y-55698392D01*
X183501103Y-56079344D02*
X183501103Y-55279344D01*
X183805865Y-55279344D01*
X183882056Y-55317440D01*
X183920151Y-55355535D01*
X183958246Y-55431725D01*
X183958246Y-55546011D01*
X183920151Y-55622201D01*
X183882056Y-55660297D01*
X183805865Y-55698392D01*
X183501103Y-55698392D01*
X184224913Y-55279344D02*
X184720151Y-55279344D01*
X184453484Y-55584106D01*
X184567770Y-55584106D01*
X184643960Y-55622201D01*
X184682056Y-55660297D01*
X184720151Y-55736487D01*
X184720151Y-55926963D01*
X184682056Y-56003154D01*
X184643960Y-56041249D01*
X184567770Y-56079344D01*
X184339199Y-56079344D01*
X184263008Y-56041249D01*
X184224913Y-56003154D01*
X163579826Y-72764604D02*
X163313160Y-72383652D01*
X163122683Y-72764604D02*
X163122683Y-71964604D01*
X163427445Y-71964604D01*
X163503636Y-72002700D01*
X163541731Y-72040795D01*
X163579826Y-72116985D01*
X163579826Y-72231271D01*
X163541731Y-72307461D01*
X163503636Y-72345557D01*
X163427445Y-72383652D01*
X163122683Y-72383652D01*
X163884588Y-72040795D02*
X163922683Y-72002700D01*
X163998874Y-71964604D01*
X164189350Y-71964604D01*
X164265540Y-72002700D01*
X164303636Y-72040795D01*
X164341731Y-72116985D01*
X164341731Y-72193176D01*
X164303636Y-72307461D01*
X163846493Y-72764604D01*
X164341731Y-72764604D01*
X184377346Y-65106504D02*
X184110680Y-64725552D01*
X183920203Y-65106504D02*
X183920203Y-64306504D01*
X184224965Y-64306504D01*
X184301156Y-64344600D01*
X184339251Y-64382695D01*
X184377346Y-64458885D01*
X184377346Y-64573171D01*
X184339251Y-64649361D01*
X184301156Y-64687457D01*
X184224965Y-64725552D01*
X183920203Y-64725552D01*
X185139251Y-65106504D02*
X184682108Y-65106504D01*
X184910680Y-65106504D02*
X184910680Y-64306504D01*
X184834489Y-64420790D01*
X184758299Y-64496980D01*
X184682108Y-64535076D01*
X140704586Y-53257404D02*
X140323634Y-53257404D01*
X140323634Y-52457404D01*
X141390300Y-53257404D02*
X140933158Y-53257404D01*
X141161729Y-53257404D02*
X141161729Y-52457404D01*
X141085539Y-52571690D01*
X141009348Y-52647880D01*
X140933158Y-52685976D01*
X140505260Y-100305924D02*
X140505260Y-100877353D01*
X140467165Y-100991639D01*
X140390975Y-101067829D01*
X140276689Y-101105924D01*
X140200499Y-101105924D01*
X141305260Y-101105924D02*
X140848118Y-101105924D01*
X141076689Y-101105924D02*
X141076689Y-100305924D01*
X141000499Y-100420210D01*
X140924308Y-100496400D01*
X140848118Y-100534496D01*
X141571927Y-100305924D02*
X142105260Y-100305924D01*
X141762403Y-101105924D01*
X187426680Y-108047844D02*
X187426680Y-108619273D01*
X187388585Y-108733559D01*
X187312395Y-108809749D01*
X187198109Y-108847844D01*
X187121919Y-108847844D01*
X188226680Y-108847844D02*
X187769538Y-108847844D01*
X187998109Y-108847844D02*
X187998109Y-108047844D01*
X187921919Y-108162130D01*
X187845728Y-108238320D01*
X187769538Y-108276416D01*
X188912395Y-108047844D02*
X188760014Y-108047844D01*
X188683823Y-108085940D01*
X188645728Y-108124035D01*
X188569538Y-108238320D01*
X188531442Y-108390701D01*
X188531442Y-108695463D01*
X188569538Y-108771654D01*
X188607633Y-108809749D01*
X188683823Y-108847844D01*
X188836204Y-108847844D01*
X188912395Y-108809749D01*
X188950490Y-108771654D01*
X188988585Y-108695463D01*
X188988585Y-108504987D01*
X188950490Y-108428797D01*
X188912395Y-108390701D01*
X188836204Y-108352606D01*
X188683823Y-108352606D01*
X188607633Y-108390701D01*
X188569538Y-108428797D01*
X188531442Y-108504987D01*
X144353360Y-108205324D02*
X144353360Y-108776753D01*
X144315265Y-108891039D01*
X144239075Y-108967229D01*
X144124789Y-109005324D01*
X144048599Y-109005324D01*
X145153360Y-109005324D02*
X144696218Y-109005324D01*
X144924789Y-109005324D02*
X144924789Y-108205324D01*
X144848599Y-108319610D01*
X144772408Y-108395800D01*
X144696218Y-108433896D01*
X145877170Y-108205324D02*
X145496218Y-108205324D01*
X145458122Y-108586277D01*
X145496218Y-108548181D01*
X145572408Y-108510086D01*
X145762884Y-108510086D01*
X145839075Y-108548181D01*
X145877170Y-108586277D01*
X145915265Y-108662467D01*
X145915265Y-108852943D01*
X145877170Y-108929134D01*
X145839075Y-108967229D01*
X145762884Y-109005324D01*
X145572408Y-109005324D01*
X145496218Y-108967229D01*
X145458122Y-108929134D01*
X144178100Y-102965304D02*
X144178100Y-103536733D01*
X144140005Y-103651019D01*
X144063815Y-103727209D01*
X143949529Y-103765304D01*
X143873339Y-103765304D01*
X144978100Y-103765304D02*
X144520958Y-103765304D01*
X144749529Y-103765304D02*
X144749529Y-102965304D01*
X144673339Y-103079590D01*
X144597148Y-103155780D01*
X144520958Y-103193876D01*
X145282862Y-103041495D02*
X145320958Y-103003400D01*
X145397148Y-102965304D01*
X145587624Y-102965304D01*
X145663815Y-103003400D01*
X145701910Y-103041495D01*
X145740005Y-103117685D01*
X145740005Y-103193876D01*
X145701910Y-103308161D01*
X145244767Y-103765304D01*
X145740005Y-103765304D01*
X140774500Y-67092884D02*
X140774500Y-67664313D01*
X140736405Y-67778599D01*
X140660215Y-67854789D01*
X140545929Y-67892884D01*
X140469739Y-67892884D01*
X141574500Y-67892884D02*
X141117358Y-67892884D01*
X141345929Y-67892884D02*
X141345929Y-67092884D01*
X141269739Y-67207170D01*
X141193548Y-67283360D01*
X141117358Y-67321456D01*
X142336405Y-67892884D02*
X141879262Y-67892884D01*
X142107834Y-67892884D02*
X142107834Y-67092884D01*
X142031643Y-67207170D01*
X141955453Y-67283360D01*
X141879262Y-67321456D01*
X145669080Y-67039544D02*
X145669080Y-67610973D01*
X145630985Y-67725259D01*
X145554795Y-67801449D01*
X145440509Y-67839544D01*
X145364319Y-67839544D01*
X146469080Y-67839544D02*
X146011938Y-67839544D01*
X146240509Y-67839544D02*
X146240509Y-67039544D01*
X146164319Y-67153830D01*
X146088128Y-67230020D01*
X146011938Y-67268116D01*
X146964319Y-67039544D02*
X147040509Y-67039544D01*
X147116700Y-67077640D01*
X147154795Y-67115735D01*
X147192890Y-67191925D01*
X147230985Y-67344306D01*
X147230985Y-67534782D01*
X147192890Y-67687163D01*
X147154795Y-67763354D01*
X147116700Y-67801449D01*
X147040509Y-67839544D01*
X146964319Y-67839544D01*
X146888128Y-67801449D01*
X146850033Y-67763354D01*
X146811938Y-67687163D01*
X146773842Y-67534782D01*
X146773842Y-67344306D01*
X146811938Y-67191925D01*
X146850033Y-67115735D01*
X146888128Y-67077640D01*
X146964319Y-67039544D01*
X187294553Y-103699364D02*
X187294553Y-104270793D01*
X187256458Y-104385079D01*
X187180267Y-104461269D01*
X187065981Y-104499364D01*
X186989791Y-104499364D01*
X188018362Y-103699364D02*
X187865981Y-103699364D01*
X187789791Y-103737460D01*
X187751696Y-103775555D01*
X187675505Y-103889840D01*
X187637410Y-104042221D01*
X187637410Y-104346983D01*
X187675505Y-104423174D01*
X187713600Y-104461269D01*
X187789791Y-104499364D01*
X187942172Y-104499364D01*
X188018362Y-104461269D01*
X188056458Y-104423174D01*
X188094553Y-104346983D01*
X188094553Y-104156507D01*
X188056458Y-104080317D01*
X188018362Y-104042221D01*
X187942172Y-104004126D01*
X187789791Y-104004126D01*
X187713600Y-104042221D01*
X187675505Y-104080317D01*
X187637410Y-104156507D01*
X181116043Y-57273144D02*
X181116043Y-56473144D01*
X181306520Y-56473144D01*
X181420805Y-56511240D01*
X181496996Y-56587430D01*
X181535091Y-56663620D01*
X181573186Y-56816001D01*
X181573186Y-56930287D01*
X181535091Y-57082668D01*
X181496996Y-57158859D01*
X181420805Y-57235049D01*
X181306520Y-57273144D01*
X181116043Y-57273144D01*
X182030329Y-56816001D02*
X181954139Y-56777906D01*
X181916043Y-56739811D01*
X181877948Y-56663620D01*
X181877948Y-56625525D01*
X181916043Y-56549335D01*
X181954139Y-56511240D01*
X182030329Y-56473144D01*
X182182710Y-56473144D01*
X182258900Y-56511240D01*
X182296996Y-56549335D01*
X182335091Y-56625525D01*
X182335091Y-56663620D01*
X182296996Y-56739811D01*
X182258900Y-56777906D01*
X182182710Y-56816001D01*
X182030329Y-56816001D01*
X181954139Y-56854097D01*
X181916043Y-56892192D01*
X181877948Y-56968382D01*
X181877948Y-57120763D01*
X181916043Y-57196954D01*
X181954139Y-57235049D01*
X182030329Y-57273144D01*
X182182710Y-57273144D01*
X182258900Y-57235049D01*
X182296996Y-57196954D01*
X182335091Y-57120763D01*
X182335091Y-56968382D01*
X182296996Y-56892192D01*
X182258900Y-56854097D01*
X182182710Y-56816001D01*
X176160503Y-57316324D02*
X176160503Y-56516324D01*
X176350980Y-56516324D01*
X176465265Y-56554420D01*
X176541456Y-56630610D01*
X176579551Y-56706800D01*
X176617646Y-56859181D01*
X176617646Y-56973467D01*
X176579551Y-57125848D01*
X176541456Y-57202039D01*
X176465265Y-57278229D01*
X176350980Y-57316324D01*
X176160503Y-57316324D01*
X176884313Y-56516324D02*
X177417646Y-56516324D01*
X177074789Y-57316324D01*
X168113783Y-50173844D02*
X168113783Y-49373844D01*
X168304260Y-49373844D01*
X168418545Y-49411940D01*
X168494736Y-49488130D01*
X168532831Y-49564320D01*
X168570926Y-49716701D01*
X168570926Y-49830987D01*
X168532831Y-49983368D01*
X168494736Y-50059559D01*
X168418545Y-50135749D01*
X168304260Y-50173844D01*
X168113783Y-50173844D01*
X169256640Y-49373844D02*
X169104260Y-49373844D01*
X169028069Y-49411940D01*
X168989974Y-49450035D01*
X168913783Y-49564320D01*
X168875688Y-49716701D01*
X168875688Y-50021463D01*
X168913783Y-50097654D01*
X168951879Y-50135749D01*
X169028069Y-50173844D01*
X169180450Y-50173844D01*
X169256640Y-50135749D01*
X169294736Y-50097654D01*
X169332831Y-50021463D01*
X169332831Y-49830987D01*
X169294736Y-49754797D01*
X169256640Y-49716701D01*
X169180450Y-49678606D01*
X169028069Y-49678606D01*
X168951879Y-49716701D01*
X168913783Y-49754797D01*
X168875688Y-49830987D01*
X161598683Y-72734124D02*
X161598683Y-71934124D01*
X161789160Y-71934124D01*
X161903445Y-71972220D01*
X161979636Y-72048410D01*
X162017731Y-72124600D01*
X162055826Y-72276981D01*
X162055826Y-72391267D01*
X162017731Y-72543648D01*
X161979636Y-72619839D01*
X161903445Y-72696029D01*
X161789160Y-72734124D01*
X161598683Y-72734124D01*
X162817731Y-72734124D02*
X162360588Y-72734124D01*
X162589160Y-72734124D02*
X162589160Y-71934124D01*
X162512969Y-72048410D01*
X162436779Y-72124600D01*
X162360588Y-72162696D01*
X170836654Y-56648314D02*
X170798559Y-56686409D01*
X170684273Y-56724504D01*
X170608082Y-56724504D01*
X170493797Y-56686409D01*
X170417606Y-56610219D01*
X170379511Y-56534028D01*
X170341416Y-56381647D01*
X170341416Y-56267361D01*
X170379511Y-56114980D01*
X170417606Y-56038790D01*
X170493797Y-55962600D01*
X170608082Y-55924504D01*
X170684273Y-55924504D01*
X170798559Y-55962600D01*
X170836654Y-56000695D01*
X171141416Y-56000695D02*
X171179511Y-55962600D01*
X171255701Y-55924504D01*
X171446178Y-55924504D01*
X171522368Y-55962600D01*
X171560463Y-56000695D01*
X171598559Y-56076885D01*
X171598559Y-56153076D01*
X171560463Y-56267361D01*
X171103320Y-56724504D01*
X171598559Y-56724504D01*
X172055701Y-56267361D02*
X171979511Y-56229266D01*
X171941416Y-56191171D01*
X171903320Y-56114980D01*
X171903320Y-56076885D01*
X171941416Y-56000695D01*
X171979511Y-55962600D01*
X172055701Y-55924504D01*
X172208082Y-55924504D01*
X172284273Y-55962600D01*
X172322368Y-56000695D01*
X172360463Y-56076885D01*
X172360463Y-56114980D01*
X172322368Y-56191171D01*
X172284273Y-56229266D01*
X172208082Y-56267361D01*
X172055701Y-56267361D01*
X171979511Y-56305457D01*
X171941416Y-56343552D01*
X171903320Y-56419742D01*
X171903320Y-56572123D01*
X171941416Y-56648314D01*
X171979511Y-56686409D01*
X172055701Y-56724504D01*
X172208082Y-56724504D01*
X172284273Y-56686409D01*
X172322368Y-56648314D01*
X172360463Y-56572123D01*
X172360463Y-56419742D01*
X172322368Y-56343552D01*
X172284273Y-56305457D01*
X172208082Y-56267361D01*
X170755374Y-57765914D02*
X170717279Y-57804009D01*
X170602993Y-57842104D01*
X170526802Y-57842104D01*
X170412517Y-57804009D01*
X170336326Y-57727819D01*
X170298231Y-57651628D01*
X170260136Y-57499247D01*
X170260136Y-57384961D01*
X170298231Y-57232580D01*
X170336326Y-57156390D01*
X170412517Y-57080200D01*
X170526802Y-57042104D01*
X170602993Y-57042104D01*
X170717279Y-57080200D01*
X170755374Y-57118295D01*
X171060136Y-57118295D02*
X171098231Y-57080200D01*
X171174421Y-57042104D01*
X171364898Y-57042104D01*
X171441088Y-57080200D01*
X171479183Y-57118295D01*
X171517279Y-57194485D01*
X171517279Y-57270676D01*
X171479183Y-57384961D01*
X171022040Y-57842104D01*
X171517279Y-57842104D01*
X171783945Y-57042104D02*
X172317279Y-57042104D01*
X171974421Y-57842104D01*
X180331174Y-97849654D02*
X180293079Y-97887749D01*
X180178793Y-97925844D01*
X180102602Y-97925844D01*
X179988317Y-97887749D01*
X179912126Y-97811559D01*
X179874031Y-97735368D01*
X179835936Y-97582987D01*
X179835936Y-97468701D01*
X179874031Y-97316320D01*
X179912126Y-97240130D01*
X179988317Y-97163940D01*
X180102602Y-97125844D01*
X180178793Y-97125844D01*
X180293079Y-97163940D01*
X180331174Y-97202035D01*
X180635936Y-97202035D02*
X180674031Y-97163940D01*
X180750221Y-97125844D01*
X180940698Y-97125844D01*
X181016888Y-97163940D01*
X181054983Y-97202035D01*
X181093079Y-97278225D01*
X181093079Y-97354416D01*
X181054983Y-97468701D01*
X180597840Y-97925844D01*
X181093079Y-97925844D01*
X181778793Y-97125844D02*
X181626412Y-97125844D01*
X181550221Y-97163940D01*
X181512126Y-97202035D01*
X181435936Y-97316320D01*
X181397840Y-97468701D01*
X181397840Y-97773463D01*
X181435936Y-97849654D01*
X181474031Y-97887749D01*
X181550221Y-97925844D01*
X181702602Y-97925844D01*
X181778793Y-97887749D01*
X181816888Y-97849654D01*
X181854983Y-97773463D01*
X181854983Y-97582987D01*
X181816888Y-97506797D01*
X181778793Y-97468701D01*
X181702602Y-97430606D01*
X181550221Y-97430606D01*
X181474031Y-97468701D01*
X181435936Y-97506797D01*
X181397840Y-97582987D01*
X183981154Y-93356394D02*
X183943059Y-93394489D01*
X183828773Y-93432584D01*
X183752582Y-93432584D01*
X183638297Y-93394489D01*
X183562106Y-93318299D01*
X183524011Y-93242108D01*
X183485916Y-93089727D01*
X183485916Y-92975441D01*
X183524011Y-92823060D01*
X183562106Y-92746870D01*
X183638297Y-92670680D01*
X183752582Y-92632584D01*
X183828773Y-92632584D01*
X183943059Y-92670680D01*
X183981154Y-92708775D01*
X184285916Y-92708775D02*
X184324011Y-92670680D01*
X184400201Y-92632584D01*
X184590678Y-92632584D01*
X184666868Y-92670680D01*
X184704963Y-92708775D01*
X184743059Y-92784965D01*
X184743059Y-92861156D01*
X184704963Y-92975441D01*
X184247820Y-93432584D01*
X184743059Y-93432584D01*
X185428773Y-92899251D02*
X185428773Y-93432584D01*
X185238297Y-92594489D02*
X185047820Y-93165918D01*
X185543059Y-93165918D01*
X183963374Y-89241594D02*
X183925279Y-89279689D01*
X183810993Y-89317784D01*
X183734802Y-89317784D01*
X183620517Y-89279689D01*
X183544326Y-89203499D01*
X183506231Y-89127308D01*
X183468136Y-88974927D01*
X183468136Y-88860641D01*
X183506231Y-88708260D01*
X183544326Y-88632070D01*
X183620517Y-88555880D01*
X183734802Y-88517784D01*
X183810993Y-88517784D01*
X183925279Y-88555880D01*
X183963374Y-88593975D01*
X184268136Y-88593975D02*
X184306231Y-88555880D01*
X184382421Y-88517784D01*
X184572898Y-88517784D01*
X184649088Y-88555880D01*
X184687183Y-88593975D01*
X184725279Y-88670165D01*
X184725279Y-88746356D01*
X184687183Y-88860641D01*
X184230040Y-89317784D01*
X184725279Y-89317784D01*
X184991945Y-88517784D02*
X185487183Y-88517784D01*
X185220517Y-88822546D01*
X185334802Y-88822546D01*
X185410993Y-88860641D01*
X185449088Y-88898737D01*
X185487183Y-88974927D01*
X185487183Y-89165403D01*
X185449088Y-89241594D01*
X185410993Y-89279689D01*
X185334802Y-89317784D01*
X185106231Y-89317784D01*
X185030040Y-89279689D01*
X184991945Y-89241594D01*
X163742434Y-66414614D02*
X163704339Y-66452709D01*
X163590053Y-66490804D01*
X163513862Y-66490804D01*
X163399577Y-66452709D01*
X163323386Y-66376519D01*
X163285291Y-66300328D01*
X163247196Y-66147947D01*
X163247196Y-66033661D01*
X163285291Y-65881280D01*
X163323386Y-65805090D01*
X163399577Y-65728900D01*
X163513862Y-65690804D01*
X163590053Y-65690804D01*
X163704339Y-65728900D01*
X163742434Y-65766995D01*
X164047196Y-65766995D02*
X164085291Y-65728900D01*
X164161481Y-65690804D01*
X164351958Y-65690804D01*
X164428148Y-65728900D01*
X164466243Y-65766995D01*
X164504339Y-65843185D01*
X164504339Y-65919376D01*
X164466243Y-66033661D01*
X164009100Y-66490804D01*
X164504339Y-66490804D01*
X164809100Y-65766995D02*
X164847196Y-65728900D01*
X164923386Y-65690804D01*
X165113862Y-65690804D01*
X165190053Y-65728900D01*
X165228148Y-65766995D01*
X165266243Y-65843185D01*
X165266243Y-65919376D01*
X165228148Y-66033661D01*
X164771005Y-66490804D01*
X165266243Y-66490804D01*
X192566306Y-56015854D02*
X192528211Y-56053949D01*
X192413925Y-56092044D01*
X192337735Y-56092044D01*
X192223449Y-56053949D01*
X192147259Y-55977759D01*
X192109163Y-55901568D01*
X192071068Y-55749187D01*
X192071068Y-55634901D01*
X192109163Y-55482520D01*
X192147259Y-55406330D01*
X192223449Y-55330140D01*
X192337735Y-55292044D01*
X192413925Y-55292044D01*
X192528211Y-55330140D01*
X192566306Y-55368235D01*
X192871068Y-55368235D02*
X192909163Y-55330140D01*
X192985354Y-55292044D01*
X193175830Y-55292044D01*
X193252020Y-55330140D01*
X193290116Y-55368235D01*
X193328211Y-55444425D01*
X193328211Y-55520616D01*
X193290116Y-55634901D01*
X192832973Y-56092044D01*
X193328211Y-56092044D01*
X157275594Y-67600794D02*
X157237499Y-67638889D01*
X157123213Y-67676984D01*
X157047022Y-67676984D01*
X156932737Y-67638889D01*
X156856546Y-67562699D01*
X156818451Y-67486508D01*
X156780356Y-67334127D01*
X156780356Y-67219841D01*
X156818451Y-67067460D01*
X156856546Y-66991270D01*
X156932737Y-66915080D01*
X157047022Y-66876984D01*
X157123213Y-66876984D01*
X157237499Y-66915080D01*
X157275594Y-66953175D01*
X158037499Y-67676984D02*
X157580356Y-67676984D01*
X157808927Y-67676984D02*
X157808927Y-66876984D01*
X157732737Y-66991270D01*
X157656546Y-67067460D01*
X157580356Y-67105556D01*
X158418451Y-67676984D02*
X158570832Y-67676984D01*
X158647022Y-67638889D01*
X158685118Y-67600794D01*
X158761308Y-67486508D01*
X158799403Y-67334127D01*
X158799403Y-67029365D01*
X158761308Y-66953175D01*
X158723213Y-66915080D01*
X158647022Y-66876984D01*
X158494641Y-66876984D01*
X158418451Y-66915080D01*
X158380356Y-66953175D01*
X158342260Y-67029365D01*
X158342260Y-67219841D01*
X158380356Y-67296032D01*
X158418451Y-67334127D01*
X158494641Y-67372222D01*
X158647022Y-67372222D01*
X158723213Y-67334127D01*
X158761308Y-67296032D01*
X158799403Y-67219841D01*
X156980954Y-53346314D02*
X156942859Y-53384409D01*
X156828573Y-53422504D01*
X156752382Y-53422504D01*
X156638097Y-53384409D01*
X156561906Y-53308219D01*
X156523811Y-53232028D01*
X156485716Y-53079647D01*
X156485716Y-52965361D01*
X156523811Y-52812980D01*
X156561906Y-52736790D01*
X156638097Y-52660600D01*
X156752382Y-52622504D01*
X156828573Y-52622504D01*
X156942859Y-52660600D01*
X156980954Y-52698695D01*
X157742859Y-53422504D02*
X157285716Y-53422504D01*
X157514287Y-53422504D02*
X157514287Y-52622504D01*
X157438097Y-52736790D01*
X157361906Y-52812980D01*
X157285716Y-52851076D01*
X158009525Y-52622504D02*
X158542859Y-52622504D01*
X158200001Y-53422504D01*
X162627374Y-53460614D02*
X162589279Y-53498709D01*
X162474993Y-53536804D01*
X162398802Y-53536804D01*
X162284517Y-53498709D01*
X162208326Y-53422519D01*
X162170231Y-53346328D01*
X162132136Y-53193947D01*
X162132136Y-53079661D01*
X162170231Y-52927280D01*
X162208326Y-52851090D01*
X162284517Y-52774900D01*
X162398802Y-52736804D01*
X162474993Y-52736804D01*
X162589279Y-52774900D01*
X162627374Y-52812995D01*
X163389279Y-53536804D02*
X162932136Y-53536804D01*
X163160707Y-53536804D02*
X163160707Y-52736804D01*
X163084517Y-52851090D01*
X163008326Y-52927280D01*
X162932136Y-52965376D01*
X164074993Y-52736804D02*
X163922612Y-52736804D01*
X163846421Y-52774900D01*
X163808326Y-52812995D01*
X163732136Y-52927280D01*
X163694040Y-53079661D01*
X163694040Y-53384423D01*
X163732136Y-53460614D01*
X163770231Y-53498709D01*
X163846421Y-53536804D01*
X163998802Y-53536804D01*
X164074993Y-53498709D01*
X164113088Y-53460614D01*
X164151183Y-53384423D01*
X164151183Y-53193947D01*
X164113088Y-53117757D01*
X164074993Y-53079661D01*
X163998802Y-53041566D01*
X163846421Y-53041566D01*
X163770231Y-53079661D01*
X163732136Y-53117757D01*
X163694040Y-53193947D01*
X167328914Y-68781894D02*
X167290819Y-68819989D01*
X167176533Y-68858084D01*
X167100342Y-68858084D01*
X166986057Y-68819989D01*
X166909866Y-68743799D01*
X166871771Y-68667608D01*
X166833676Y-68515227D01*
X166833676Y-68400941D01*
X166871771Y-68248560D01*
X166909866Y-68172370D01*
X166986057Y-68096180D01*
X167100342Y-68058084D01*
X167176533Y-68058084D01*
X167290819Y-68096180D01*
X167328914Y-68134275D01*
X168090819Y-68858084D02*
X167633676Y-68858084D01*
X167862247Y-68858084D02*
X167862247Y-68058084D01*
X167786057Y-68172370D01*
X167709866Y-68248560D01*
X167633676Y-68286656D01*
X168395580Y-68134275D02*
X168433676Y-68096180D01*
X168509866Y-68058084D01*
X168700342Y-68058084D01*
X168776533Y-68096180D01*
X168814628Y-68134275D01*
X168852723Y-68210465D01*
X168852723Y-68286656D01*
X168814628Y-68400941D01*
X168357485Y-68858084D01*
X168852723Y-68858084D01*
X176320514Y-68583774D02*
X176282419Y-68621869D01*
X176168133Y-68659964D01*
X176091942Y-68659964D01*
X175977657Y-68621869D01*
X175901466Y-68545679D01*
X175863371Y-68469488D01*
X175825276Y-68317107D01*
X175825276Y-68202821D01*
X175863371Y-68050440D01*
X175901466Y-67974250D01*
X175977657Y-67898060D01*
X176091942Y-67859964D01*
X176168133Y-67859964D01*
X176282419Y-67898060D01*
X176320514Y-67936155D01*
X177082419Y-68659964D02*
X176625276Y-68659964D01*
X176853847Y-68659964D02*
X176853847Y-67859964D01*
X176777657Y-67974250D01*
X176701466Y-68050440D01*
X176625276Y-68088536D01*
X177844323Y-68659964D02*
X177387180Y-68659964D01*
X177615752Y-68659964D02*
X177615752Y-67859964D01*
X177539561Y-67974250D01*
X177463371Y-68050440D01*
X177387180Y-68088536D01*
X169086594Y-98733574D02*
X169048499Y-98771669D01*
X168934213Y-98809764D01*
X168858022Y-98809764D01*
X168743737Y-98771669D01*
X168667546Y-98695479D01*
X168629451Y-98619288D01*
X168591356Y-98466907D01*
X168591356Y-98352621D01*
X168629451Y-98200240D01*
X168667546Y-98124050D01*
X168743737Y-98047860D01*
X168858022Y-98009764D01*
X168934213Y-98009764D01*
X169048499Y-98047860D01*
X169086594Y-98085955D01*
X169848499Y-98809764D02*
X169391356Y-98809764D01*
X169619927Y-98809764D02*
X169619927Y-98009764D01*
X169543737Y-98124050D01*
X169467546Y-98200240D01*
X169391356Y-98238336D01*
X170343737Y-98009764D02*
X170419927Y-98009764D01*
X170496118Y-98047860D01*
X170534213Y-98085955D01*
X170572308Y-98162145D01*
X170610403Y-98314526D01*
X170610403Y-98505002D01*
X170572308Y-98657383D01*
X170534213Y-98733574D01*
X170496118Y-98771669D01*
X170419927Y-98809764D01*
X170343737Y-98809764D01*
X170267546Y-98771669D01*
X170229451Y-98733574D01*
X170191356Y-98657383D01*
X170153260Y-98505002D01*
X170153260Y-98314526D01*
X170191356Y-98162145D01*
X170229451Y-98085955D01*
X170267546Y-98047860D01*
X170343737Y-98009764D01*
X154075146Y-91276134D02*
X154037051Y-91314229D01*
X153922765Y-91352324D01*
X153846575Y-91352324D01*
X153732289Y-91314229D01*
X153656099Y-91238039D01*
X153618003Y-91161848D01*
X153579908Y-91009467D01*
X153579908Y-90895181D01*
X153618003Y-90742800D01*
X153656099Y-90666610D01*
X153732289Y-90590420D01*
X153846575Y-90552324D01*
X153922765Y-90552324D01*
X154037051Y-90590420D01*
X154075146Y-90628515D01*
X154456099Y-91352324D02*
X154608480Y-91352324D01*
X154684670Y-91314229D01*
X154722765Y-91276134D01*
X154798956Y-91161848D01*
X154837051Y-91009467D01*
X154837051Y-90704705D01*
X154798956Y-90628515D01*
X154760860Y-90590420D01*
X154684670Y-90552324D01*
X154532289Y-90552324D01*
X154456099Y-90590420D01*
X154418003Y-90628515D01*
X154379908Y-90704705D01*
X154379908Y-90895181D01*
X154418003Y-90971372D01*
X154456099Y-91009467D01*
X154532289Y-91047562D01*
X154684670Y-91047562D01*
X154760860Y-91009467D01*
X154798956Y-90971372D01*
X154837051Y-90895181D01*
X192591706Y-64164174D02*
X192553611Y-64202269D01*
X192439325Y-64240364D01*
X192363135Y-64240364D01*
X192248849Y-64202269D01*
X192172659Y-64126079D01*
X192134563Y-64049888D01*
X192096468Y-63897507D01*
X192096468Y-63783221D01*
X192134563Y-63630840D01*
X192172659Y-63554650D01*
X192248849Y-63478460D01*
X192363135Y-63440364D01*
X192439325Y-63440364D01*
X192553611Y-63478460D01*
X192591706Y-63516555D01*
X193048849Y-63783221D02*
X192972659Y-63745126D01*
X192934563Y-63707031D01*
X192896468Y-63630840D01*
X192896468Y-63592745D01*
X192934563Y-63516555D01*
X192972659Y-63478460D01*
X193048849Y-63440364D01*
X193201230Y-63440364D01*
X193277420Y-63478460D01*
X193315516Y-63516555D01*
X193353611Y-63592745D01*
X193353611Y-63630840D01*
X193315516Y-63707031D01*
X193277420Y-63745126D01*
X193201230Y-63783221D01*
X193048849Y-63783221D01*
X192972659Y-63821317D01*
X192934563Y-63859412D01*
X192896468Y-63935602D01*
X192896468Y-64087983D01*
X192934563Y-64164174D01*
X192972659Y-64202269D01*
X193048849Y-64240364D01*
X193201230Y-64240364D01*
X193277420Y-64202269D01*
X193315516Y-64164174D01*
X193353611Y-64087983D01*
X193353611Y-63935602D01*
X193315516Y-63859412D01*
X193277420Y-63821317D01*
X193201230Y-63783221D01*
X153998946Y-94524794D02*
X153960851Y-94562889D01*
X153846565Y-94600984D01*
X153770375Y-94600984D01*
X153656089Y-94562889D01*
X153579899Y-94486699D01*
X153541803Y-94410508D01*
X153503708Y-94258127D01*
X153503708Y-94143841D01*
X153541803Y-93991460D01*
X153579899Y-93915270D01*
X153656089Y-93839080D01*
X153770375Y-93800984D01*
X153846565Y-93800984D01*
X153960851Y-93839080D01*
X153998946Y-93877175D01*
X154265613Y-93800984D02*
X154798946Y-93800984D01*
X154456089Y-94600984D01*
X175213026Y-81956874D02*
X175174931Y-81994969D01*
X175060645Y-82033064D01*
X174984455Y-82033064D01*
X174870169Y-81994969D01*
X174793979Y-81918779D01*
X174755883Y-81842588D01*
X174717788Y-81690207D01*
X174717788Y-81575921D01*
X174755883Y-81423540D01*
X174793979Y-81347350D01*
X174870169Y-81271160D01*
X174984455Y-81233064D01*
X175060645Y-81233064D01*
X175174931Y-81271160D01*
X175213026Y-81309255D01*
X175898740Y-81233064D02*
X175746360Y-81233064D01*
X175670169Y-81271160D01*
X175632074Y-81309255D01*
X175555883Y-81423540D01*
X175517788Y-81575921D01*
X175517788Y-81880683D01*
X175555883Y-81956874D01*
X175593979Y-81994969D01*
X175670169Y-82033064D01*
X175822550Y-82033064D01*
X175898740Y-81994969D01*
X175936836Y-81956874D01*
X175974931Y-81880683D01*
X175974931Y-81690207D01*
X175936836Y-81614017D01*
X175898740Y-81575921D01*
X175822550Y-81537826D01*
X175670169Y-81537826D01*
X175593979Y-81575921D01*
X175555883Y-81614017D01*
X175517788Y-81690207D01*
X154103086Y-84247954D02*
X154064991Y-84286049D01*
X153950705Y-84324144D01*
X153874515Y-84324144D01*
X153760229Y-84286049D01*
X153684039Y-84209859D01*
X153645943Y-84133668D01*
X153607848Y-83981287D01*
X153607848Y-83867001D01*
X153645943Y-83714620D01*
X153684039Y-83638430D01*
X153760229Y-83562240D01*
X153874515Y-83524144D01*
X153950705Y-83524144D01*
X154064991Y-83562240D01*
X154103086Y-83600335D01*
X154826896Y-83524144D02*
X154445943Y-83524144D01*
X154407848Y-83905097D01*
X154445943Y-83867001D01*
X154522134Y-83828906D01*
X154712610Y-83828906D01*
X154788800Y-83867001D01*
X154826896Y-83905097D01*
X154864991Y-83981287D01*
X154864991Y-84171763D01*
X154826896Y-84247954D01*
X154788800Y-84286049D01*
X154712610Y-84324144D01*
X154522134Y-84324144D01*
X154445943Y-84286049D01*
X154407848Y-84247954D01*
X163744926Y-75317314D02*
X163706831Y-75355409D01*
X163592545Y-75393504D01*
X163516355Y-75393504D01*
X163402069Y-75355409D01*
X163325879Y-75279219D01*
X163287783Y-75203028D01*
X163249688Y-75050647D01*
X163249688Y-74936361D01*
X163287783Y-74783980D01*
X163325879Y-74707790D01*
X163402069Y-74631600D01*
X163516355Y-74593504D01*
X163592545Y-74593504D01*
X163706831Y-74631600D01*
X163744926Y-74669695D01*
X164430640Y-74860171D02*
X164430640Y-75393504D01*
X164240164Y-74555409D02*
X164049688Y-75126838D01*
X164544926Y-75126838D01*
X171613846Y-98626894D02*
X171575751Y-98664989D01*
X171461465Y-98703084D01*
X171385275Y-98703084D01*
X171270989Y-98664989D01*
X171194799Y-98588799D01*
X171156703Y-98512608D01*
X171118608Y-98360227D01*
X171118608Y-98245941D01*
X171156703Y-98093560D01*
X171194799Y-98017370D01*
X171270989Y-97941180D01*
X171385275Y-97903084D01*
X171461465Y-97903084D01*
X171575751Y-97941180D01*
X171613846Y-97979275D01*
X171880513Y-97903084D02*
X172375751Y-97903084D01*
X172109084Y-98207846D01*
X172223370Y-98207846D01*
X172299560Y-98245941D01*
X172337656Y-98284037D01*
X172375751Y-98360227D01*
X172375751Y-98550703D01*
X172337656Y-98626894D01*
X172299560Y-98664989D01*
X172223370Y-98703084D01*
X171994799Y-98703084D01*
X171918608Y-98664989D01*
X171880513Y-98626894D01*
X169802874Y-75332554D02*
X169764779Y-75370649D01*
X169650493Y-75408744D01*
X169574302Y-75408744D01*
X169460017Y-75370649D01*
X169383826Y-75294459D01*
X169345731Y-75218268D01*
X169307636Y-75065887D01*
X169307636Y-74951601D01*
X169345731Y-74799220D01*
X169383826Y-74723030D01*
X169460017Y-74646840D01*
X169574302Y-74608744D01*
X169650493Y-74608744D01*
X169764779Y-74646840D01*
X169802874Y-74684935D01*
X170107636Y-74684935D02*
X170145731Y-74646840D01*
X170221921Y-74608744D01*
X170412398Y-74608744D01*
X170488588Y-74646840D01*
X170526683Y-74684935D01*
X170564779Y-74761125D01*
X170564779Y-74837316D01*
X170526683Y-74951601D01*
X170069540Y-75408744D01*
X170564779Y-75408744D01*
X171060017Y-74608744D02*
X171136207Y-74608744D01*
X171212398Y-74646840D01*
X171250493Y-74684935D01*
X171288588Y-74761125D01*
X171326683Y-74913506D01*
X171326683Y-75103982D01*
X171288588Y-75256363D01*
X171250493Y-75332554D01*
X171212398Y-75370649D01*
X171136207Y-75408744D01*
X171060017Y-75408744D01*
X170983826Y-75370649D01*
X170945731Y-75332554D01*
X170907636Y-75256363D01*
X170869540Y-75103982D01*
X170869540Y-74913506D01*
X170907636Y-74761125D01*
X170945731Y-74684935D01*
X170983826Y-74646840D01*
X171060017Y-74608744D01*
X160747726Y-78799654D02*
X160709631Y-78837749D01*
X160595345Y-78875844D01*
X160519155Y-78875844D01*
X160404869Y-78837749D01*
X160328679Y-78761559D01*
X160290583Y-78685368D01*
X160252488Y-78532987D01*
X160252488Y-78418701D01*
X160290583Y-78266320D01*
X160328679Y-78190130D01*
X160404869Y-78113940D01*
X160519155Y-78075844D01*
X160595345Y-78075844D01*
X160709631Y-78113940D01*
X160747726Y-78152035D01*
X161509631Y-78875844D02*
X161052488Y-78875844D01*
X161281060Y-78875844D02*
X161281060Y-78075844D01*
X161204869Y-78190130D01*
X161128679Y-78266320D01*
X161052488Y-78304416D01*
M02*
