M48
; DRILL file {KiCad 5.1.5-52549c5~86~ubuntu18.04.1} date Thứ hai, 18 Tháng 5 Năm 2020 11:22:35 +07
; FORMAT={-:-/ absolute / metric / decimal}
; #@! TF.CreationDate,2020-05-18T11:22:35+07:00
; #@! TF.GenerationSoftware,Kicad,Pcbnew,5.1.5-52549c5~86~ubuntu18.04.1
FMAT,2
METRIC
T1C0.400
T2C0.550
T3C0.800
T4C0.850
T5C0.950
T6C1.000
T7C0.800
%
G90
G05
T1
X140.945Y-57.638
X140.945Y-58.908
X140.945Y-60.178
X141.58Y-81.133
X141.58Y-82.403
X142.215Y-57.638
X142.215Y-58.908
X142.215Y-60.178
X142.85Y-81.133
X142.85Y-82.403
X143.485Y-47.478
X143.485Y-48.748
X143.485Y-50.018
X143.703Y-69.664
X144.521Y-69.089
X144.755Y-47.478
X144.755Y-48.748
X144.755Y-50.018
X144.755Y-93.833
X144.755Y-95.103
X144.755Y-96.373
X144.755Y-102.088
X144.755Y-103.358
X144.755Y-104.628
X145.478Y-68.78
X145.694Y-75.316
X145.694Y-76.586
X145.694Y-83.571
X145.694Y-84.841
X146.025Y-93.833
X146.025Y-95.103
X146.025Y-96.373
X146.025Y-102.088
X146.025Y-103.358
X146.025Y-104.628
X147.825Y-92.514
X148.234Y-69.601
X148.272Y-91.619
X148.488Y-77.059
X149.504Y-69.601
X149.809Y-87.355
X149.898Y-80.802
X150.139Y-42.931
X150.139Y-44.201
X150.139Y-65.728
X150.139Y-66.998
X150.348Y-88.198
X150.647Y-83.683
X150.678Y-89.142
X150.914Y-81.387
X151.409Y-42.931
X151.409Y-44.201
X151.409Y-65.728
X151.409Y-66.998
X151.458Y-89.934
X152.679Y-42.931
X152.679Y-44.201
X152.679Y-55.631
X152.679Y-56.901
X152.679Y-58.171
X152.679Y-65.728
X152.679Y-66.998
X152.837Y-92.045
X152.837Y-93.315
X152.837Y-94.585
X153.01Y-103.993
X153.01Y-105.263
X153.314Y-83.571
X153.949Y-45.471
X153.949Y-46.741
X153.949Y-55.631
X153.949Y-56.901
X153.949Y-58.171
X154.107Y-92.045
X154.107Y-93.315
X154.107Y-94.585
X154.28Y-103.993
X154.28Y-105.263
X154.584Y-83.571
X155.219Y-45.471
X155.219Y-46.741
X155.55Y-103.993
X155.55Y-105.263
X156.696Y-88.615
X158.204Y-94.945
X158.394Y-72.776
X158.394Y-74.046
X158.394Y-75.316
X158.394Y-76.586
X158.501Y-83.683
X158.777Y-93.83
X159.0Y-99.531
X159.029Y-65.601
X159.029Y-66.871
X159.266Y-83.569
X159.304Y-80.193
X159.502Y-100.431
X159.512Y-91.27
X159.664Y-75.951
X159.664Y-77.221
X159.973Y-91.853
X160.299Y-65.601
X160.299Y-66.871
X160.538Y-92.418
X160.934Y-75.951
X160.934Y-77.221
X160.934Y-106.431
X160.934Y-107.701
X161.487Y-99.264
X162.133Y-79.502
X162.463Y-99.017
X162.535Y-53.193
X162.971Y-79.484
X163.414Y-98.707
X163.474Y-49.916
X163.474Y-51.186
X163.474Y-56.266
X163.474Y-57.536
X163.474Y-65.791
X163.474Y-72.141
X163.474Y-73.411
X163.784Y-79.459
X163.805Y-53.193
X164.744Y-49.916
X164.744Y-51.186
X164.744Y-56.266
X164.744Y-57.536
X164.744Y-65.791
X164.744Y-84.841
X164.744Y-86.746
X164.744Y-88.651
X165.27Y-98.337
X166.014Y-49.916
X166.014Y-51.186
X166.014Y-56.266
X166.014Y-57.536
X166.383Y-97.884
X166.649Y-84.841
X166.649Y-86.746
X166.649Y-88.651
X167.615Y-69.703
X167.755Y-95.316
X167.772Y-66.35
X167.772Y-67.371
X167.843Y-61.839
X167.843Y-62.677
X167.917Y-50.363
X167.919Y-97.541
X168.554Y-84.841
X168.554Y-86.746
X168.554Y-88.651
X168.554Y-96.906
X168.671Y-61.854
X168.681Y-62.662
X168.951Y-69.662
X169.189Y-97.541
X169.52Y-104.628
X169.52Y-105.898
X169.824Y-42.931
X169.824Y-44.201
X170.155Y-63.251
X170.172Y-63.983
X170.221Y-69.662
X170.449Y-93.878
X170.459Y-85.07
X170.459Y-86.416
X170.472Y-83.876
X170.79Y-104.628
X170.79Y-105.898
X170.942Y-63.233
X170.964Y-63.996
X171.005Y-79.284
X171.005Y-80.084
X171.011Y-80.874
X171.087Y-57.34
X171.094Y-42.931
X171.094Y-44.201
X171.282Y-93.878
X171.798Y-79.304
X171.811Y-80.079
X171.811Y-80.874
X171.943Y-50.643
X172.06Y-104.628
X172.06Y-105.898
X172.364Y-56.266
X172.364Y-61.346
X172.452Y-97.955
X172.613Y-80.137
X172.618Y-80.848
X172.626Y-79.322
X172.745Y-48.9
X172.999Y-61.981
X173.465Y-97.932
X173.477Y-82.723
X173.507Y-49.408
X173.634Y-56.266
X173.634Y-61.346
X173.634Y-76.586
X174.071Y-83.208
X174.269Y-47.884
X174.269Y-55.631
X174.269Y-61.981
X174.269Y-77.221
X174.451Y-85.195
X174.475Y-97.912
X174.6Y-69.703
X174.6Y-70.973
X174.6Y-72.243
X174.777Y-48.646
X174.904Y-61.346
X174.904Y-77.856
X175.179Y-76.623
X175.191Y-75.621
X175.193Y-74.621
X175.296Y-57.236
X175.481Y-97.899
X175.539Y-61.981
X175.918Y-87.264
X175.984Y-84.681
X176.033Y-48.793
X176.174Y-61.346
X176.809Y-61.981
X176.964Y-87.346
X177.002Y-84.711
X177.433Y-48.778
X177.986Y-87.128
X178.168Y-85.029
X178.791Y-81.653
X178.791Y-82.923
X179.027Y-67.81
X179.222Y-55.504
X179.286Y-49.281
X179.349Y-50.615
X179.415Y-93.151
X179.579Y-66.977
X179.73Y-65.141
X179.73Y-65.979
X179.768Y-63.185
X179.781Y-63.95
X179.816Y-76.627
X180.0Y-74.488
X180.061Y-81.653
X180.061Y-82.923
X180.216Y-75.502
X180.558Y-65.156
X180.564Y-63.17
X180.569Y-65.964
X180.586Y-63.939
X180.619Y-49.281
X180.619Y-50.551
X180.619Y-105.161
X181.755Y-57.175
X181.889Y-105.161
X182.524Y-42.931
X182.524Y-44.201
X182.702Y-88.547
X183.159Y-49.281
X183.159Y-50.551
X183.177Y-89.118
X183.223Y-93.035
X183.49Y-95.738
X183.794Y-42.931
X183.794Y-44.201
X184.76Y-95.738
X185.064Y-58.806
X185.252Y-93.579
X185.395Y-87.483
X185.395Y-88.753
X185.395Y-101.453
X185.395Y-102.723
X185.848Y-57.163
X185.928Y-92.956
X186.131Y-58.796
X186.665Y-101.453
X186.665Y-102.723
X187.3Y-65.258
X187.3Y-66.528
X188.57Y-65.258
X188.57Y-66.528
X189.84Y-65.258
X189.84Y-66.528
X190.779Y-48.646
X190.779Y-49.916
X190.779Y-56.901
X190.779Y-58.171
X191.414Y-58.806
X192.049Y-63.886
X192.049Y-65.156
X192.684Y-58.806
X158.195Y-57.096
X158.195Y-58.296
X159.395Y-57.096
X159.395Y-58.296
X160.695Y-57.096
X160.695Y-58.296
X161.795Y-57.096
X161.795Y-58.296
T3
X168.302Y-71.826
X173.182Y-71.826
T5
X165.078Y-101.93
X167.578Y-101.93
X170.078Y-101.93
X148.953Y-102.006
X151.453Y-102.006
X153.953Y-102.006
X156.453Y-102.006
X158.953Y-102.006
X147.373Y-84.558
X147.373Y-87.058
X147.373Y-89.558
X142.441Y-71.004
X142.441Y-73.504
X142.441Y-76.004
X142.441Y-78.504
X142.491Y-84.546
X142.491Y-87.046
X142.491Y-89.546
X142.491Y-92.046
X142.491Y-94.546
X142.491Y-97.046
X176.172Y-101.94
X178.672Y-101.94
X181.172Y-101.94
X183.672Y-101.94
X149.116Y-106.959
X151.616Y-106.959
X154.116Y-106.959
X156.616Y-106.959
X162.742Y-106.959
X165.242Y-106.959
X167.742Y-106.959
X173.794Y-106.934
X176.294Y-106.934
X178.794Y-106.934
X181.294Y-106.934
X183.794Y-106.934
X147.368Y-71.004
X147.368Y-73.504
X147.368Y-76.004
X147.368Y-78.504
T6
X188.976Y-73.944
X188.976Y-76.484
X188.976Y-79.024
X191.516Y-73.944
X191.516Y-76.484
X191.516Y-79.024
X151.922Y-69.774
X154.462Y-69.774
X157.002Y-69.774
X159.542Y-69.774
X189.014Y-91.445
X189.014Y-93.985
X189.014Y-96.525
X189.014Y-99.065
X189.014Y-101.605
X191.554Y-91.445
X191.554Y-93.985
X191.554Y-96.525
X191.554Y-99.065
X191.554Y-101.605
X183.845Y-70.185
X186.385Y-70.185
X188.925Y-70.185
X191.465Y-70.185
X188.976Y-82.682
X188.976Y-85.222
X188.976Y-87.762
X191.516Y-82.682
X191.516Y-85.222
X191.516Y-87.762
X151.968Y-74.651
X151.968Y-77.191
X154.508Y-74.651
X154.508Y-77.191
X157.048Y-74.651
X157.048Y-77.191
T7
X174.228Y-46.23
X179.228Y-46.23
T2
G00X172.853Y-43.805
M15
G01X172.853Y-43.155
M16
G05
G00X180.603Y-43.805
M15
G01X180.603Y-43.155
M16
G05
T3
G00X146.432Y-47.569
M15
G01X146.432Y-49.769
M16
G05
G00X152.332Y-45.869
M15
G01X150.132Y-45.869
M16
G05
G00X152.532Y-51.669
M15
G01X149.932Y-51.669
M16
G05
T4
G00X173.003Y-47.555
M15
G01X173.003Y-47.005
M16
G05
G00X180.453Y-47.555
M15
G01X180.453Y-47.005
M16
G05
T0
M30
